<?xml version="1.0" encoding="utf-8"?>
<!-- Generator: Adobe Illustrator 26.0.3, SVG Export Plug-In . SVG Version: 6.00 Build 0)  -->
<svg version="1.1" id="Layer_1" xmlns="http://www.w3.org/2000/svg" xmlns:xlink="http://www.w3.org/1999/xlink" x="0px" y="0px"
	 viewBox="0 0 4000 4000" style="enable-background:new 0 0 4000 4000;" xml:space="preserve">
<style type="text/css">
	.st0{fill:#ED1B24;}
	.st1{opacity:0.2;}
	.st2{fill:#371A45;}
	.st3{opacity:0.35;}
	.st4{opacity:0.7;}
	.st5{fill:#FFFFFF;}
	.st6{fill:#293856;}
	.st7{fill:#21102B;}
	.st8{opacity:0.6;}
	.st9{fill:#22A7F0;}
</style>
<g>
	<g>
		<g>
			<path class="st0" d="M787.24,2448.14c13.63-2.11,28.61-3.23,43.77-3.14h0.05c43.19,0.27,87.86,10.27,106.56,34.27
				c20.05,25.61,28.75,54.09,39.96,78.4c13.45,29.11,30.5,52.29,75.03,57.41c4.8,0.54,9.51,0.9,14.22,1.03
				c68.13,2.29,124.59-31.89,142.31,44.27l212.77-268.2l367.32-463.07l-738.54,311.97l-263.81,200.25
				C779.84,2444.96,779.34,2449.35,787.24,2448.14z"/>
		</g>
	</g>
	<g class="st1">
		<g>
			<path class="st2" d="M787.24,2448.14c13.63-2.11,28.61-3.23,43.77-3.14h0.05c43.19,0.27,87.86,10.27,106.56,34.27
				c20.05,25.61,28.75,54.09,39.96,78.4c13.45,29.11,30.5,52.29,75.03,57.41c4.8,0.54,9.51,0.9,14.22,1.03
				c68.13,2.29,124.59-31.89,142.31,44.27l212.77-268.2l367.32-463.07l-738.54,311.97l-263.81,200.25
				C779.84,2444.96,779.34,2449.35,787.24,2448.14z"/>
		</g>
	</g>
	<g class="st3">
		<g>
			<path class="st2" d="M831.06,2445c43.19,0.27,87.86,10.27,106.56,34.27c20.05,25.61,28.75,54.09,39.96,78.4
				c0.9-17.85,6.95-40.63,25.2-66.02c43.06-59.78,493.03-279.59,470.43-301.43C1459.35,2176.8,840.52,2440.96,831.06,2445z"/>
		</g>
	</g>
	<g class="st3">
		<g>
			<path class="st2" d="M1066.83,2616.1c68.13,2.29,124.59-31.89,142.31,44.27l212.77-268.2
				C1275.33,2482.67,1108.9,2589.1,1066.83,2616.1z"/>
		</g>
	</g>
	<g>
		<g>
			<path class="st2" d="M1208.2,2664.58l-0.88-3.8c-12.69-54.5-44.89-50.89-89.45-45.9c-19.76,2.21-42.16,4.73-65.46,2.04
				c-55.05-6.34-68.87-39.43-84.86-77.74c-8.18-19.58-16.63-39.83-31.42-58.76c-24.19-30.97-94.64-38.79-148.62-30.41
				c-5.5,0.84-7.26-0.85-7.77-2.42c-0.81-2.5,1.49-5.42,6.15-7.85l263.66-200.17l745.71-315.08L1208.2,2664.58z M1151.46,2608.5
				c27.4,0,48.4,8.74,58.6,47.68l573.09-722.5l-731.74,309.12l-263.66,200.21c-3.1,1.59-4.14,2.95-4.37,3.44
				c0.13-0.04,0.5,0.02,1.2,0.03c0.55,0,1.32-0.04,2.34-0.2c55.05-8.54,127.09-0.29,152.17,31.81
				c15.1,19.33,23.65,39.82,31.93,59.63c15.54,37.22,28.96,69.36,81.82,75.45c22.88,2.64,45.05,0.15,64.61-2.04
				C1129.55,2609.78,1140.98,2608.5,1151.46,2608.5z"/>
		</g>
	</g>
	<g>
		<g>
			<path class="st2" d="M1200.11,2700.62l-8.43-36.2c-9.02-38.75-24.49-38.91-72.02-33.59c-20.61,2.31-43.97,4.93-69.08,2.03
				c-64.4-7.42-81.4-48.13-97.84-87.5c-7.77-18.6-15.8-37.84-29.26-55.07c-19.42-24.86-84.41-32.03-133.51-24.43
				c-14.88,2.34-23.05-5.74-25.51-13.34c-2.57-7.93-0.49-18.85,12.69-26.31l264.48-200.8l2.07-0.88l803.17-339.29L1200.11,2700.62z
				 M1150.72,2592.55c24.94,0,48.52,6.15,63.87,32.08l516.94-651.71l-671.79,283.79L835.43,2427c46.9,0.83,94.09,12.76,116.31,41.21
				c16.43,21.04,25.81,43.51,34.09,63.33c15.26,36.54,25.33,60.67,68.84,65.69c21.06,2.43,41.36,0.15,60.98-2.05
				C1127.18,2593.89,1139.1,2592.55,1150.72,2592.55z M786.89,2441.33h0.05H786.89z"/>
		</g>
	</g>
	<g>
		<g>
			<path class="st0" d="M2030.06,1818.97L809.15,2263.5c-102.53,37.33-164.93,141.33-149.63,249.36v0
				c0,0,176.78-104.17,308.19-180.82C1224.37,2182.32,2030.06,1818.97,2030.06,1818.97z"/>
		</g>
	</g>
	<g class="st4">
		<g>
			<path class="st5" d="M659.51,2512.86c0,0,7.13-4.22,19.6-11.53c2.06-93.83,61.35-178.77,151.86-211.78l841.92-306.55
				c194.87-90.78,351.04-161.23,357-163.97L809.17,2263.49C706.64,2300.85,644.21,2404.82,659.51,2512.86z"/>
		</g>
	</g>
	<g>
		<g>
			<path class="st2" d="M645.52,2541.94l-3.76-26.55c-16.39-115.73,51.42-228.75,161.25-268.74l1220.91-444.53l13.51,33.21
				c-8.05,3.63-807.77,364.68-1060.69,512.21c-129.88,75.76-306.35,179.74-308.12,180.78L645.52,2541.94z M1625.88,1985.22
				l-810.6,295.14c-85.25,31.04-140.92,113.49-140.08,202.45c53.38-31.42,182.49-107.36,283.46-166.26
				C1093.79,2237.72,1383.02,2098.79,1625.88,1985.22z"/>
		</g>
	</g>
	<g>
		<g>
			<path class="st5" d="M1534.65,3212.32c75.21,53.15,238.51,46.6,212.81-172.4c0,0,157.42-18.34,286.14-80.15
				c63.95-30.72,120.83-72.16,147.78-127.42l-342.25-512c0,0-86.6,204.02-159.93,310.49c-41.93,60.86-103.33,116.16-156.35,152.04
				c-14.44,9.78-28.26,18.12-40.9,24.71C1392.29,2854.46,1432.57,3140.2,1534.65,3212.32z"/>
		</g>
	</g>
	<g class="st3">
		<g>
			<path class="st2" d="M1496.12,3171.46c11.53,16.91,24.44,30.9,38.53,40.86c75.21,53.15,238.51,46.6,212.81-172.4
				c0,0,157.38-18.34,286.1-80.15h0.04c12.78-6.14,25.3-12.69,37.31-19.73c2.24-1.3,4.48-2.65,6.73-4.04
				c17.31-10.45,33.55-21.93,48.17-34.49c1.17-1.03,2.33-2.02,3.5-3.05c5.07-4.48,9.96-9.1,14.58-13.9
				c1.39-1.44,2.78-2.87,4.13-4.35c2.74-2.96,5.38-5.92,7.89-8.97c1.12-1.35,2.24-2.74,3.36-4.13c2.56-3.23,5.02-6.5,7.36-9.87
				c1.08-1.52,2.11-3.05,3.09-4.57c1.17-1.7,2.24-3.41,3.32-5.16c0.99-1.61,1.97-3.27,2.92-4.98c0.72-1.21,1.39-2.42,2.06-3.68
				c0.49-0.85,0.94-1.75,1.39-2.65c0.72-1.3,1.35-2.56,1.97-3.86l-342.25-512c0,0,0,0.04-0.04,0.13c-0.04,0.04-0.04,0.09-0.04,0.13
				c-0.09,0.18-0.18,0.4-0.36,0.76c-0.85,2.02-2.96,6.95-6.14,14.22c-21.57,49.24-92.08,206.31-153.34,295.24
				c-41.93,60.86-103.33,116.16-156.35,152.04c58.61,67.79,137.17,121.74,227.76,153.5c32.71,11.47,26.08,59.47-8.5,61.83
				c-77.64,5.3-133.59-3.41-133.59-3.41C1713.46,3178.68,1574.03,3215.73,1496.12,3171.46z"/>
		</g>
	</g>
	<g>
		<g>
			<path class="st2" d="M1624.17,3257.81c-37.14,0-73.79-12.42-99.89-30.86c-74.18-52.41-116.32-202.83-109.12-310.44
				c4.27-63.88,24.49-107.04,58.47-124.8c54.9-28.7,138.02-94.46,190.79-171.06c71.49-103.78,157.32-305.3,158.18-307.32
				c3.87-9.12,14.42-13.38,23.52-9.51c9.12,3.87,13.38,14.4,9.51,23.52c-3.56,8.4-88.12,206.92-161.66,313.66
				c-56.23,81.62-145.02,151.82-203.72,182.5c-21.68,11.33-36,46.1-39.29,95.39c-6.41,95.89,30.63,233.95,94.03,278.74
				c33.47,23.64,91.73,35.29,133.78,10.29c43.02-25.57,60.6-82.94,50.85-165.91l-2.09-17.82l17.83-2.09
				c3.43-0.4,343.96-41.97,419.91-197.65c4.35-8.9,15.09-12.6,23.99-8.26c8.91,4.35,12.6,15.09,8.26,23.99
				c-74.82,153.33-356.47,204.3-430.54,215.2c8.63,111.53-32.64,161.25-69.87,183.38
				C1674.65,3252.12,1649.3,3257.81,1624.17,3257.81z"/>
		</g>
	</g>
	<g>
		<g>
			<path class="st2" d="M1864.64,3031.28c-0.83,0-1.68-0.08-2.53-0.24c-99.42-18.9-298.43-96.14-340.07-253.2
				c-1.9-7.18,2.38-14.55,9.56-16.45c7.17-1.91,14.55,2.37,16.45,9.56c35.44,133.66,210.24,212.96,319.08,233.65
				c7.3,1.39,12.09,8.43,10.71,15.73C1876.62,3026.79,1870.98,3031.28,1864.64,3031.28z"/>
		</g>
	</g>
	<g>
		<g>
			<path class="st2" d="M1748.9,3056.8c-9.41,0.83-17.48,0.59-26.08-0.2c-4.24-0.31-8.46-0.84-12.64-1.56
				c-4.2-0.58-8.38-1.38-12.52-2.36c-16.64-3.53-32.8-9.55-48.26-16.95c-15.4-7.68-29.89-17.37-42.61-28.91
				c-12.51-11.89-22.65-26.09-29.25-41.32c-0.57-1.32,0.04-2.85,1.35-3.42c0.97-0.42,2.05-0.2,2.78,0.46l0.13,0.12
				c11.92,10.84,24.12,19.87,37.49,26.84c13.48,6.79,27.44,11.97,41.76,16.06c14.45,3.87,29.19,6.36,43.92,8.89
				c7.38,1.2,14.8,2.26,22.2,3.31c7.27,1.05,15.15,2.04,21.72,3.15l1.4,0.24c9.79,1.65,16.4,10.92,14.75,20.72
				C1763.67,3050.12,1756.86,3056.1,1748.9,3056.8z"/>
		</g>
	</g>
	<g>
		<g>
			<path class="st5" d="M2473.84,2637.03c37.58,30.27,74.45,53.73,102.97,66.6c239.99,108.27,362.92-106.34,339.56-215.91
				c-31.57-147.91-179.53-85.89-179.53-85.89c-53.95-5.61-100.01-32.43-130.24-87.37c-37.05-67.18-50.41-176.39-25.61-340.32
				c4.08-26.95,9.19-55.43,15.38-85.44l-46.19,66.6l-239.32,345.07C2254.57,2410.09,2367.1,2551.06,2473.84,2637.03z"/>
		</g>
	</g>
	<g class="st3">
		<g>
			<path class="st2" d="M2295.83,2363.68c0,2.06,0.04,4.13,0.13,6.23c0,0.31,0.04,0.63,0.04,0.9c0.09,1.84,0.18,3.72,0.36,5.61
				c0,0.31,0.04,0.58,0.04,0.9c0.18,1.97,0.36,3.95,0.63,5.92c0.18,1.7,0.45,3.45,0.72,5.16c0.09,0.9,0.22,1.79,0.4,2.65
				c1.03,6.19,2.38,12.33,3.99,18.52c0.58,2.2,1.21,4.4,1.88,6.59c0,0.04,0,0.04,0,0.09c0.58,1.93,1.21,3.9,1.84,5.88
				c0.13,0.4,0.27,0.81,0.4,1.26c0.67,2.02,1.39,4.04,2.15,6.05c0.76,2.24,1.62,4.44,2.51,6.64c0.4,1.08,0.85,2.15,1.3,3.18
				c0.9,2.29,1.88,4.53,2.87,6.77c0.13,0.31,0.27,0.63,0.4,0.9c0.58,1.39,1.26,2.78,1.88,4.17c1.08,2.38,2.24,4.75,3.41,7.13
				c0.67,1.43,1.39,2.87,2.15,4.26c2.38,4.66,4.93,9.33,7.58,13.99c1.08,1.88,2.2,3.77,3.32,5.65c7.45,12.51,15.74,24.89,24.76,37
				c1.08,1.48,2.2,2.92,3.32,4.4c1.08,1.48,2.2,2.92,3.36,4.4c2.24,2.87,4.53,5.79,6.86,8.66c2.24,2.74,4.48,5.47,6.77,8.21
				c6.05,7.22,12.38,14.35,18.84,21.35c1.26,1.35,2.51,2.74,3.81,4.08c14.35,15.29,29.42,29.87,44.71,43.5
				c1.93,1.7,3.9,3.41,5.83,5.16c0.45,0.36,0.85,0.72,1.26,1.08c2.74,2.38,5.47,4.71,8.21,7c4.08,3.45,8.16,6.82,12.24,10.09
				c37.58,30.27,74.45,53.73,102.97,66.6c196.4,88.58,314.4-39.02,337.99-148.36c-50.32,82.39-155.67,144.33-308.48,75.39
				c-0.26-0.12-0.53-0.24-0.79-0.36c-53.46-24.32-77.24-87.1-54.9-141.41c24.27-59.01,42.4-118.48,55.96-174.42
				c-37.05-67.18-50.41-176.39-25.61-340.32l-30.81-18.84l-224.34,323.5l-14.98,21.57
				C2300.5,2320.62,2295.83,2341.88,2295.83,2363.68z"/>
		</g>
	</g>
	<g>
		<g>
			<path class="st2" d="M2702.18,2751.09c-41.95,0-86.7-10.33-132.75-31.11c-86.59-39.07-235.77-163.96-278.99-287.56
				c-18.15-51.9-16.65-99.07,4.46-140.21c4.52-8.82,15.33-12.3,24.15-7.77c8.81,4.52,12.29,15.34,7.77,24.15
				c-16.45,32.05-17.29,69.72-2.52,111.98c38.44,109.93,177.27,229.43,259.88,266.7c117.2,52.88,194.23,21.72,238.2-13.73
				c61.56-49.63,87.2-131.56,76.43-182.09c-7.8-36.56-23.97-61.53-48.07-74.19c-45.4-23.86-106.37,0.91-106.99,1.16l-4.2,1.74
				l-4.56-0.46c-54.42-5.68-97.92-30.33-129.31-73.26c-63.28-86.56-72.33-241.79-26.88-461.37c2.01-9.7,11.51-15.94,21.2-13.93
				c9.7,2.01,15.94,11.5,13.93,21.2c-42.7,206.3-35.54,356,20.71,432.93c24.35,33.3,57.94,52.89,99.9,58.27
				c17.47-6.35,80.09-25.65,132.68,1.86c34.1,17.83,56.53,51,66.68,98.58c12.86,60.29-13.96,157.01-89,217.51
				C2803.98,2734.48,2755.34,2751.09,2702.18,2751.09z"/>
		</g>
	</g>
	<g>
		<g>
			<path class="st5" d="M1689.56,2872.31c127.91,58.66,285.56,71.58,446.79,11.3c288.38-107.82,399.7-411.05,442.62-629.02
				c27-136.97,27-240.26,27-240.26l-642.29-392.61c-34.4,116.56-81.49,196.89-134.28,258.6
				c-101.14,118.45-222.95,168.59-315.29,275.51c-32.25,37.36-60.91,81.63-83.78,138.18c-0.85,2.06-1.7,4.17-2.51,6.28
				c-7.27,18.57-13.1,37.18-17.58,55.75C1358.25,2570.39,1486.39,2779.07,1689.56,2872.31z"/>
		</g>
	</g>
	<g class="st3">
		<g>
			<path class="st2" d="M2136.35,2883.62c207.29-77.5,323.1-255.96,387.77-431.14c-68.17,154.19-179.89,301.43-362.97,369.87
				c-430.02,160.79-834.74-199.13-717.06-559.5c-5.74,11.89-11.17,24.35-16.28,37.45
				C1283.8,2668.38,1696.87,3047.95,2136.35,2883.62z"/>
		</g>
	</g>
	<g>
		<g>
			<path class="st2" d="M1923.01,2940.9c-43.85,0-87.37-4.84-129.91-14.58c-105.49-24.15-200.28-76.55-274.14-151.54
				c-132.68-134.7-172.99-314.53-107.84-481.03c56.38-144.09,146.39-211.11,241.69-282.07c111.6-83.1,227-169.02,293.63-395.02
				l6.61-22.43l670.85,410.03v10.06c0,7.19-0.68,178.31-59.46,373.96c-78.49,261.2-224.35,438.3-421.83,512.14
				C2070.67,2927.33,1996.39,2940.9,1923.01,2940.9z M1974.01,1649.09c-70.83,220.9-187.16,307.52-299.77,391.37
				c-91.06,67.8-177.07,131.84-229.7,266.36c-59.84,152.93-22.46,318.45,99.99,442.77c116.98,118.77,332.23,211.93,585.52,117.21
				c235.43-88.03,347.35-313.97,399.78-488.01c49.56-164.51,56.92-315.16,58.01-354.53L1974.01,1649.09z"/>
		</g>
	</g>
	<g class="st3">
		<g>
			<path class="st2" d="M1829.4,1880.33c130.69,273.54,448.9,439.75,749.57,374.27c27-136.97,27-240.26,27-240.26l-642.29-392.61
				C1929.28,1738.29,1882.19,1818.62,1829.4,1880.33z"/>
		</g>
	</g>
	<g class="st3">
		<g>
			<path class="st2" d="M1957.1,1885.03c94.67-6.86,161.51-123.72,142.38-254.13c-57.13,138.03-205.11-85.45-216.38-150.04
				C1640.85,1546.59,1783.48,1901.36,1957.1,1885.03z"/>
		</g>
	</g>
	<g class="st4">
		<g>
			<path class="st5" d="M2159.77,1509.91c38.04,126.97,183.01,85.97,168.63-29.33C2302.05,1336.2,2130.41,1381.75,2159.77,1509.91z"
				/>
		</g>
	</g>
	<g>
		<g>
			<g>
				<path class="st5" d="M3169.91,1842.62c-511.56,805.01-1654.62,134.63-1248.26-689.15
					C2425.76,317.01,3606.65,1011.07,3169.91,1842.62z"/>
			</g>
		</g>
		<g>
			<g>
				<path class="st5" d="M3169.91,1842.62c-511.56,805.01-1654.62,134.63-1248.26-689.15
					C2425.76,317.01,3606.65,1011.07,3169.91,1842.62z"/>
			</g>
		</g>
		<g>
			<g>
				<path class="st5" d="M3169.91,1842.62c-511.56,805.01-1654.62,134.63-1248.26-689.15
					C2425.76,317.01,3606.65,1011.07,3169.91,1842.62z"/>
			</g>
		</g>
		<g>
			<g>
				<path class="st2" d="M2559.73,2219.22c-123.6,0-248.22-32.87-361.72-96.68c-159.24-89.53-278.92-229.58-336.97-394.36
					c-64.91-184.23-48.19-385.04,48.35-580.75l0.55-1.01c118.42-196.5,283.02-323.75,476-368
					c171.13-39.25,354.48-10.66,516.27,80.47c162.13,91.33,282.92,233.91,340.14,401.48c64.12,187.8,43.25,391.34-60.35,588.6
					l-0.56,0.97c-120.32,189.34-284.5,311.54-474.78,353.4C2658.36,2213.97,2609.13,2219.22,2559.73,2219.22z M1933.65,1160.03
					c-207.36,421.03-1.45,781.71,277.76,938.68c285.78,160.68,689.26,141.66,946.67-262.95
					c222.95-425.05,16.75-791.95-269.27-953.07C2605.57,723.15,2185.94,741.91,1933.65,1160.03z M3169.9,1842.62h0.05H3169.9z"/>
			</g>
		</g>
		<g class="st3">
			<g>
				<path class="st6" d="M3169.91,1842.6c-429.75,703-1454.11,293.32-1319.99-487.15c39.83,255.16,127.23,267.88,257.32,401.01
					c398.48,436.01,1052.35,143.06,1148.77-367.42C3278.93,1547.93,3246.72,1707.28,3169.91,1842.6z"/>
			</g>
		</g>
		<g>
			<g>
				<path class="st2" d="M2559.73,2224.72c-124.54,0-250.08-33.11-364.41-97.39c-160.41-90.19-280.96-231.29-339.46-397.32
					c-65.41-185.65-48.6-387.95,48.61-585.01l0.77-1.41c119.21-197.81,285.01-325.93,479.48-370.52
					c172.47-39.54,357.22-10.77,520.2,81.04c163.31,91.99,284.99,235.64,342.64,404.5c64.62,189.27,43.64,394.3-60.69,592.93
					l-0.79,1.37c-121.13,190.61-286.5,313.64-478.24,355.82C2659.16,2219.43,2609.52,2224.72,2559.73,2224.72z M1938.48,1162.68
					c-205.66,417.76-1.36,775.52,275.62,931.24c283.47,159.38,683.72,140.46,939.2-260.91c221.05-421.7,16.53-785.7-267.2-945.52
					C2605.16,729.24,2188.89,747.91,1938.48,1162.68z M3169.9,1842.62h0.05H3169.9z"/>
			</g>
		</g>
		<g>
			<g>
				<path class="st2" d="M3060.1,1988.64c-709.23,445.26-1344.45-379.14-811.06-882.19
					C2880.72,579.29,3627.43,1353.19,3060.1,1988.64z"/>
			</g>
		</g>
		<g>
			<g>
				<path class="st7" d="M3239.16,1487.59c24,756.49-1056.26,849.34-1191.72,161.32
					C2405.33,2046.59,3046.46,1859.28,3239.16,1487.59z"/>
			</g>
		</g>
		<g>
			<g>
				<path class="st2" d="M2621.55,2201.45c-91.19,0-183.54-20.48-270.26-60.85c-144.67-67.35-261.21-182.6-328.16-324.51
					c-73.84-156.54-81.29-331.2-21.55-505.11c66.6-178.78,213.5-326.4,403.15-405.4c190.32-79.28,399.78-79.37,574.65-0.28
					l2.37,1.33c147.23,99.58,247.72,256.62,282.94,442.2c33.27,175.3,3.75,358.25-81,501.94l-0.06,0.1
					c-100.65,167.72-237.76,280.85-396.51,327.15C2733.43,2193.68,2677.71,2201.45,2621.55,2201.45z M2698.21,878.08
					c-93.93,0-189.79,19.03-281.15,57.08c-181.49,75.6-321.93,216.51-385.31,386.62c-123.37,359.1,74.13,669.22,333.06,789.77
					c225.35,104.91,567.8,95.29,791.31-277.09c156.82-265.93,117.31-690.9-191.18-900.51
					C2882.12,896.7,2791.1,878.08,2698.21,878.08z M3169.9,1842.62h0.05H3169.9z"/>
			</g>
		</g>
		<g>
			<g>
				<path class="st2" d="M2651.04,2135.34c-36.88,0-73.45-3.12-109.58-9.39c-153.13-26.61-289.82-108.96-384.9-231.87
					c-87.79-113.5-131.87-251.85-124.1-389.56c8.57-152.11,78.92-294.58,203.42-412l0.87-0.77
					c149.54-124.8,316.18-186.57,481.94-178.56c149.04,7.18,288.86,70.83,393.71,179.24c107.29,110.93,167.05,257.13,168.28,411.67
					c1.37,172.65-69.96,344.62-206.29,497.33l-1.81,2.02l-2.3,1.44C2932.95,2091.1,2789.93,2135.34,2651.04,2135.34z
					 M2261.77,1120.79c-261.39,246.9-226,554.46-74.88,749.83c166.45,215.19,496.94,330.28,860.72,103.23
					c284.07-319.98,218.66-667.22,37.25-854.79C2902.42,930.44,2577.21,857.89,2261.77,1120.79z M3060.1,1988.64h0.05H3060.1z"/>
			</g>
		</g>
		<g>
			<g>
				<path class="st5" d="M1746.08,1658.84c54.72,331.83,391.9,304.92,371.59-17.14C2073.09,1291.8,1712.65,1320.53,1746.08,1658.84z
					"/>
			</g>
		</g>
		<g>
			<g>
				<path class="st2" d="M1951.37,1914.9c-91.08,0-195.07-76.29-224.2-252.94l-0.16-1.23c-18-182.19,73.54-276.46,166.21-286.94
					c54.09-6.12,109.95,15.25,153.28,58.63c47.86,47.91,79.04,119.44,90.18,206.86l0.11,1.22c11,174.46-76.11,263.02-167.32,273.39
					C1963.52,1914.56,1957.47,1914.9,1951.37,1914.9z M1765.09,1656.34c27.15,163.31,122.74,228.28,200.06,219.46
					c73.09-8.31,142.63-83.34,133.44-232.28c-21.19-164.61-117.14-241.14-201.05-231.65
					C1823.04,1420.3,1749.9,1500.39,1765.09,1656.34z"/>
			</g>
		</g>
		<g>
			<g>
				<path class="st5" d="M1733.33,1677.61c44.63,268.86,297.57,252.97,281.18-7.52C1979.31,1383.2,1704.44,1400.78,1733.33,1677.61z
					"/>
			</g>
		</g>
		<g>
			<g>
				<path class="st2" d="M1892.61,1891.6c-71.33,0-153.77-63.71-178.19-210.85l-0.15-1.15c-15.68-150.25,54.61-227.48,126.55-235.64
					c80.97-9.17,173.2,64.72,192.71,223.8l0.1,1.13c8.95,142.24-57.69,213.97-127.69,221.96
					C1901.56,1891.35,1897.11,1891.6,1892.61,1891.6z M1752.33,1675.05c21.98,131.29,92.7,184.19,149.27,177.72
					c51.9-5.93,100.99-64.16,93.82-180.91c-16.61-133.94-88.17-196.91-150.28-189.82
					C1791.46,1488.14,1739.58,1551.13,1752.33,1675.05z"/>
			</g>
		</g>
		<g class="st8">
			<g>
				<path class="st5" d="M2266.27,1708.21c18.54,50.97,86.63,33.13,71.63-24.12C2319.36,1633.12,2251.26,1650.96,2266.27,1708.21z"
					/>
			</g>
		</g>
		<g class="st8">
			<g>
				<path class="st5" d="M3135.33,1537.32c79.67-496.37-434.71-556.42-589.6-449.9C2875.27,1107.27,3022.8,1309.41,3135.33,1537.32z
					"/>
			</g>
		</g>
		<g class="st3">
			<g>
				<path class="st2" d="M2028.63,1731.03c4.53-38.07-1.37-77.52-15.08-113.51c-46.41,182.59-230.38,103.85-274.04-26.45
					C1701.48,1860.83,1976.46,1984.27,2028.63,1731.03z"/>
			</g>
		</g>
	</g>
	<g>
		<g>
			<path class="st2" d="M2745.59,2417.53c-1.11,0.73-3.63,2.49-5.52,3.96c-2.02,1.64-4.06,3.23-6.04,5.02
				c-2.03,1.68-3.96,3.53-5.87,5.42c-1.97,1.81-3.78,3.8-5.61,5.78c-7.27,7.93-13.98,16.54-19.51,25.93
				c-3.07,4.52-5.22,9.58-7.85,14.39c-2.34,4.96-4.45,10.05-6.53,15.17c-1.62,5.29-3.68,10.46-5.01,15.88
				c-1.2,5.45-2.94,10.8-3.81,16.37c-0.8,5.58-1.92,11.14-2.5,16.8c-0.37,5.69-0.79,11.38-1.3,17.1
				c-0.36,10.74,0.66,21.31,3.78,31.44c6.36,20.13,18.99,38.63,36.63,55.86l0.14,0.14c0.6,0.59,0.62,1.56,0.03,2.16
				c-0.36,0.37-0.88,0.52-1.36,0.44c-25.74-4.55-48.2-24.4-58.78-49.85c-5.4-12.65-8.18-26.37-9.06-39.91
				c-0.16-6.42-0.23-12.87-0.25-19.33c0.16-6.46,0.89-12.94,1.34-19.44c2.75-25.9,10.31-51.96,23.67-75.24
				c6.35-11.81,14.51-22.64,23.55-32.67c2.25-2.52,4.57-4.99,7.09-7.28c2.44-2.36,4.92-4.68,7.58-6.86
				c2.54-2.27,5.35-4.34,8.15-6.41c3.02-2.12,5.47-3.85,9.59-6.21c8.58-4.92,19.53-1.96,24.45,6.62c4.74,8.26,2.17,18.7-5.67,23.86
				L2745.59,2417.53z"/>
		</g>
	</g>
	<g>
		<g>
			<path class="st5" d="M2783.75,2390.23c0,0-87.68,21.45-120.41,105.27c0,0-34-2.31-40.45-40.85
				c-7.53-44.98,28.55-110.29,92.71-114.88C2764.28,2336.29,2783.75,2390.23,2783.75,2390.23z"/>
		</g>
	</g>
	<g class="st3">
		<g>
			<path class="st2" d="M2622.88,2454.63c6.46,38.57,40.45,40.86,40.45,40.86c32.74-83.82,120.42-105.26,120.42-105.26
				s-4.26-11.8-13.77-23.99c-25.71,5.61-68.82,20.25-101.31,58.07c-12.38,14.41-35.84,11.41-43.03-6.17
				c-0.09-0.21-0.17-0.42-0.25-0.63C2621.89,2430.28,2620.95,2443.1,2622.88,2454.63z"/>
		</g>
	</g>
	<g>
		<g>
			<path class="st2" d="M2674.97,2513.83l-12.81-0.87c-16.53-1.12-49.61-14.15-56.53-55.42c-4.88-29.14,5.11-63.79,26.07-90.42
				c20.91-26.57,50.27-42.48,82.65-44.8c61.21-4.3,84.88,59.26,85.86,61.97l6.61,18.31l-18.88,4.62
				c-1.45,0.37-79.54,20.99-108.3,94.64L2674.97,2513.83z M2719.93,2357.12c-1.01,0-2.04,0.04-3.08,0.11
				c-22.43,1.6-42.9,12.8-57.64,31.53c-14.83,18.85-22.31,43.57-19.06,63c2.07,12.38,8.02,18.94,13.52,22.41
				c27.7-55.6,77.03-82.5,105.06-93.87C2751.22,2369.47,2738.57,2357.12,2719.93,2357.12z"/>
		</g>
	</g>
	<g>
		<g>
			<path class="st5" d="M1657.8,2074.35l331.17,96.61c115.67-143.43,255.42-471.59,255.42-471.59s38.71-1.39,82.39-21.12
				c32.65-14.76,68.08-39.78,92.21-82.12c7.71-13.41,14.26-28.61,19.2-45.79c48.48-168.32-148.77-293.5-315.92-244.21
				C1859.49,1383.67,1886.09,1764.13,1657.8,2074.35z"/>
		</g>
	</g>
	<g class="st3">
		<g>
			<path class="st2" d="M2152.54,1648.68c48.39,22.29,117.78,28.66,174.24,29.56c32.65-14.76,68.08-39.78,92.21-82.12
				c-92.48,4.57-326.82,3.41-356.06-122.39C2062.93,1473.73,2005.43,1580.92,2152.54,1648.68z"/>
		</g>
	</g>
	<g>
		<g>
			<path class="st2" d="M1652.99,2070.83c6.87-16.35,15.26-31.36,22.82-46.89c7.94-15.25,15.62-30.57,23.75-45.58
				c15.91-30.26,31.06-60.85,45.88-91.71c14.56-30.99,28.86-62.24,41.67-94.21c13.09-31.86,24.9-64.35,36.82-96.9
				c23.88-65.07,46.59-131.19,76.9-195.36c15.22-32,32.5-63.51,53.8-92.9c21.13-29.4,47.04-56.34,77.49-77.48l11.51-7.77
				c3.78-2.69,8.02-4.63,12.01-6.98l12.16-6.73c4.18-1.97,8.44-3.79,12.66-5.68c4.24-1.83,8.42-3.85,12.73-5.5l13.08-4.49
				c4.39-1.42,8.66-3.12,13.15-4.31l13.47-3.52c36.17-8.23,73.73-9.66,110.2-4.05c36.52,5.29,71.94,17.54,104.2,35.78
				c32.21,18.25,61.14,43.44,82.51,74.82c10.64,15.68,19.25,32.96,25.08,51.25c5.84,18.29,8.64,37.59,8.57,56.73
				c-0.06,19.17-3.05,38.15-8.15,56.34c-5.21,17.97-12.52,35.55-22.19,51.89c-19.26,32.8-48.05,59.89-80.94,77.92
				c-16.43,9.1-33.78,16.2-51.57,21.52c-8.91,2.63-17.92,4.84-27.06,6.58c-4.57,0.87-9.17,1.63-13.83,2.25
				c-4.79,0.63-9.05,1.12-14.69,1.42l15.86-10.9c-17.91,41.55-36.58,82.3-55.82,123.01c-19.24,40.66-39.1,81.05-59.94,121
				c-10.22,20.07-21.16,39.8-31.8,59.69c-10.98,19.73-21.26,39.86-32.74,59.41c-2.79,4.93-5.72,9.78-8.62,14.64
				c-3,4.82-6.22,9.51-9.35,14.25c-3.1,4.76-6.42,9.38-9.66,14.05l-4.9,6.97l-5.3,6.75c-7.2,8.91-14.52,17.68-22.61,25.88
				c-8.43,8-16.98,15.82-26.5,22.67c-2.78,2-6.65,1.37-8.65-1.41c-1.3-1.81-1.49-4.08-0.7-5.99l0.05-0.11
				c17.59-42.36,40.34-79.36,63.3-117.39c5.66-9.52,11.82-18.72,17.41-28.32c5.65-9.56,11.3-19.12,16.77-28.78
				c10.67-19.51,21.33-39.02,31.47-58.85c20.59-39.48,40.27-79.5,59.35-119.81c19.03-40.28,37.68-80.99,55.23-121.71l4.44-10.3
				l11.42-0.6c3.03-0.16,7.41-0.59,11.23-1.12c3.95-0.52,7.92-1.18,11.87-1.93c7.92-1.51,15.79-3.44,23.53-5.72
				c15.47-4.63,30.44-10.78,44.39-18.5c27.97-15.39,51.43-37.63,67.44-64.77c8.02-13.55,14.17-28.29,18.64-43.66
				c4.25-15.26,6.67-30.85,6.73-46.41c0.06-15.54-2.16-31.04-6.9-45.85c-4.73-14.81-11.74-28.93-20.59-41.97
				c-17.75-26.06-42.43-47.84-70.59-63.76c-28.17-15.91-59.48-26.81-91.71-31.45c-32.19-4.97-65.22-3.65-96.76,3.51l-11.73,3.07
				c-3.91,1.02-7.72,2.57-11.58,3.82l-11.56,3.94c-3.79,1.46-7.43,3.25-11.16,4.85l-11.11,4.95l-10.61,5.91
				c-3.48,2.06-7.22,3.7-10.51,6.08l-10.06,6.81c-26.63,18.49-49.68,42.24-69.04,69.19c-19.49,26.88-35.81,56.49-50.39,87.17
				c-29.08,61.51-51.67,126.99-75.6,192.26c-23.97,65.28-48.14,131.09-77.2,195.25c-14.89,31.92-31.77,62.99-50.48,92.95
				c-9.78,14.73-19.65,29.4-31.09,42.97c-10.89,13.92-23.27,26.77-36.25,38.91c-2.45,2.29-6.3,2.16-8.59-0.29
				c-1.69-1.8-2.06-4.36-1.17-6.5L1652.99,2070.83z"/>
		</g>
	</g>
	<g>
		<g>
			<path class="st2" d="M2065.5,1433.35c7.1,11.53,10.78,21.12,14.23,31.16c3.91,9.88,7.47,20.1,12.46,30.22
				c5.08,10.08,11.88,19.44,19.45,28.31c0.93,1.16,1.88,2.31,2.52,2.91c0.66,0.75,1.45,1.52,2.34,2.29c0.8,0.78,1.74,1.54,2.72,2.3
				c0.92,0.78,1.94,1.53,3.02,2.27c4.21,2.98,8.93,5.81,13.96,8.38c20.27,10.27,43.55,17.42,66.97,22.48
				c23.52,5.03,47.62,8.01,71.57,8.56c23.92,0.55,47.86-1.23,70.17-6.83c22.21-5.52,42.89-15.32,56.27-30.36
				c6.77-7.44,11.46-16.22,14.41-25.85c2.79-9.71,3.69-20.32,3.04-31.25c-0.34-5.47-1.06-11.01-2.08-16.57
				c-1.07-5.58-3.15-10.96-5.12-16.39c-2.03-5.41-3.2-11.08-3.83-17.16c-0.29-6.19,0.06-12.74,3.86-21.14l0.15-0.33
				c1.87-4.12,6.62-6.04,10.8-4.48c8.61,3.24,14.02,8.22,17.91,13.92c3.89,5.67,6.45,12.05,7.95,18.72
				c1.53,6.67,2.29,13.57,3.6,20.35c1.19,6.85,2.15,13.8,2.57,20.9c0.84,14.19-0.24,29.04-4.44,43.56
				c-4.33,14.46-11.86,28.38-22.07,39.6c-10.06,11.39-22.35,20.04-35,26.69c-12.74,6.55-25.97,11.29-39.26,14.57
				c-26.62,6.64-53.39,8.49-79.78,7.91c-26.42-0.62-52.53-3.85-78.27-9.36c-25.73-5.63-51.1-13.18-75.85-25.66
				c-6.18-3.16-12.32-6.77-18.39-11.07c-1.52-1.05-3.03-2.17-4.53-3.41c-1.5-1.17-3-2.4-4.48-3.8c-2.83-2.43-6.27-6.22-8.08-8.53
				c-8.81-10.28-16.62-21.53-24.31-33.17c-7.52-11.73-13.94-24.87-16.43-39.37c-2.45-14.31-1.85-30.43,10.43-43.66
				c2.4-2.58,6.43-2.73,9.01-0.34c0.42,0.39,0.78,0.83,1.08,1.3L2065.5,1433.35z"/>
		</g>
	</g>
	<g>
		<g>
			<path class="st5" d="M2445.21,1511.15c0,0-137.67-11.33-159.76,30.55c-26.73,50.67,18.19,76.78,62.09,85.9
				c42.52,8.84,73.68,13.71,95.12-19.33C2471.94,1563.17,2445.21,1511.15,2445.21,1511.15z"/>
		</g>
	</g>
	<g class="st3">
		<g>
			<path class="st2" d="M2347.55,1627.6c42.52,8.84,73.69,13.68,95.13-19.33c16.33-25.16,15.2-52.47,11.03-71.71
				c-2.06,8.52-5.56,17.18-11.03,25.56c-21.44,33.01-52.61,28.17-95.13,19.33c-26.06-5.43-52.47-16.82-64.05-35.79
				C2261.12,1593.74,2304.8,1618.68,2347.55,1627.6z"/>
		</g>
	</g>
	<g>
		<g>
			<path class="st2" d="M2393.61,1651.62c-16.46,0-33.48-3.54-49.62-6.89c-22.85-4.75-63.44-17.5-78.53-49.54
				c-6.03-12.8-10.13-33.88,4.52-61.66c26.15-49.59,151.76-41.88,176.67-39.82l9.69,0.8l4.44,8.65
				c1.28,2.49,30.96,61.65-3.43,114.64C2440.24,1644.15,2417.52,1651.62,2393.61,1651.62z M2405.87,1527.07
				c-49.71,0-96.99,7.73-104.93,22.78c-6.45,12.22-7.7,22.17-3.81,30.42c6.2,13.16,26.38,24.45,53.98,30.19
				c46.55,9.68,63.22,9.32,76.88-11.72c16.95-26.12,10.14-56.31,5.14-70.89C2424.11,1527.33,2414.95,1527.07,2405.87,1527.07z"/>
		</g>
	</g>
	<g>
		<g>
			<path class="st5" d="M1446.09,2303.71c0,0-122.73,185.14-214.5,276.74c-66.74,66.62-162.79,118.8-226.61,138.63
				c-96.81,30.08-109.79,318.17-22.66,407.24c64.24,65.67,226.1,88.35,241.09-131.52c0,0,375.99,3.64,486.53-145.52l0,0
				c27.89-30.95,31.81-76.66,9.59-111.9L1446.09,2303.71z"/>
		</g>
	</g>
	<g class="st3">
		<g>
			<path class="st2" d="M937.61,3037.63c9.6,36.51,24.44,67.99,44.71,88.71c64.22,65.66,226.09,88.31,241.11-131.54
				c0,0,375.97,3.63,486.53-145.54c15.83-17.54,23.91-39.87,23.91-62.3c0-0.17,0-0.34,0-0.51c-0.15-26.39-32.15-39.67-51.62-21.86
				c-2.62,2.39-5.09,4.84-7.31,7.3c-210.75,235.24-583.61,123.29-583.61,123.29c125.59,215.97-100.58,247.08-143.99,153.79
				C945.28,3044.55,940.66,3041.71,937.61,3037.63z"/>
		</g>
	</g>
	<g>
		<g>
			<path class="st2" d="M1090.16,3189.6c-46.82,0-92.76-22.22-120.65-50.73c-62.9-64.3-76.95-219.08-50.61-323.31
				c15.88-62.84,43.81-102.12,80.77-113.6c59.31-18.43,153.22-68.28,219.26-134.2c88.92-88.76,191.88-272.17,192.92-274.01
				c4.83-8.65,15.76-11.74,24.41-6.91c8.65,4.83,11.74,15.76,6.91,24.41c-4.3,7.7-106.41,189.59-198.89,281.9
				c-70.33,70.2-170.58,123.37-233.96,143.06c-23.69,7.36-44.34,39.49-56.63,88.13c-23.47,92.85-12.21,234.55,41.47,289.43
				c29.2,29.85,83.06,51.13,129.48,34c47.22-17.4,75.19-70.73,80.89-154.2l1.15-16.88l16.92,0.16
				c3.69,0.1,368.14,1.81,471.95-138.26l1.46-1.73c0.08-0.09,14.02-15.12,17.39-34.71c1.68-9.77,10.97-16.3,20.72-14.64
				c9.77,1.68,16.32,10.95,14.64,20.72c-4.76,27.71-21.59,47.7-26,52.54c-102.94,137.32-408.16,150.7-483.88,151.88
				c-11.88,112.06-61.92,153.72-102.83,168.8C1121.76,3187.08,1105.9,3189.6,1090.16,3189.6z"/>
		</g>
	</g>
	<g>
		<g>
			<path class="st2" d="M2186.2,1840.87c-0.4,0-0.81-0.02-1.22-0.05c-12.92-1.16-316.66-30.1-346.06-167.34
				c-1.56-7.27,3.07-14.42,10.34-15.98c7.3-1.55,14.42,3.07,15.98,10.34c20.98,97.9,239.67,138.71,322.17,146.17
				c7.4,0.67,12.86,7.21,12.19,14.61C2198.96,1835.61,2193.09,1840.87,2186.2,1840.87z"/>
		</g>
	</g>
	<g>
		<g>
			<path class="st2" d="M1343.66,3001.99c-0.67,0-1.35-0.05-2.04-0.16c-2.39-0.36-59.22-9.47-115.76-56.53
				c-51.8-43.12-113.05-127.6-110.62-285.15c0.11-7.43,6.05-13.48,13.66-13.24c7.43,0.11,13.36,6.23,13.24,13.66
				c-1.8,117.32,31.81,205.86,99.89,263.18c50.83,42.79,103.15,51.41,103.67,51.49c7.33,1.15,12.36,8.02,11.22,15.35
				C1355.9,2997.23,1350.18,3001.99,1343.66,3001.99z"/>
		</g>
	</g>
	<g>
		<g>
			<path class="st2" d="M1223.85,3009.79c-5,0.44-8.7,0.44-12.89,0.23c-4.07-0.21-8.08-0.64-12.06-1.3
				c-3.99-0.57-7.9-1.54-11.82-2.45c-3.85-1.16-7.75-2.21-11.52-3.61c-15.19-5.36-29.25-14-41.27-24.58
				c-11.98-10.59-22.32-22.97-29.36-36.85c-4-6.65-6.44-14.05-9.13-21.11c-1.5-3.47-2.03-7.32-2.97-10.96
				c-0.87-3.66-1.61-7.34-2.35-10.96c-0.24-1.17,0.51-2.3,1.68-2.54c0.87-0.18,1.72,0.2,2.2,0.88l0.17,0.24
				c4.21,6.08,7.64,12.34,11.81,18.05c4.5,5.52,8.18,11.38,13.23,16.15c8.97,10.36,19.74,18.52,30.82,25.37
				c11.13,6.88,23.23,11.69,35.56,15.48c3.12,0.85,6.24,1.69,9.32,2.62c3.17,0.61,6.29,1.5,9.45,2.13c3.17,0.59,6.32,1.31,9.47,1.77
				l8.82,1.45l1.95,0.32c8.15,1.34,13.68,9.04,12.33,17.19C1236.16,3004.2,1230.48,3009.2,1223.85,3009.79z"/>
		</g>
	</g>
	<g>
		<g>
			<path class="st5" d="M2532.2,2494.64l-24.07-34.33c-11.72-16.71-28.28-29.41-47.46-36.4l-320.48-116.72
				c-5.29-1.9-19.84,66.53-21.69,71.84l32.13,83.96L2532.2,2494.64z"/>
		</g>
	</g>
	<g>
		<g>
			<path class="st2" d="M2523.08,2506.37c-0.48,0-0.96-0.02-1.45-0.06l-379.88-31.5l-36.57-95.57l1.51-4.32
				c0.33-1.06,1.69-6.77,2.9-11.8c13.65-57.06,17.05-63.07,24.01-66.84c3.34-1.8,7.28-2.12,10.81-0.85l320.54,116.74
				c21.69,7.9,40.16,22.06,53.41,40.96l18.58,26.5c3.82,5.45,4.14,12.43,0.83,18.2C2534.7,2503.19,2529.16,2506.37,2523.08,2506.37z
				 M2516.47,2493.98C2516.47,2493.98,2516.47,2493.98,2516.47,2493.98L2516.47,2493.98z M2159.49,2451.19l347.16,28.79l-8.76-12.49
				c-10.3-14.68-24.65-25.69-41.5-31.83l-310.36-113.03c-4.05,12.55-9.68,36.08-12.12,46.3c-1.03,4.3-1.75,7.29-2.29,9.44
				L2159.49,2451.19z"/>
		</g>
	</g>
	<g>
		<g>
			<path class="st5" d="M1909.01,2715.12c51.8,37.99,133.97,97.55,135.85,94.54l71.54-127.46l158.45-282.37
				c1.03-1.84-85.3-64.72-134.64-92.61c-20.68-11.71-43.59,16.42-57.14,37.9l-100.19,158l-85.75,135.22
				C1880.53,2664.39,1885.73,2698.03,1909.01,2715.12z"/>
		</g>
	</g>
	<g class="st3">
		<g>
			<path class="st2" d="M1909.01,2715.12c51.8,37.99,133.97,97.55,135.85,94.54l71.54-127.46l40.01-164.1c0,0-81,54.63-144.77,11.03
				c-11.62-7.94-21.08-16.77-28.75-26.01l-85.75,135.22C1880.53,2664.39,1885.73,2698.03,1909.01,2715.12z"/>
		</g>
	</g>
	<g>
		<g>
			<path class="st2" d="M2044.66,2822.31c-7.07,0-23.14-9.18-143.03-97.12c-28.54-20.93-35.15-62.03-15.05-93.58l185.92-293.2
				c33.88-53.8,60.81-49.47,73.84-42.09c30.4,17.2,71.15,45.42,87.26,56.75c13.27,9.33,25.74,18.38,35.11,25.46
				c15.59,11.77,22.7,17.14,17.09,27.32l-230.34,410.41l-2.89,4.62l-5.52,1.13C2046.28,2822.17,2045.54,2822.31,2044.66,2822.31z
				 M2044.88,2809.64h0.05H2044.88z M2130.1,2317.09c-9.02,0-22.71,12.84-36.46,34.68l-185.95,293.26
				c-13.06,20.49-9.21,46.84,8.74,60c78.54,57.61,110.5,79.58,123.49,87.93l219.09-390.4c-20.67-16.02-83.79-61.18-124.96-84.48
				C2132.85,2317.41,2131.53,2317.09,2130.1,2317.09z"/>
		</g>
	</g>
	<g>
		<g>
			<path class="st5" d="M2048.67,2810.33l260.58,38.93c41.17,0.09,70.73-5.74,94.41-43.68l12.06-19.33l120.87-193.62
				c8.16-13.05,13.37-26.91,15.74-40.32c5.56-31.8-15.52-53.06-45.21-71.71l-217.92-79.61c-34.85-12.74-73.87,0.04-94.45,30.9
				l-22.74,37.09l-160.47,261.74C1991.8,2762.88,2011.35,2804.77,2048.67,2810.33z"/>
		</g>
	</g>
	<g class="st3">
		<g>
			<path class="st2" d="M2048.67,2810.33l260.58,38.93c41.17,0.09,70.73-5.74,94.41-43.68l12.06-19.33
				c-57.77,7.04-148,3.05-210.75-70.77c-59.92-70.41-50.14-174.78-32.96-246.49l-160.47,261.74
				C1991.8,2762.88,2011.35,2804.77,2048.67,2810.33z"/>
		</g>
	</g>
	<g>
		<g>
			<path class="st2" d="M2310.17,2861.78c-0.31,0-0.62,0-0.94,0l-1.82-0.14l-260.59-38.93c-21.69-3.24-40.18-17.04-49.44-36.92
				c-9.27-19.88-7.95-42.91,3.51-61.6l183.22-298.84c24.11-36.18,68.98-50.87,109.37-36.11l219.17,80.06l1.12,0.7
				c27.53,17.31,58.2,42.56,50.87,84.47c-2.68,15.33-8.71,30.82-17.43,44.79l-132.93,212.95
				C2385.88,2857.69,2347.33,2861.78,2310.17,2861.78z M2261.52,2408.56c-22.17,0-43.46,10.9-56.36,30.25l-182.96,298.44
				c-7.17,11.7-7.96,25.54-2.16,37.97c5.8,12.44,16.91,20.73,30.48,22.76l259.68,38.79c39.33-0.02,63.02-6,82.89-37.82L2526,2586.01
				c7.03-11.26,11.88-23.66,14.01-35.85c3.77-21.58-7.38-38.53-38.44-58.29l-216.67-79.14
				C2277.21,2409.91,2269.31,2408.56,2261.52,2408.56z"/>
		</g>
	</g>
	<g>
		<g>
			<path class="st9" d="M2240.9,2630.13c-3.8,7.35-42.96,62.27-42.96,62.27s-15.43-7.98-34.39-17.78
				c-23.68-12.24-27.44-52.02-8.4-88.83c19.04-36.82,53.67-56.73,77.34-44.49c15.98,8.26,34.39,17.78,34.39,17.78
				S2247.09,2618.16,2240.9,2630.13z"/>
		</g>
	</g>
	<g>
		<g>
			<path class="st9" d="M2240.9,2630.13c-3.8,7.35-42.96,62.27-42.96,62.27s-15.43-7.98-34.39-17.78
				c-23.68-12.24-27.44-52.02-8.4-88.83c19.04-36.82,53.67-56.73,77.34-44.49c15.98,8.26,34.39,17.78,34.39,17.78
				S2247.09,2618.16,2240.9,2630.13z"/>
		</g>
	</g>
	<g class="st3">
		<g>
			<path class="st2" d="M2240.9,2630.13c-3.8,7.35-42.96,62.27-42.96,62.27s-15.43-7.98-34.39-17.78
				c-23.68-12.24-27.44-52.02-8.4-88.83c19.04-36.82,53.67-56.73,77.34-44.49c15.98,8.26,34.39,17.78,34.39,17.78
				S2247.09,2618.16,2240.9,2630.13z"/>
		</g>
	</g>
	<g>
		<g>
			<path class="st2" d="M2201.83,2708.48l-44.01-22.76c-30.27-15.65-36.31-62.07-13.76-105.68c10.3-19.91,25.14-36.15,41.8-45.73
				c18.42-10.6,37.02-12.06,52.39-4.12l43.9,22.7l-3.4,10.16c-2.06,6.14-20.29,60.35-26.74,72.82v0
				c-3.9,7.55-34.58,50.73-43.88,63.78L2201.83,2708.48z M2217.19,2550.18c-7.37,0-14.52,3.3-18.87,5.81
				c-12.37,7.12-24.06,20.07-32.06,35.55c-15.57,30.11-14.18,63.08,3.04,71.99l24.74,12.8c16.96-23.92,33.72-48.06,35.75-51.92
				c3.65-7.06,14.01-36.25,21.81-59.14l-24.85-12.85C2223.67,2550.81,2220.41,2550.18,2217.19,2550.18z M2240.9,2630.13h0.05H2240.9
				z"/>
		</g>
	</g>
	<g>
		<g>
			
				<ellipse transform="matrix(0.4594 -0.8883 0.8883 0.4594 -1124.2572 3416.0515)" class="st9" cx="2244.08" cy="2631.58" rx="75.05" ry="48.26"/>
		</g>
		<g>
			<path class="st2" d="M2224.98,2714.39c-7.36,0-14.5-1.63-21.12-5.05c-30.27-15.65-36.31-62.07-13.76-105.68
				c10.3-19.91,25.14-36.15,41.8-45.73c18.42-10.6,37.02-12.06,52.39-4.12c30.26,15.65,36.31,62.07,13.76,105.68l0,0
				C2280.43,2693.57,2251.31,2714.39,2224.98,2714.39z M2263.24,2573.79c-7.37,0-14.52,3.31-18.87,5.81
				c-12.37,7.12-24.06,20.07-32.06,35.55c-15.57,30.11-14.18,63.08,3.04,71.99c17.22,8.91,44.92-9.01,60.5-39.13l0,0
				c15.57-30.11,14.18-63.08-3.04-71.99C2269.72,2574.42,2266.46,2573.79,2263.24,2573.79z M2286.95,2653.75h0.05H2286.95z"/>
		</g>
	</g>
	<g class="st8">
		<g>
			<path class="st5" d="M2272.81,2576.02c-3.09-1.6-6.35-2.23-9.57-2.23c-7.37,0-14.52,3.3-18.87,5.81
				c-12.37,7.12-24.06,20.07-32.06,35.55c-1.13,2.18-2.14,4.38-3.09,6.57c7.9-13.94,18.71-25.54,30.15-32.12
				c4.35-2.5,11.5-5.81,18.87-5.81c3.22,0,6.48,0.63,9.57,2.23c15.97,8.26,18.3,37.22,6.13,65.41c0.64-1.14,1.31-2.26,1.91-3.43
				C2291.42,2617.89,2290.03,2584.93,2272.81,2576.02z"/>
		</g>
	</g>
	<g class="st3">
		<g>
			<path class="st2" d="M2239.61,2663.24c-23.68-12.24-27.44-52.01-8.4-88.83c0.32-0.62,0.68-1.2,1.01-1.81
				c-11.81,8.37-22.85,21.02-31.01,36.81c-19.04,36.82-15.28,76.59,8.4,88.83c23.28,12.04,57.11-7.05,76.33-42.68
				C2270.22,2666.7,2253.13,2670.23,2239.61,2663.24z"/>
		</g>
	</g>
	<g>
		<g>
			<g>
				<path class="st5" d="M1572.86,2095.44c0,0,138.46,222.7,402.84,327.32c41.26,16.33,64.39,61.22,50.39,102.78
					c-7.39,21.93-24.2,39.46-59.09,39.4c-145.6-0.24-491.07-272.97-494.31-380.62C1469.66,2083.74,1572.86,2095.44,1572.86,2095.44z
					"/>
			</g>
		</g>
		<g class="st3">
			<g>
				<path class="st2" d="M1472.69,2184.33c3.25,107.65,348.71,380.37,494.31,380.62c34.91,0.04,51.71-17.47,59.1-39.39
					c7.22-21.46,4.57-43.81-5.43-62.67c-0.04,0.25-0.13,0.46-0.21,0.72c-7.39,21.93-24.23,39.48-59.1,39.43
					c-132.82-0.21-432-227.26-485.93-348.8C1473.37,2162.95,1472.34,2172.93,1472.69,2184.33z"/>
			</g>
		</g>
		<g>
			<g>
				<path class="st2" d="M1967.16,2582.44c-0.06,0-0.12,0-0.19,0c-83.99-0.14-215.86-79.5-311.26-153.72
					c-95.62-74.4-198.52-177.53-200.52-243.88c-1.04-34.42,8.83-61.44,29.33-80.3c35.12-32.33,88.07-26.74,90.3-26.49l8.42,0.95
					l4.47,7.19c1.36,2.18,138.84,219.16,394.42,320.3c50.73,20.07,77.32,74.82,60.53,124.64
					C2031.52,2564.22,2004.71,2582.44,1967.16,2582.44z M1563.1,2112.53c-12.71,0.02-38.1,2.21-55,17.88
					c-12.61,11.69-18.64,29.65-17.92,53.38c2.8,92.7,335.1,363.42,476.85,363.65c0.05,0,0.1,0,0.15,0
					c22.86,0,35.92-8.48,42.32-27.49c10.83-32.16-6.84-67.71-40.24-80.92C1727.51,2343.36,1590.85,2154.03,1563.1,2112.53z"/>
			</g>
		</g>
	</g>
	<g>
		<g>
			<path class="st2" d="M2238.91,2847.07c-2.19,0-4.41-0.56-6.44-1.73c-6.18-3.56-8.3-11.46-4.74-17.64l94.62-164.08
				c3.79-6.58,10.27-11.02,17.78-12.18l27.77-4.3l106.12-170.87c3.76-6.06,11.72-7.92,17.78-4.16c6.06,3.76,7.92,11.72,4.16,17.78
				l-106.34,171.22c-3.84,6.18-10.17,10.37-17.36,11.48l-27.75,4.29l-94.41,163.71C2247.72,2844.75,2243.38,2847.07,2238.91,2847.07
				z"/>
		</g>
	</g>
</g>
</svg>
