<?xml version="1.0" encoding="utf-8"?>
<!-- Generator: Adobe Illustrator 26.0.3, SVG Export Plug-In . SVG Version: 6.00 Build 0)  -->
<svg version="1.1" id="Layer_1" xmlns="http://www.w3.org/2000/svg" xmlns:xlink="http://www.w3.org/1999/xlink" x="0px" y="0px"
	 viewBox="0 0 4000 4000" style="enable-background:new 0 0 4000 4000;" xml:space="preserve">
<style type="text/css">
	.st0{fill:#FFFFFF;}
	.st1{opacity:0.3;}
	.st2{fill:#232323;}
	.st3{fill:#020202;}
	.st4{opacity:0.35;}
	.st5{fill:#22A7F0;}
	.st6{opacity:0.5;}
</style>
<g>
	<g>
		<g>
			<path class="st0" d="M2736.33,1926.55c0,0,68.11,54.99,94.14,225.18s75.79,448.85,75.79,448.85s12.22,283.87-236.09,281.47
				s-203.8-226.67-203.8-226.67l71.66-542.92"/>
		</g>
	</g>
	<g class="st1">
		<g>
			<path class="st2" d="M2736.33,1926.55c0,0,68.11,54.99,94.14,225.18s75.79,448.85,75.79,448.85s12.22,283.87-236.09,281.47
				s-203.8-226.67-203.8-226.67l71.66-542.92"/>
		</g>
	</g>
	<g>
		<g>
			<path class="st2" d="M2673.28,2897.07c-1.09,0-2.17,0-3.26-0.01c-81.45-0.79-141.87-24.7-179.56-71.06
				c-56.67-69.71-40.55-164.25-38.91-173.01l71.61-542.49c1.08-8.21,8.62-13.97,16.83-12.91c8.21,1.08,13.99,8.62,12.91,16.84
				l-71.67,542.92c-0.04,0.32-0.1,0.64-0.16,0.96c-0.17,0.85-16.55,88.43,32.8,148.94c31.81,39,84.44,59.12,156.43,59.82
				c63.22,0.52,113.97-18.4,150.89-56.51c71.35-73.64,70.37-196.56,70.1-208.41c-3.43-19.27-50.71-285.05-75.65-448.12
				c-24.64-161.03-88.17-215.32-88.81-215.84c-6.35-5.26-7.3-14.7-2.08-21.08c5.22-6.39,14.58-7.39,21-2.2
				c2.96,2.39,72.93,60.64,99.55,234.58c25.71,168.06,75.23,445.7,75.73,448.48c0.12,0.66,0.19,1.32,0.22,1.99
				c0.25,5.87,5.23,144.9-78.37,231.34C2800.65,2874.95,2743.6,2897.07,2673.28,2897.07z"/>
		</g>
	</g>
	<g>
		<g>
			<path class="st0" d="M2917.25,2486.95c-44.04,21.42-89.55,36.92-136.73,45.77c-19.95,3.72-40.53,1.78-59.39-5.6
				c-22.36-8.74-49.49-19.59-43.62-18.49l-96.62-194.23l-72.63-146.06l192.82-99.92l65.46-24.72c19.38-7.28,41-5.45,58.86,4.98
				l27.02,15.87c23.78,13.93,40.85,36.97,47.24,63.78l14.77,62.27l0.16,0.52l47.5,200.05
				C2971.19,2429.65,2952.81,2469.66,2917.25,2486.95z"/>
		</g>
	</g>
	<g class="st1">
		<g>
			<path class="st2" d="M2917.25,2486.95c-44.04,21.42-89.55,36.92-136.73,45.77c-19.95,3.72-40.53,1.78-59.39-5.6
				c-22.36-8.74-49.49-19.59-43.62-18.49l-96.62-194.23c10.42-50.12,22.52-91.96,22.52-91.96
				c160.04,281.01,311.01-31.84,311.01-31.84l0.16,0.52l47.5,200.05C2971.19,2429.65,2952.81,2469.66,2917.25,2486.95z"/>
		</g>
	</g>
	<g>
		<g>
			<path class="st0" d="M2663.79,2417.09c53.89,304.21,23.51,586.73-144.9,833.96c-36.08,53-95.52,85.88-159.67,87.04
				c-48.44,0.89-97.56-7.54-147.31-25.45h-0.05c-27.7-9.95-55.67-22.83-83.84-38.7c-8.22-4.61-16.44-9.48-24.72-14.61
				c-15.81,160.82-188.84,211.67-245.55,53.26c-3.46-9.74-6.23-19.64-8.33-29.69c-7.54-36.55-5.92-74.62,3.82-110.92l48.23-180.04
				l3.67-13.67l-235.66,5.24l-52.37,45.4l-149.2,212.3c-19.9,28.33-50.22,48.02-84.42,53.15c-17.86,2.67-39.22,3.14-63.84-0.99
				c-48.81-8.17-93.16-33.52-126.52-70.07c-36.5-39.96-72.11-79.97-99.97-121.13c-58.29-86.04-82.64-176.79-10.21-281.01
				c0,0,90.81-108.19,244.4,7.02l94.26-111.12c-8.33,1.89-16.71,3.4-24.98,4.61c0,0-0.05-0.05-0.05,0
				c-98.24,14.19-190.88-19.95-213.45-111.96c-8.33-33.83-7.17-75.51,6.7-125.47c10.05-36.19,34.51-67.29,68.18-83.95
				c24.98-12.36,56.87-18.01,92.9-1.1c0,0,62.84-80.07,130.92,58.81c59.7,17.49,113.43,9.37,162.34-19.53
				c-86.77-169.31-143.17-326.78-28.8-417.64l922.67-354.32l292.74,121.86l9.64,4.03c0,0-52,224.08-237.02,375.95
				c11.31,37.39,21.63,74.47,30.84,111.33C2645.88,2325.91,2655.78,2371.74,2663.79,2417.09z"/>
		</g>
	</g>
	<g class="st1">
		<g>
			<path class="st2" d="M1762.01,2073.91c148.09,63.72,583.19,130.63,756.04-218.75c20.43-41.3,31.53-86.6,34.12-132.61l6.79-120.74
				l-247.61-69.55l-334.61,95.08"/>
		</g>
	</g>
	<g class="st1">
		<g>
			<path class="st2" d="M2518.89,3251.05c-36.08,53-95.52,85.88-159.67,87.04c-48.44,0.89-97.56-7.54-147.31-25.45
				c100.76,9.69,22.83-100.97,22.83-100.97c-63.16-73.84-80.86-162.29-80.86-162.29c298.55,262.99,496.76-82.22,354.38-436.07
				c-44.51,74.05-127.52,103.74-127.52,103.74l-383.07,54.52l-83.53-61.32l749.65-293.16
				C2717.68,2721.29,2687.31,3003.82,2518.89,3251.05z"/>
		</g>
	</g>
	<g>
		<g>
			<g>
				<circle class="st0" cx="1885.93" cy="1338.8" r="747.54"/>
			</g>
		</g>
		<g class="st1">
			<g>
				<path class="st2" d="M2633.47,1338.79c0,412.85-334.69,747.54-747.54,747.54c-175.46,0-336.8-60.46-464.32-161.66
					c77,26.79,159.71,41.38,245.85,41.38c412.85,0,747.54-334.69,747.54-747.54c0-237.39-110.66-448.95-283.21-585.88
					C2423.88,734.31,2633.47,1012.08,2633.47,1338.79z"/>
			</g>
		</g>
		<g>
			<g>
				<path class="st2" d="M2497.23,1507.8c-98.93,480.28-745,594.38-1040.95,442.76c-51.47-18.71-110.72-89.37-160.24-161.4
					c-60.35-87.78-106.28-177.57-106.28-177.57c-51.37-272.8,32.5-492.7,245.69-647.23c151.3-109.71,341.88-148.61,526.05-116.64
					c152.2,26.42,275.92,83.29,364.65,172.81c42.33,42.7,76.63,92.91,102.26,150.72L2497.23,1507.8z"/>
			</g>
		</g>
		<g>
			<g>
				<path class="st3" d="M2497.23,1507.8c-98.93,480.28-745,594.38-1040.95,442.76c-51.47-18.71-110.72-89.37-160.24-161.4
					c7.82-15.91-22.15-33.23-22.15-33.23c226.67,233.22,1250.07,59.02,1052.26-735.4c42.33,42.7,76.63,92.91,102.26,150.72
					L2497.23,1507.8z"/>
			</g>
		</g>
		<g>
			<g>
				<path class="st2" d="M1885.94,2103.83c-421.84,0-765.04-343.19-765.04-765.04c0-421.84,343.2-765.03,765.04-765.03
					s765.04,343.19,765.04,765.03C2650.97,1760.64,2307.78,2103.83,1885.94,2103.83z M1885.94,608.76
					c-402.54,0-730.04,327.49-730.04,730.03s327.5,730.04,730.04,730.04s730.04-327.5,730.04-730.04S2288.48,608.76,1885.94,608.76z
					"/>
			</g>
		</g>
		<g>
			<g>
				<path class="st2" d="M1755.21,2027.08c-113.76,0-221.38-21.18-305.27-64.17c-6.83-3.5-9.53-11.87-6.03-18.7
					c3.5-6.83,11.87-9.53,18.7-6.03c176.62,90.5,463.89,79.93,683.05-25.15c128-61.36,290.14-181.43,337.38-405.29l-67.97-332.24
					c-75.39-168.94-228.8-274.61-455.98-314.09c-183.49-31.89-371.38,9.73-515.49,114.18c-209.87,152.12-290.69,365.24-240.2,633.42
					c1.42,7.54-3.54,14.8-11.08,16.22c-7.55,1.46-14.8-3.54-16.23-11.08c-26.02-138.23-17.84-264.56,24.31-375.47
					c42.16-110.93,118.5-207.01,226.9-285.59c150.15-108.83,345.71-152.23,536.56-119.07c237.51,41.28,398.08,152.84,477.24,331.59
					c0.4,0.91,0.71,1.87,0.91,2.84l68.84,336.53c0.38,1.84,0.38,3.75,0,5.59c-48.78,236.79-218.98,363.18-353.16,427.51
					C2034.68,1997.08,1890.59,2027.08,1755.21,2027.08z"/>
			</g>
		</g>
		<g>
			<g>
				<path class="st0" d="M2702.8,1297.36c10.35,126.74-49.6,232.74-133.92,236.76s-141.93-100.55-152.28-227.29
					c-10.35-126.74,30.46-227.67,114.78-231.68C2615.69,1071.13,2692.44,1170.62,2702.8,1297.36z"/>
			</g>
		</g>
		<g class="st1">
			<g>
				<path class="st2" d="M2702.76,1297.36c10.39,126.73-49.57,232.75-133.92,236.76c-67.34,3.2-117.68-62.89-140.46-154.28
					c21.72,20.43,47.3,31.64,76.01,30.25c84.34-4.01,144.31-110.04,133.92-236.76c-1.51-18.57-4.48-36.56-8.65-53.69
					C2668.61,1159.97,2696.75,1224.09,2702.76,1297.36z"/>
			</g>
		</g>
		<g>
			<g>
				<path class="st2" d="M2564.35,1551.73c-85.84,0-153.4-98.98-165.2-243.48c-7.34-89.89,10.41-166.45,48.72-210.04
					c21.96-25,50.55-39.01,82.67-40.55c93.42-4.34,178.6,102.44,189.7,238.27l0,0c6.68,81.74-14.63,159.34-57.01,207.57
					c-26.18,29.8-58.52,46.43-93.53,48.1C2567.92,1551.69,2566.13,1551.73,2564.35,1551.73z M2536.39,1092.53
					c-1.4,0-2.79,0.03-4.19,0.1c-22.74,1.08-42.28,10.74-58.04,28.69c-32.08,36.51-46.7,103.61-40.13,184.09
					c8.8,107.72,57.65,214.85,134.01,211.24c25.3-1.21,49.13-13.74,68.9-36.24c36.24-41.25,54.34-109.15,48.42-181.62
					C2675.95,1183.75,2609.61,1092.53,2536.39,1092.53z"/>
			</g>
		</g>
		<g>
			<g>
				<path class="st2" d="M2625.35,1527.42c-1.08,0-2.19-0.13-3.28-0.41c-65.57-16.76-114.1-102.86-123.64-219.35
					c-9.88-121.06,28.73-209.65,98.35-225.71c7.1-1.62,14.2,2.79,15.84,9.91c1.64,7.11-2.8,14.2-9.9,15.84
					c-56.1,12.93-86.7,90.58-77.95,197.8c8.47,103.46,50.21,182.18,103.85,195.89c7.07,1.81,11.34,9,9.53,16.07
					C2636.61,1523.45,2631.24,1527.42,2625.35,1527.42z"/>
			</g>
		</g>
		<g class="st4">
			<g>
				<path class="st0" d="M1370.56,1716.47c-41.66-375.78,122.98-620.79,524.8-715.42c11.51-2.71,12.38-18.62,1.25-22.62
					c-124.32-44.61-274.31-26.02-401.39,51.04c-168.17,101.98-259.27,297.18-229.07,491.52c11.39,73.26,39.56,140.9,83.01,203.43
					C1356.14,1734.46,1371.91,1728.62,1370.56,1716.47z"/>
			</g>
		</g>
		<g class="st4">
			<g>
				<path class="st0" d="M2303.8,1188.9l24.98,40.33c7.39,11.94,9.11,26.69,4.14,39.82c-11.62,30.7-35.1,51.06-71.9,59.83
					c-18.17,4.33-37.1-3.41-47.68-18.79l-28.01-40.73c-10.82-15.73-10.8-36.56,0.13-52.21c15.78-22.59,36.58-40.44,67.78-48.49
					C2272.71,1163.63,2293.21,1171.81,2303.8,1188.9z"/>
			</g>
		</g>
		<g class="st4">
			<g>
				<path class="st0" d="M2321.24,1400.86L2321.24,1400.86c40.87,1.44,73.01,36.22,70.3,77.03c-3.03,45.59-11.41,90.72-25.15,135.37
					c-10.67,34.65-45.79,55.61-81.19,47.76l0,0c-36.33-8.06-59.98-43.49-52.95-80.02c7.2-37.41,11.91-74.37,13.57-110.78
					C2247.64,1430.35,2281.35,1399.45,2321.24,1400.86z"/>
			</g>
		</g>
		<g>
			<g>
				<path class="st2" d="M1152.53,1208.77c-1.68,0-3.39-0.28-5.06-0.87c-7.88-2.8-12-11.46-9.2-19.33
					c50.62-142.59,135.09-255.71,251.09-336.22c103.21-71.63,229.65-114.65,365.65-124.4c309.86-22.25,612.22,125.76,735.35,359.83
					c3.89,7.4,1.05,16.55-6.35,20.44c-7.39,3.89-16.55,1.04-20.44-6.35c-117.7-223.75-408.14-365.1-706.39-343.73
					c-283.01,20.29-498.2,180.86-590.38,440.55C1164.6,1204.9,1158.76,1208.77,1152.53,1208.77z"/>
			</g>
		</g>
		<g>
			<g>
				<path class="st2" d="M1798.74,2095.14c-7.59,0-13.79-6.1-13.89-13.72c-0.1-7.67,6.04-13.97,13.71-14.07
					c385.26-5.01,659.24-206.17,732.9-538.09c1.66-7.49,9.07-12.21,16.57-10.56c7.49,1.66,12.22,9.08,10.55,16.57
					c-37.61,169.48-128.63,310.81-263.22,408.72c-132.49,96.38-304.16,148.64-496.45,151.14
					C1798.86,2095.14,1798.8,2095.14,1798.74,2095.14z"/>
			</g>
		</g>
	</g>
	<g>
		<g>
			<g>
				<path class="st0" d="M2910.08,1513.21c-7.86,10.47-13.2,22.62-15.08,35.61c-13.62,92.64-31.79,174.96-54.57,246.81
					c-59.44-8.95-114.37-23.41-164.12-44.3c-42.1-17.54-80.49-39.75-114.74-66.98c27.13-71.8,44.15-146,45.82-223.87
					c-59.8-61.95-23.98-150.14,27.49-162.34c6.91-32.99,22.83-58.7,48.65-76.41c22.31-15.34,49.59-21.47,76.56-19.69
					c38.8,2.62,70.7,11.31,96.46,24.35C2976.28,1286.72,2964.81,1440.16,2910.08,1513.21z"/>
			</g>
		</g>
		<g>
			<g>
				<path class="st2" d="M2840.44,1810.63c-0.74,0-1.49-0.05-2.24-0.17c-116.36-17.53-212.57-56.02-285.96-114.38
					c-5.1-4.05-7-10.94-4.7-17.04c27.86-73.74,42.5-143.45,44.7-212.9c-28-31.95-37.79-73.92-26.19-113.51
					c9.18-31.3,30.68-56.31,56.21-66.24c8.75-33.12,26.48-59.01,52.79-77.06c24.01-16.47,54.6-24.4,86.08-22.25
					c114.59,7.73,164.04,64.71,185.35,111.14c35.76,77.91,14.8,171.63-24.38,223.95c-6.55,8.75-10.79,18.71-12.28,28.8
					c-13.68,93.22-32.21,177.06-55.1,249.18C2852.73,1806.47,2846.89,1810.63,2840.44,1810.63z M2579.47,1679.24
					c66.11,49.96,148.28,82.61,250.5,99.55c20.64-67.79,37.51-145.81,50.18-232.16c2.2-15.02,8.41-29.7,17.94-42.43
					c33.04-44.12,51.67-126.9,21.13-193.45c-25.69-55.98-81.06-88.39-160.11-93.73c-24.78-1.64-48.63,4.39-67.09,17.06
					c-22.28,15.29-36.16,37.25-42.45,67.14c-1.2,5.68-5.56,10.17-11.22,11.51c-19.16,4.55-36.24,23.53-43.52,48.35
					c-9.26,31.57-0.74,64,23.35,88.98c2.77,2.88,4.29,6.74,4.2,10.74C2620.86,1532.41,2606.81,1603.97,2579.47,1679.24z"/>
			</g>
		</g>
		<g>
			<g>
				<path class="st2" d="M2633.83,1284.41c29.61-3.08,59.52,3.35,85.62,17.06c6.51,3.5,12.83,7.41,18.88,11.79
					c5.96,4.52,11.66,9.48,16.93,15c10.43,11.07,19.42,24.82,23,41.5c1.74,8.28,1.9,17.27-0.15,25.78
					c-1.88,8.45-6.11,16.55-10.76,22.67c-8.15,12.22-22.72,24.62-40.11,26.92c-8.62,1.41-17.23-0.25-24.81-2.92
					c-7.74-2.69-14.12-7.37-19.9-12.23c-11.08-10.33-18.9-22.92-23.58-36.24c-0.96-2.74,0.48-5.74,3.22-6.71
					c2.38-0.83,4.95,0.13,6.22,2.19l0.05,0.09c6.73,10.86,15.04,20.48,24.87,26.94c9.71,6.46,20.84,9.35,30,6.85
					c4.52-1.41,8.9-3.25,12.56-6.82c1.01-0.68,1.85-1.7,2.71-2.68l2.6-2.89c1.53-2.4,3.36-4.63,4.79-7
					c6.09-9.13,7.18-18.18,4.83-27.78c-2.46-9.55-8.84-18.94-16.83-27.11c-8.15-8.13-18-15.04-28.57-20.68
					c-21.3-11.09-45.58-17.04-69.46-16.27l-0.24,0.01c-7.6,0.24-13.96-5.72-14.21-13.32
					C2621.26,1291.3,2626.73,1285.17,2633.83,1284.41z"/>
			</g>
		</g>
		<g>
			<g>
				<path class="st2" d="M2767.96,1392.89c10.03,6.86,21.19,12.08,32.81,14.84c11.6,2.81,23.68,2.85,34.77-0.36
					c11.1-3.17,21.1-9.76,28.8-18.95c7.75-9.17,13.17-20.66,16.91-32.86l0.08-0.25c1.27-4.15,5.66-6.48,9.81-5.21
					c3.97,1.22,6.28,5.33,5.34,9.32c-3.32,14.02-8.67,28.06-17.74,40.34c-8.95,12.27-21.9,22.28-36.7,27.52
					c-14.76,5.33-30.81,6.18-45.83,3.57c-15.09-2.56-29.38-8.2-42.32-15.87c-6.23-3.68-8.3-11.71-4.62-17.94
					c3.68-6.23,11.71-8.3,17.94-4.62C2767.46,1392.56,2767.74,1392.74,2767.96,1392.89z"/>
			</g>
		</g>
		<g class="st1">
			<g>
				<path class="st2" d="M2910.08,1513.21c-7.86,10.47-13.2,22.62-15.08,35.61c-13.62,92.64-31.79,174.96-54.57,246.81
					c-59.44-8.95-114.37-23.41-164.12-44.3c2.57-2.36,5.34-4.61,8.33-6.76c129.61-94.26,104.74-280.17,104.74-280.17
					c-89.03,19.64-118.14-59.54-118.14-59.54c84.78,4.61,55.98-81.07,55.98-81.07l28.44,33.67
					c73.47,55.35,126.68-33.15,100.91-131.08C2976.28,1286.72,2964.81,1440.16,2910.08,1513.21z"/>
			</g>
		</g>
	</g>
	<g>
		<g>
			<path class="st2" d="M1971.32,3426.24c-46.52,0-101.46-27.92-130.03-107.77c-17-47.51-18.72-99.75-4.96-151.04l45.88-171.13
				l-206.01,4.58l-45.98,39.85l-148.01,210.56c-22.93,32.63-57.96,54.63-96.11,60.36c-22.15,3.33-45.47,2.97-69.33-1.02
				c-51.43-8.62-99.93-35.44-136.57-75.53c-102.8-112.48-230.73-252.46-111.59-423.9c0.3-0.43,0.62-0.85,0.96-1.26
				c0.99-1.18,97.8-113.09,254.89-5.4l53.56-63.12c-71.03,5.62-133.63-13.83-172.97-55.16c-31.6-33.18-62.8-95.97-32.05-206.7
				c11.62-41.85,39.79-76.47,77.29-95c31.48-15.56,64.62-17.57,96.54-6.03c11-9.53,30.73-22.17,56.24-19.47
				c33.35,3.51,63.92,31.8,90.92,84.11c45.08,11.64,86.79,7.71,126.88-11.99c-82.59-164.13-138.15-327.29-16.37-424.08
				c7.57-6.02,18.58-4.75,24.59,2.81c6.01,7.57,4.75,18.57-2.81,24.59c-99.93,79.41-58.89,215.72,33.49,395.95
				c4.22,8.24,1.3,18.33-6.66,23.05c-54.64,32.33-113.91,39.48-176.17,21.26c-4.72-1.38-8.64-4.68-10.8-9.09
				c-21.51-43.88-45.12-69.37-66.49-71.78c-19.86-2.26-34.88,15.99-35.02,16.17c-5.07,6.25-13.84,8.35-21.13,4.94
				c-25.8-12.12-51.94-11.8-77.7,0.93c-28.58,14.12-50.11,40.72-59.07,72.98c-20.87,75.13-12.69,135.02,23.67,173.2
				c39.35,41.32,109.4,55.48,187.38,37.87c7.35-1.64,14.92,1.56,18.82,8c3.9,6.44,3.24,14.65-1.62,20.39l-94.26,111.09
				c-5.99,7.05-16.44,8.24-23.85,2.68c-133.79-100.34-212.59-18.55-220.06-10.21c-94.73,137.2-10.59,248.43,109.23,379.53
				c31.39,34.34,72.77,57.29,116.53,64.62c20.22,3.4,39.85,3.7,58.34,0.93c28.72-4.31,55.21-21.03,72.67-45.87l149.24-212.32
				c0.82-1.17,1.78-2.23,2.85-3.16l52.37-45.39c3.08-2.67,7-4.18,11.07-4.27l235.66-5.23c5.47-0.29,10.75,2.35,14.15,6.69
				c3.4,4.34,4.57,10.01,3.14,15.34l-51.93,193.68c-11.9,44.39-10.48,89.4,4.11,130.19c20.85,58.26,60.76,89.66,106.82,83.97
				c44.73-5.52,96.62-49.51,104.82-133.03c0.59-6.02,4.25-11.31,9.67-13.98c5.42-2.68,11.84-2.37,16.98,0.83
				c83.65,51.97,166.56,77.55,246.39,76.13c57.98-1.05,112.38-30.73,145.52-79.39c188.83-277.23,215.72-626.51,82.19-1067.81
				c-2.05-6.77,0.18-14.11,5.65-18.59c178.37-146.41,230.61-364.19,231.12-366.38c2.18-9.41,11.6-15.25,21-13.09
				c9.41,2.19,15.28,11.59,13.09,21.01c-2.14,9.23-53.83,224.51-234.03,378c63.11,211.88,89.44,397.91,80.5,568.37
				c-10.24,195.2-66.04,364.69-170.59,518.19c-39.53,58.03-104.51,93.42-173.82,94.68c-79.49,1.48-161.05-21.42-242.99-68
				c-16.16,74.77-67.5,129.94-131.23,137.8C1980.79,3425.95,1976.09,3426.24,1971.32,3426.24z"/>
		</g>
	</g>
	<g>
		<g>
			<path class="st2" d="M1668.99,2140.41c6.79,31.29,14.43,62.51,22.73,93.41c8.37,30.87,17.49,61.54,28.25,91.19l0.02,0.06
				c2.6,7.16-1.1,15.06-8.25,17.66c-7.16,2.6-15.06-1.1-17.66-8.25c-0.14-0.38-0.26-0.78-0.37-1.16
				c-8.43-31.72-14.87-63.5-20.55-95.36c-5.6-31.88-10.47-63.75-14.51-95.83c-0.36-2.87,1.67-5.49,4.54-5.85
				c2.71-0.34,5.2,1.45,5.77,4.06L1668.99,2140.41z"/>
		</g>
	</g>
	<g>
		<g>
			<path class="st2" d="M1421.62,2730.83c-3.23,0-6.47-1.13-9.09-3.43c-5.71-5.02-6.26-13.73-1.24-19.43l21.35-24.25
				c24.48-27.81,56.49-46.99,92.56-55.45l220.63-51.73c7.39-1.74,14.81,2.86,16.55,10.26c1.74,7.4-2.86,14.81-10.26,16.55
				l-220.63,51.73c-30.47,7.15-57.5,23.34-78.18,46.84l-21.35,24.25C1429.24,2729.25,1425.43,2730.83,1421.62,2730.83z"/>
		</g>
	</g>
	<g>
		<g>
			<path class="st2" d="M1649.3,2627.08c-0.76,0-1.53-0.06-2.3-0.2c-7.5-1.26-12.55-8.36-11.29-15.86
				c17.3-102.63-4.32-167.43-4.54-168.07c-2.46-7.18,1.35-15.01,8.52-17.5c7.18-2.5,15,1.3,17.5,8.47
				c1,2.87,24.24,71.53,5.68,181.67C1661.73,2622.32,1655.9,2627.08,1649.3,2627.08z"/>
		</g>
	</g>
	<g>
		<g>
			<path class="st2" d="M1406.22,2470.56c3.72,5.3,7.18,10.85,10.18,16.78c3.04,6.02,5.68,11.8,7.39,19.75
				c1.28,7.66,0.96,15.89-1.55,23.64c-2.67,7.64-7.09,14.62-12.79,20.41c-5.77,5.73-12.95,9.95-20.75,12.71
				c-7.8,2.9-16.57,3.42-24.99,2.13c-4.28-0.56-8.28-2.05-12.28-3.56c-1.98-0.78-3.75-1.92-5.59-2.95l-2.72-1.6
				c-0.85-0.53-1.44-1.04-2.17-1.56l-8.34-6.25c-2.69-2.29-5.29-4.75-7.87-7.19c-10.05-10.11-18.89-22.83-23.23-37.6
				c-4.48-14.71-4.06-30.47-0.54-44.36c7.26-28.03,23.01-50.26,39.36-70.52c4.78-5.92,13.44-6.84,19.36-2.07
				c5.92,4.78,6.84,13.44,2.06,19.36l-0.05,0.06l-0.18,0.22c-15.06,18.44-28.56,38.61-33.8,59.45c-2.57,10.35-2.74,20.55,0.22,29.84
				c2.91,9.3,8.85,17.77,16.73,25.07l6.12,5.37l6.74,4.96c0.54,0.39,1.16,0.9,1.64,1.18l1.36,0.73c0.92,0.44,1.75,1.12,2.67,1.52
				c1.87,0.7,3.68,1.61,5.65,1.87c7.63,2.02,16.78-0.05,23.94-5.39c3.53-2.71,6.48-6.14,8.63-10.08c2.14-3.96,3.05-8.48,3.27-13.27
				c0.06-4.51-1.2-10.72-2.61-16.4c-1.49-5.78-3.25-11.64-5.2-17.52l-0.01-0.04c-0.92-2.78,0.59-5.77,3.36-6.68
				C1402.49,2467.82,1404.91,2468.7,1406.22,2470.56z"/>
		</g>
	</g>
	<g>
		<g>
			<path class="st2" d="M1396.11,2547.89c5.7,17.2,5.41,35.77,0.41,52.24c-4.98,16.52-14.31,31.32-26.86,42.7
				c-12.44,11.35-28.82,19.27-46.11,19.71c-8.57,0.27-17.12-1.34-24.87-4.45c-7.77-3.1-14.72-7.62-20.83-12.83
				c-2.2-1.88-2.47-5.18-0.59-7.39c1.77-2.08,4.82-2.43,7.01-0.88l0.08,0.06c11.51,8.2,25.13,12.56,38.14,10.79
				c13.02-1.57,24.95-8.75,33.85-18.57c8.96-9.81,15.11-22.19,17.62-34.89c2.55-12.72,1.28-25.7-3.65-36.82
				c-3.08-6.96,0.06-15.11,7.02-18.19c6.97-3.08,15.11,0.06,18.19,7.03c0.18,0.41,0.34,0.81,0.48,1.23L1396.11,2547.89z"/>
		</g>
	</g>
	<g>
		<g>
			<path class="st2" d="M1372.91,3309.35c-5.44,0-10.6-3.25-12.77-8.6c-2.85-7.05,0.54-15.08,7.59-17.93
				c32.33-13.09,49.96-32.9,53.88-60.55c16.19-114.24-199.12-322.18-225.04-342.97c-36.06-21.49-67-27.48-91.95-17.77
				c-36.49,14.17-49.93,58.12-50.07,58.55c-2.17,7.28-9.8,11.44-17.09,9.3c-7.28-2.14-11.46-9.76-9.33-17.04
				c0.68-2.32,17.15-57.14,66.27-76.39c33.51-13.13,72.86-6.36,116.97,20.11c2.54,1.52,249.28,221.45,238.26,363.08
				c-3.21,41.25-27.29,71.26-71.57,89.2C1376.38,3309.02,1374.63,3309.35,1372.91,3309.35z"/>
		</g>
	</g>
	<g>
		<g>
			<path class="st2" d="M1337.14,2816.79c17.2,16.9,31.57,35.79,44.02,55.44c12.44,19.68,22.99,40.19,32.4,61.03
				c1.3,2.88,0.02,6.26-2.86,7.56c-2.64,1.19-5.71,0.2-7.2-2.19c-11.94-19.02-24.83-37.33-39.06-54.2
				c-14.21-16.85-29.8-32.24-46.87-44.91c-6.67-4.95-8.06-14.37-3.1-21.04c4.95-6.67,14.37-8.06,21.04-3.11
				c0.54,0.4,1.04,0.83,1.51,1.28L1337.14,2816.79z"/>
		</g>
	</g>
	<g>
		<g>
			<path class="st2" d="M1614.23,3043.48c-4.94,0-9.34-3.51-10.28-8.54c-19.78-105.36-65.52-182.47-132.26-222.98
				c-50.37-30.57-95.66-29.9-96.06-29.93c-0.08,0-0.16,0-0.23,0c-5.67,0-10.34-4.53-10.48-10.22c-0.14-5.77,4.41-10.57,10.18-10.72
				c2.04-0.08,50.9-0.96,106.34,32.29c50.62,30.35,116.55,96.22,143.1,237.69c1.07,5.69-2.68,11.16-8.36,12.23
				C1615.52,3043.42,1614.87,3043.48,1614.23,3043.48z"/>
		</g>
	</g>
	<g>
		<g>
			<path class="st2" d="M1052.5,3039.48c-3.88,0-7.73-1.63-10.46-4.8c-4.95-5.77-4.28-14.46,1.49-19.41L1211,2871.61
				c5.78-4.95,14.47-4.28,19.42,1.48c4.95,5.77,4.28,14.46-1.49,19.41l-167.48,143.65
				C1058.86,3038.38,1055.67,3039.48,1052.5,3039.48z"/>
		</g>
	</g>
	<g>
		<g>
			<path class="st2" d="M1114.4,3145.3c-3.81,0-7.6-1.58-10.33-4.66c-5.03-5.7-4.49-14.4,1.21-19.43c0,0,46.58-41.11,93.31-82.22
				c23.37-20.56,46.78-41.12,64.43-56.53c33.65-29.41,33.64-29.42,39.74-29.02l-0.89,13.74l-10.36,9.07l10.36-9.07l8.02,11.17
				c-6.7,5.17-115.14,100.61-186.39,163.5C1120.89,3144.17,1117.64,3145.3,1114.4,3145.3z"/>
		</g>
	</g>
	<g>
		<g>
			<path class="st2" d="M1182.54,3225.42c-4.08,0-8.11-1.8-10.83-5.25c-4.7-5.97-3.67-14.63,2.3-19.34l180.68-142.24
				c5.97-4.69,14.63-3.67,19.33,2.3c4.7,5.97,3.67,14.63-2.3,19.34l-180.68,142.24C1188.52,3224.46,1185.52,3225.42,1182.54,3225.42
				z"/>
		</g>
	</g>
	<g>
		<g>
			<path class="st2" d="M1281.1,3296.77c-3.73,0-7.45-1.51-10.17-4.48c-5.13-5.61-4.74-14.32,0.88-19.45l140.52-128.42
				c5.61-5.14,14.32-4.74,19.45,0.87c5.13,5.61,4.74,14.32-0.88,19.45l-140.52,128.42
				C1287.75,3295.58,1284.42,3296.77,1281.1,3296.77z"/>
		</g>
	</g>
	<g>
		<g>
			<path class="st2" d="M1901.48,2877.99l26.37,16.84c9.24,4.82,18.01,10.31,27.26,14.89l14.05,6.49c4.69,2.12,9.26,4.46,14.12,6.17
				l14.36,5.54l7.16,2.76l7.37,2.2c9.83,2.87,19.49,6.16,29.54,8.12c9.94,2.33,19.79,4.85,29.89,6.47l15,3.03l15.19,2.19l15.22,2.17
				l15.36,1.21c41.03,3.25,82.67,0.78,123.96-4.91c41.3-5.88,82.31-15.17,122.79-26.75l0.04-0.01c2.78-0.8,5.68,0.81,6.48,3.6
				c0.76,2.65-0.68,5.41-3.22,6.35c-39.87,14.77-80.79,27.25-122.81,35.77c-41.97,8.69-85.11,13.17-128.55,12.2l-16.3-0.43
				l-16.27-1.49c-5.42-0.57-10.88-0.94-16.28-1.69l-16.15-2.89c-5.34-1.16-10.77-1.89-16.04-3.41l-15.75-4.67
				c-10.58-2.81-20.61-7.38-30.79-11.3c-40.41-16.64-77.49-40.73-108.58-70.35c-2.1-2-2.18-5.32-0.18-7.42
				c1.76-1.85,4.55-2.13,6.63-0.81L1901.48,2877.99z"/>
		</g>
	</g>
	<g>
		<g>
			<path class="st2" d="M1904.19,2995.62c-5.78,0-11.16-3.67-13.07-9.45c-2.38-7.22,1.54-15.01,8.76-17.39l107.63-35.51
				c7.21-2.35,15.01,1.54,17.39,8.76c2.38,7.22-1.54,15.01-8.76,17.39l-107.63,35.51
				C1907.08,2995.4,1905.62,2995.62,1904.19,2995.62z"/>
		</g>
	</g>
	<g>
		<g>
			<path class="st2" d="M2247.09,3238.6c-5-3.78-9.92-7.73-14.77-11.8c-2.44-2.02-4.89-4.05-7.23-6.18l-6.67-6.73
				c-4.31-4.61-8.97-9.02-13.02-13.9c-3.95-4.95-7.98-9.87-11.83-14.95c-15.17-20.42-27.45-43.03-36.31-66.83
				c-9.03-23.71-16.56-47.91-21.93-72.62c-5.36-24.78-8.87-49.65-9.56-75.56c-0.2-7.6,5.8-13.93,13.4-14.13
				c7.6-0.2,13.93,5.8,14.13,13.4v0.01l0.01,0.31c0.6,23.12,3.9,47.02,8.94,70.14c5.05,23.2,11.95,46.02,21.19,67.81l7.37,16.13
				c2.5,5.34,5.34,10.52,7.89,15.83c2.44,5.39,5.33,10.51,8.12,15.72c2.92,5.11,5.18,10.67,8.43,15.6
				c11.45,20.83,25.35,40.03,39.21,60.28l0.19,0.28c1.65,2.4,1.03,5.69-1.37,7.33C2251.34,3240.06,2248.85,3239.93,2247.09,3238.6z"
				/>
		</g>
	</g>
	<g>
		<g>
			<path class="st2" d="M2154.71,3298.6c-5.38,0-9.95-4.12-10.42-9.58c-8.38-97.12,45.45-129.79,47.75-131.13
				c4.99-2.94,11.41-1.25,14.33,3.75c2.91,4.97,1.25,11.36-3.69,14.29c-1.96,1.19-44.68,28.26-37.52,111.29
				c0.5,5.76-3.77,10.83-9.53,11.33C2155.32,3298.58,2155.01,3298.6,2154.71,3298.6z"/>
		</g>
	</g>
	<g>
		<g>
			<path class="st2" d="M2094.94,3271.78l-70.92-58.78c-2.44-2.02-2.78-5.64-0.76-8.08c1.77-2.13,4.76-2.66,7.11-1.4l81.27,43.34
				c7.35,3.92,10.13,13.05,6.21,20.4c-3.92,7.35-13.05,10.13-20.4,6.21C2096.58,3273,2095.7,3272.39,2094.94,3271.78z"/>
		</g>
	</g>
	<g>
		<g>
			<g>
				<path class="st0" d="M2432.64,2568.64c-23.25,29.85-49.33,53.36-78.87,69.23c-153.02,34.62-319.97,59.91-496.55,78.71
					c-39.01,4.19-75.51-20-87.04-57.55l-16.02-52.26l-64.41-209.84c-5.13-16.6-2.88-34.62,6.07-49.49l33.88-56.14
					c8.38-13.93,21.94-23.98,37.76-27.81c171.92-41.79,344.32-70.28,517.19-84.42c18.17-1.47,35.87,2.78,51.06,11.52
					c13.09,7.54,24.35,18.43,32.31,32c47.34,80.23,73.05,174.86,83.95,279.38C2454.42,2525.8,2447.35,2549.73,2432.64,2568.64z"/>
			</g>
		</g>
		<g>
			<g>
				<path class="st2" d="M1848.56,2732.07c-42.1,0-80.12-27.58-92.71-68.62l-80.45-262.11c-6.35-20.67-3.58-43.15,7.6-61.67
					l33.86-56.12h0c10.42-17.28,27.58-29.9,47.06-34.64c174.1-42.33,348.89-70.85,519.5-84.77c39.14-3.22,77.45,16.75,97.54,50.81
					c45.9,77.83,74.01,171.21,85.92,285.47c2.89,27.68-5.08,55.19-22.43,77.47c-25.19,32.33-53.31,56.97-83.58,73.22
					c-1.19,0.64-2.47,1.11-3.79,1.41c-145.71,32.96-308.69,58.8-498.26,79C1855.38,2731.88,1851.95,2732.07,1848.56,2732.07z
					 M2291.67,2193.8c-1.93,0-3.86,0.08-5.81,0.24c-169.05,13.79-342.28,42.06-514.86,84.02c-11.77,2.86-22.14,10.51-28.46,20.99h0
					l-33.86,56.12c-6.77,11.22-8.45,24.84-4.6,37.37l80.45,262.11c9.4,30.65,39.3,50.42,71.11,47.04
					c187.52-19.98,348.75-45.49,492.8-77.97c25.91-14.28,50.24-35.89,72.35-64.27c12.57-16.13,18.34-35.99,16.26-55.91
					c-11.46-109.9-38.26-199.31-81.92-273.34C2341.83,2207.65,2317.38,2193.8,2291.67,2193.8z M1729.7,2291.29h0.05H1729.7z"/>
			</g>
		</g>
		<g>
			<g>
				<path class="st2" d="M2339.18,2654.25c-1.22,0-2.46-0.17-3.69-0.53c-6.94-2.04-10.91-9.31-8.87-16.25
					c18.35-62.54-3.51-227.4-54.26-323.52c-8.83-16.73-26.8-26.88-45.66-25.98c-133.12,6.67-290.82,30.9-482.07,74.08
					c-12.66,4.35-21.31,11.56-26.45,22.03c-12.07,24.61-0.54,59.18-0.42,59.52c2.39,6.82-1.2,14.29-8.03,16.68
					c-6.81,2.38-14.29-1.2-16.68-8.03c-0.64-1.82-15.41-44.97,1.63-79.71c8.35-17.02,22.57-28.97,42.27-35.54
					c0.41-0.14,0.83-0.25,1.26-0.35c193.04-43.61,352.4-68.1,487.2-74.84c29.04-1.44,56.56,14.21,70.12,39.91
					c49.96,94.63,78.34,267.79,56.23,343.12C2350.06,2650.55,2344.84,2654.25,2339.18,2654.25z"/>
			</g>
		</g>
		<g>
			<g>
				<path class="st2" d="M2171.95,2686.23c-5.5,0-10.54-3.66-12.06-9.23l-38.93-143.41c-2.2-8.1-8.97-14.15-17.26-15.43
					l-152.61-23.56c-17.3-2.67-31.86-15.2-37.09-31.91l-43.48-139.23c-2.06-6.59,1.62-13.6,8.21-15.66
					c6.59-2.05,13.6,1.62,15.66,8.21l43.48,139.22c2.4,7.68,9.09,13.44,17.04,14.66l152.61,23.56
					c18.04,2.78,32.79,15.96,37.57,33.58l38.93,143.41c1.81,6.67-2.13,13.53-8.79,15.34
					C2174.13,2686.09,2173.03,2686.23,2171.95,2686.23z"/>
			</g>
		</g>
		<g class="st1">
			<g>
				<path class="st2" d="M2432.64,2568.64c-23.25,29.85-49.33,53.36-78.87,69.23c-153.02,34.62-319.97,59.91-496.55,78.71
					c-39.01,4.19-75.51-20-87.04-57.55l-16.02-52.26c334.37,73.73,495.51-41.63,501.95-325.78l79.6-90.39
					c13.09,7.54,24.35,18.43,32.31,32c47.34,80.23,73.05,174.86,83.95,279.38C2454.42,2525.8,2447.35,2549.73,2432.64,2568.64z"/>
			</g>
		</g>
		<g>
			<g>
				<path class="st0" d="M2675.42,2443.95c-75.57,37.6-153.39,55.56-233.4,53.99c-15.71-0.26-29.43-10.63-33.73-25.71l-1.15-3.93
					l-3.18-76.48c-5.92-20.53-6.16-41.86,15-45c66.14-9.69,120.88-34.78,179.43-55.57c8.48-2.98,16.91-6.13,25.19-9.43
					c20.11-7.91,42.58,3.72,47.6,24.77l23.15,97.25C2698.2,2419.97,2690.29,2436.57,2675.42,2443.95z"/>
			</g>
		</g>
		<g>
			<g>
				<path class="st2" d="M2465.11,2511.61c-35.38,0-66.52-23.21-76.28-57.22l-10.68-37.21c-6.16-21.47-2.9-44.65,8.96-63.58
					c11.92-19.03,31.47-32.17,53.65-36.04l0,0c53.62-9.35,103.67-22.05,148.76-37.76c21.08-7.34,44.39-5.41,63.96,5.3
					c19.54,10.7,33.71,29.28,38.87,50.96l9.77,41.04c8.85,37.16-10.23,75.34-45.36,90.78c-61.23,26.9-124.83,41.6-189.03,43.67
					C2466.86,2511.59,2465.98,2511.61,2465.11,2511.61z M2615.65,2302.88c-5.71,0-11.46,0.97-17.06,2.92
					c-46.5,16.2-98,29.28-153.09,38.88l0,0c-14.49,2.52-27.27,11.1-35.04,23.52c-7.83,12.5-9.9,27.19-5.83,41.37l10.68,37.21
					c6.51,22.71,27.59,38.03,51.54,37.26c60.68-1.96,120.85-15.88,178.85-41.36c22.95-10.08,35.42-34.98,29.65-59.19l-9.77-41.04
					c-3.41-14.33-12.4-26.11-25.31-33.18C2632.53,2305.02,2624.13,2302.88,2615.65,2302.88z M2443.13,2331.12h0.05H2443.13z"/>
			</g>
		</g>
		<g class="st1">
			<g>
				<path class="st2" d="M2675.42,2443.95c-75.57,37.6-153.39,55.56-233.4,53.99c-15.71-0.26-29.43-10.63-33.73-25.71l-1.15-3.93
					c174.75-19.48,193.19-124.79,191.25-177.06c8.48-2.98,16.91-6.13,25.19-9.43c20.11-7.91,42.58,3.72,47.6,24.77l23.15,97.25
					C2698.2,2419.97,2690.29,2436.57,2675.42,2443.95z"/>
			</g>
		</g>
		<g>
			<g>
				<g>
					
						<ellipse transform="matrix(0.9243 -0.3816 0.3816 0.9243 -752.9445 1009.9333)" class="st5" cx="2169.79" cy="2403.3" rx="53.58" ry="57.43"/>
				</g>
			</g>
			<g class="st6">
				<g>
					<path class="st0" d="M2137.43,2446.63c-12.11-29.32,0.25-62.24,27.61-73.53c18.35-7.58,38.77-3.45,53.89,8.92
						c-12.37-28.74-43.97-42.98-71.05-31.8c-27.35,11.29-39.71,44.22-27.61,73.53c3.98,9.64,10.14,17.65,17.55,23.72
						C2137.69,2447.18,2137.54,2446.92,2137.43,2446.63z"/>
				</g>
			</g>
			<g>
				<g>
					<path class="st2" d="M2172.42,2472.73c-9.23,0-18.51-2.02-27.35-6.06c-16.38-7.48-29.3-21.03-36.36-38.14
						c-14.71-35.64,0.71-75.95,34.39-89.86c33.66-13.91,73.05,3.78,87.77,39.42l0,0c14.72,35.64-0.71,75.95-34.39,89.85
						C2188.74,2471.14,2180.6,2472.73,2172.42,2472.73z M2167.1,2358.91c-4.87,0-9.76,0.92-14.47,2.86
						c-20.94,8.65-30.28,34.31-20.82,57.21c4.64,11.25,13.04,20.1,23.64,24.95c10.31,4.71,21.48,5.02,31.47,0.91
						c20.94-8.65,30.28-34.31,20.83-57.21l0,0C2200.43,2369.87,2183.91,2358.91,2167.1,2358.91z"/>
				</g>
			</g>
		</g>
	</g>
	<g>
		<g>
			<path class="st2" d="M2608.8,2180.98l-55.52,14.43c-2.83,0.74-5.72-0.96-6.46-3.79c-0.6-2.3,0.42-4.65,2.35-5.84l48.83-30.12
				c6.55-4.04,15.12-2,19.16,4.54c4.04,6.55,2,15.12-4.54,19.16C2611.41,2180.09,2610.09,2180.64,2608.8,2180.98z"/>
		</g>
	</g>
	<g>
		<g>
			<path class="st2" d="M2760.53,2549.56c-15.3,0-30.52-2.85-44.89-8.49c-10.25-4.01-21.5-8.47-30.15-12.03
				c-16.31-6.7-27.08-11.13-23.19-24.61c1.9-6.58,8.69-12.32,18.02-10.56c2.68,0.51,5.06,1.7,6.98,3.37
				c4.1,1.82,14.28,6.1,39.28,15.9c16.26,6.37,33.95,8.04,51.16,4.81c44.66-8.36,89.39-23.33,132.94-44.51
				c28.84-14.02,44.31-47.16,36.8-78.8l-62.43-262.85c-5.4-22.73-20.06-42.53-40.21-54.34l-27.03-15.83
				c-14.01-8.21-30.77-9.62-45.97-3.89l-65.46,24.69c-7.75,2.92-16.4-0.99-19.33-8.74c-2.92-7.75,0.99-16.41,8.74-19.33l65.46-24.69
				c23.71-8.95,49.85-6.73,71.71,6.07l27.03,15.83c27.19,15.92,46.96,42.63,54.25,73.29l62.43,262.85
				c10.74,45.2-11.5,92.6-52.87,112.71c-45.96,22.35-93.25,38.17-140.54,47.02C2775.73,2548.86,2768.12,2549.56,2760.53,2549.56z"/>
		</g>
	</g>
	<g>
		<g>
			<path class="st2" d="M2885.35,2116.75c-0.24-0.14-1.43-0.65-2.27-0.97c-0.94-0.37-1.91-0.72-2.92-1.04
				c-2-0.66-4.08-1.24-6.2-1.73c-4.24-0.96-8.59-1.69-13-2.01c-8.81-0.74-17.79-0.05-26.58,1.77c-2.21,0.42-4.4,0.94-6.56,1.61
				l-3.27,0.92l-3.49,1.25l-14.04,5.11l-28.1,10.23l-28.13,10.23c-1.15,0.43-2.41,0.85-3.45,1.28l-2.98,1.28
				c-2.01,0.83-3.85,1.98-5.75,3.01c-3.65,2.33-7.16,4.94-10.23,8.06c-12.4,12.33-18.69,31.02-15.5,48.83l45.45,236.48
				l-58.29-233.92c-5.12-21.64,1.21-45.73,16.41-62.59c3.76-4.26,8.12-7.95,12.77-11.25c2.4-1.51,4.78-3.13,7.34-4.38l3.84-1.91
				c1.25-0.59,2.35-1.02,3.53-1.53l27.87-11.89l27.9-11.9l13.96-5.95l3.53-1.48l3.91-1.35c2.59-0.95,5.24-1.74,7.93-2.41
				c10.71-2.84,21.89-4.32,33.13-4.01c5.62,0.1,11.24,0.71,16.85,1.67c2.81,0.5,5.6,1.1,8.42,1.86c1.4,0.36,2.82,0.78,4.25,1.25
				c1.52,0.51,2.69,0.88,4.74,1.75l0.5,0.21c6.67,2.83,9.79,10.53,6.96,17.21c-2.83,6.67-10.53,9.79-17.21,6.96
				C2886.2,2117.2,2885.76,2116.98,2885.35,2116.75z"/>
		</g>
	</g>
	<g class="st1">
		<g>
			<path class="st2" d="M2603.41,2168.34c11.31,37.39,21.63,74.47,30.84,111.33l-210.68,49.49l-23.36-42.21
				c154.85,9.9,63.05-145.69,63.05-145.69c189.47-119.66,261.42-378.88,261.42-378.88l106.1,25.98l9.64,4.03
				C2840.43,1792.39,2788.43,2016.47,2603.41,2168.34z"/>
		</g>
	</g>
	<g class="st1">
		<g>
			<path class="st2" d="M2128.01,3273.93c-8.22-4.61-16.44-9.48-24.72-14.61c-15.81,160.82-188.84,211.67-245.55,53.26
				c-3.46-9.74-6.23-19.64-8.33-29.69c0.05,0.05,0.05,0.05,0.1,0.1c127.62,142.39,193.4-64.2,193.4-64.2l26.81,18.01
				L2128.01,3273.93z"/>
		</g>
	</g>
	<g class="st1">
		<g>
			<path class="st2" d="M1890.47,3033.01c0,0,177.03-61.71,276.53,56.99l-27.53-115.21l-115.91-24.47l-39.85,13.78l-74.19,17.76"/>
		</g>
	</g>
	<g class="st1">
		<g>
			<path class="st2" d="M2001.81,2942.65l-61.17,27.18l-39.17,22.1l3.67-13.67l-235.66,5.24l-52.37,45.4l-149.2,212.3
				c-19.9,28.33-50.22,48.02-84.42,53.15c-17.86,2.67-39.22,3.14-63.84-0.99c-48.81-8.17-93.16-33.52-126.52-70.07
				c-36.5-39.96-72.11-79.97-99.97-121.13c0.05,0.05,0.1,0.1,0.16,0.16c272.16,221.83,234.03-105.21,234.03-105.21
				s62.53,86.09,66.66,92.9c44.57,73.05,86.93-96.04,86.93-96.04l115.21-129.14l270.59-8.75l47.39,38.23L2001.81,2942.65z"/>
		</g>
	</g>
	<g class="st1">
		<g>
			<path class="st2" d="M1744.1,2574.09l-6.7,18.59l-246.29,62.68l-65.36,57.03c0,0-11.57,3.67-29.12,9.27c0,0-0.05-0.05-0.05,0
				c-98.24,14.19-190.88-19.95-213.45-111.96c133.07,73.73,151.29-83.79,151.29-83.79l59.28,21.31v53.36l146.63-18.54
				c162.34,1.73,176.53-96.62,176.53-96.62L1744.1,2574.09z"/>
		</g>
	</g>
</g>
</svg>
