<?xml version="1.0" encoding="utf-8"?>
<!-- Generator: Adobe Illustrator 26.0.3, SVG Export Plug-In . SVG Version: 6.00 Build 0)  -->
<svg version="1.1" id="Layer_1" xmlns="http://www.w3.org/2000/svg" xmlns:xlink="http://www.w3.org/1999/xlink" x="0px" y="0px"
	 viewBox="0 0 4000 4000" style="enable-background:new 0 0 4000 4000;" xml:space="preserve">
<style type="text/css">
	.st0{clip-path:url(#SVGID_00000182507844966507382670000000855776394041651589_);fill:#EC1C24;}
	.st1{clip-path:url(#SVGID_00000182507844966507382670000000855776394041651589_);fill:#EC1D24;}
	.st2{clip-path:url(#SVGID_00000182507844966507382670000000855776394041651589_);fill:#EC1E24;}
	.st3{clip-path:url(#SVGID_00000182507844966507382670000000855776394041651589_);fill:#EC1F24;}
	.st4{clip-path:url(#SVGID_00000182507844966507382670000000855776394041651589_);fill:#EC2024;}
	.st5{clip-path:url(#SVGID_00000182507844966507382670000000855776394041651589_);fill:#ED2124;}
	.st6{clip-path:url(#SVGID_00000182507844966507382670000000855776394041651589_);fill:#ED2224;}
	.st7{clip-path:url(#SVGID_00000182507844966507382670000000855776394041651589_);fill:#ED2324;}
	.st8{clip-path:url(#SVGID_00000182507844966507382670000000855776394041651589_);fill:#ED2424;}
	.st9{clip-path:url(#SVGID_00000182507844966507382670000000855776394041651589_);fill:#ED2524;}
	.st10{clip-path:url(#SVGID_00000182507844966507382670000000855776394041651589_);fill:#ED2624;}
	.st11{clip-path:url(#SVGID_00000182507844966507382670000000855776394041651589_);fill:#ED2724;}
	.st12{clip-path:url(#SVGID_00000182507844966507382670000000855776394041651589_);fill:#ED2824;}
	.st13{clip-path:url(#SVGID_00000182507844966507382670000000855776394041651589_);fill:#ED2924;}
	.st14{clip-path:url(#SVGID_00000182507844966507382670000000855776394041651589_);fill:#ED2A24;}
	.st15{clip-path:url(#SVGID_00000182507844966507382670000000855776394041651589_);fill:#EE2A24;}
	.st16{clip-path:url(#SVGID_00000182507844966507382670000000855776394041651589_);fill:#EE2B24;}
	.st17{clip-path:url(#SVGID_00000182507844966507382670000000855776394041651589_);fill:#EE2C24;}
	.st18{clip-path:url(#SVGID_00000182507844966507382670000000855776394041651589_);fill:#EE2D24;}
	.st19{clip-path:url(#SVGID_00000182507844966507382670000000855776394041651589_);fill:#EE2E24;}
	.st20{clip-path:url(#SVGID_00000182507844966507382670000000855776394041651589_);fill:#EE2F24;}
	.st21{clip-path:url(#SVGID_00000182507844966507382670000000855776394041651589_);fill:#EE3024;}
	.st22{clip-path:url(#SVGID_00000182507844966507382670000000855776394041651589_);fill:#EE3124;}
	.st23{clip-path:url(#SVGID_00000182507844966507382670000000855776394041651589_);fill:#EE3224;}
	.st24{clip-path:url(#SVGID_00000182507844966507382670000000855776394041651589_);fill:#EE3225;}
	.st25{clip-path:url(#SVGID_00000182507844966507382670000000855776394041651589_);fill:#EF3325;}
	.st26{clip-path:url(#SVGID_00000182507844966507382670000000855776394041651589_);fill:#EF3425;}
	.st27{clip-path:url(#SVGID_00000182507844966507382670000000855776394041651589_);fill:#EF3525;}
	.st28{clip-path:url(#SVGID_00000182507844966507382670000000855776394041651589_);fill:#EF3625;}
	.st29{clip-path:url(#SVGID_00000182507844966507382670000000855776394041651589_);fill:#EF3725;}
	.st30{clip-path:url(#SVGID_00000182507844966507382670000000855776394041651589_);fill:#EF3825;}
	.st31{clip-path:url(#SVGID_00000182507844966507382670000000855776394041651589_);fill:#EF3925;}
	.st32{clip-path:url(#SVGID_00000182507844966507382670000000855776394041651589_);fill:#EF3A25;}
	.st33{clip-path:url(#SVGID_00000182507844966507382670000000855776394041651589_);fill:#EF3B25;}
	.st34{clip-path:url(#SVGID_00000182507844966507382670000000855776394041651589_);fill:#EF3C25;}
	.st35{clip-path:url(#SVGID_00000182507844966507382670000000855776394041651589_);fill:#F03D25;}
	.st36{clip-path:url(#SVGID_00000182507844966507382670000000855776394041651589_);fill:#F03E25;}
	.st37{clip-path:url(#SVGID_00000182507844966507382670000000855776394041651589_);fill:#F03F25;}
	.st38{clip-path:url(#SVGID_00000182507844966507382670000000855776394041651589_);fill:#F04025;}
	.st39{clip-path:url(#SVGID_00000182507844966507382670000000855776394041651589_);fill:#F04125;}
	.st40{clip-path:url(#SVGID_00000182507844966507382670000000855776394041651589_);fill:#F04225;}
	.st41{clip-path:url(#SVGID_00000182507844966507382670000000855776394041651589_);fill:#F04325;}
	.st42{clip-path:url(#SVGID_00000182507844966507382670000000855776394041651589_);fill:#F04425;}
	.st43{clip-path:url(#SVGID_00000182507844966507382670000000855776394041651589_);fill:#F04525;}
	.st44{clip-path:url(#SVGID_00000182507844966507382670000000855776394041651589_);fill:#F14625;}
	.st45{clip-path:url(#SVGID_00000182507844966507382670000000855776394041651589_);fill:#F14725;}
	.st46{clip-path:url(#SVGID_00000182507844966507382670000000855776394041651589_);fill:#F14825;}
	.st47{clip-path:url(#SVGID_00000182507844966507382670000000855776394041651589_);fill:#F14925;}
	.st48{clip-path:url(#SVGID_00000182507844966507382670000000855776394041651589_);fill:#F14A25;}
	.st49{clip-path:url(#SVGID_00000182507844966507382670000000855776394041651589_);fill:#F14B25;}
	.st50{clip-path:url(#SVGID_00000182507844966507382670000000855776394041651589_);fill:#F14C25;}
	.st51{clip-path:url(#SVGID_00000182507844966507382670000000855776394041651589_);fill:#F14D25;}
	.st52{clip-path:url(#SVGID_00000182507844966507382670000000855776394041651589_);fill:#F14E25;}
	.st53{clip-path:url(#SVGID_00000182507844966507382670000000855776394041651589_);fill:#F24F25;}
	.st54{clip-path:url(#SVGID_00000182507844966507382670000000855776394041651589_);fill:#F25025;}
	.st55{clip-path:url(#SVGID_00000182507844966507382670000000855776394041651589_);fill:#F25125;}
	.st56{clip-path:url(#SVGID_00000182507844966507382670000000855776394041651589_);fill:#F25225;}
	.st57{clip-path:url(#SVGID_00000182507844966507382670000000855776394041651589_);fill:#F25325;}
	.st58{clip-path:url(#SVGID_00000182507844966507382670000000855776394041651589_);fill:#F25425;}
	.st59{clip-path:url(#SVGID_00000182507844966507382670000000855776394041651589_);fill:#F25525;}
	.st60{clip-path:url(#SVGID_00000182507844966507382670000000855776394041651589_);fill:#F25625;}
	.st61{clip-path:url(#SVGID_00000182507844966507382670000000855776394041651589_);fill:#F25725;}
	.st62{clip-path:url(#SVGID_00000182507844966507382670000000855776394041651589_);fill:#F35825;}
	.st63{clip-path:url(#SVGID_00000182507844966507382670000000855776394041651589_);fill:#F35925;}
	.st64{clip-path:url(#SVGID_00000182507844966507382670000000855776394041651589_);fill:#F35A25;}
	.st65{clip-path:url(#SVGID_00000182507844966507382670000000855776394041651589_);fill:#F35C25;}
	.st66{clip-path:url(#SVGID_00000182507844966507382670000000855776394041651589_);fill:#F35D25;}
	.st67{clip-path:url(#SVGID_00000182507844966507382670000000855776394041651589_);fill:#F35E26;}
	.st68{clip-path:url(#SVGID_00000182507844966507382670000000855776394041651589_);fill:#F35F26;}
	.st69{clip-path:url(#SVGID_00000182507844966507382670000000855776394041651589_);fill:#F36026;}
	.st70{clip-path:url(#SVGID_00000182507844966507382670000000855776394041651589_);fill:#F46126;}
	.st71{clip-path:url(#SVGID_00000182507844966507382670000000855776394041651589_);fill:#F46226;}
	.st72{clip-path:url(#SVGID_00000182507844966507382670000000855776394041651589_);fill:#F46426;}
	.st73{clip-path:url(#SVGID_00000182507844966507382670000000855776394041651589_);fill:#F46526;}
	.st74{clip-path:url(#SVGID_00000182507844966507382670000000855776394041651589_);fill:#F46626;}
	.st75{clip-path:url(#SVGID_00000182507844966507382670000000855776394041651589_);fill:#F46726;}
	.st76{clip-path:url(#SVGID_00000182507844966507382670000000855776394041651589_);fill:#F46826;}
	.st77{clip-path:url(#SVGID_00000182507844966507382670000000855776394041651589_);fill:#F46A26;}
	.st78{clip-path:url(#SVGID_00000182507844966507382670000000855776394041651589_);fill:#F56B26;}
	.st79{clip-path:url(#SVGID_00000182507844966507382670000000855776394041651589_);fill:#F56C26;}
	.st80{clip-path:url(#SVGID_00000182507844966507382670000000855776394041651589_);fill:#F56D26;}
	.st81{clip-path:url(#SVGID_00000182507844966507382670000000855776394041651589_);fill:#F56F26;}
	.st82{clip-path:url(#SVGID_00000182507844966507382670000000855776394041651589_);fill:#F57026;}
	.st83{clip-path:url(#SVGID_00000182507844966507382670000000855776394041651589_);fill:#F57126;}
	.st84{clip-path:url(#SVGID_00000182507844966507382670000000855776394041651589_);fill:#F57226;}
	.st85{clip-path:url(#SVGID_00000182507844966507382670000000855776394041651589_);fill:#F67426;}
	.st86{clip-path:url(#SVGID_00000182507844966507382670000000855776394041651589_);fill:#F67526;}
	.st87{clip-path:url(#SVGID_00000182507844966507382670000000855776394041651589_);fill:#F67626;}
	.st88{clip-path:url(#SVGID_00000182507844966507382670000000855776394041651589_);fill:#F67726;}
	.st89{clip-path:url(#SVGID_00000182507844966507382670000000855776394041651589_);fill:#F67926;}
	.st90{clip-path:url(#SVGID_00000182507844966507382670000000855776394041651589_);fill:#F67A26;}
	.st91{clip-path:url(#SVGID_00000182507844966507382670000000855776394041651589_);fill:#F67B26;}
	.st92{clip-path:url(#SVGID_00000182507844966507382670000000855776394041651589_);fill:#F77D26;}
	.st93{clip-path:url(#SVGID_00000182507844966507382670000000855776394041651589_);fill:#F77E26;}
	.st94{clip-path:url(#SVGID_00000182507844966507382670000000855776394041651589_);fill:#F77F26;}
	.st95{clip-path:url(#SVGID_00000182507844966507382670000000855776394041651589_);fill:#F78126;}
	.st96{clip-path:url(#SVGID_00000182507844966507382670000000855776394041651589_);fill:#F78226;}
	.st97{clip-path:url(#SVGID_00000182507844966507382670000000855776394041651589_);fill:#F78426;}
	.st98{clip-path:url(#SVGID_00000182507844966507382670000000855776394041651589_);fill:#F78526;}
	.st99{clip-path:url(#SVGID_00000182507844966507382670000000855776394041651589_);fill:#F88626;}
	.st100{clip-path:url(#SVGID_00000182507844966507382670000000855776394041651589_);fill:#F88826;}
	.st101{clip-path:url(#SVGID_00000182507844966507382670000000855776394041651589_);fill:#F88927;}
	.st102{clip-path:url(#SVGID_00000182507844966507382670000000855776394041651589_);fill:#F88A27;}
	.st103{clip-path:url(#SVGID_00000182507844966507382670000000855776394041651589_);fill:#F88C27;}
	.st104{clip-path:url(#SVGID_00000182507844966507382670000000855776394041651589_);fill:#F88D27;}
	.st105{clip-path:url(#SVGID_00000182507844966507382670000000855776394041651589_);fill:#F98F27;}
	.st106{clip-path:url(#SVGID_00000182507844966507382670000000855776394041651589_);fill:#F99027;}
	.st107{clip-path:url(#SVGID_00000182507844966507382670000000855776394041651589_);fill:#F99227;}
	.st108{clip-path:url(#SVGID_00000182507844966507382670000000855776394041651589_);fill:#F99327;}
	.st109{clip-path:url(#SVGID_00000182507844966507382670000000855776394041651589_);fill:#F99427;}
	.st110{clip-path:url(#SVGID_00000182507844966507382670000000855776394041651589_);fill:#F99627;}
	.st111{clip-path:url(#SVGID_00000182507844966507382670000000855776394041651589_);fill:#F99727;}
	.st112{clip-path:url(#SVGID_00000182507844966507382670000000855776394041651589_);fill:#FA9927;}
	.st113{clip-path:url(#SVGID_00000182507844966507382670000000855776394041651589_);fill:#FA9A27;}
	.st114{clip-path:url(#SVGID_00000182507844966507382670000000855776394041651589_);fill:#FA9C27;}
	.st115{clip-path:url(#SVGID_00000182507844966507382670000000855776394041651589_);fill:#FA9D27;}
	.st116{clip-path:url(#SVGID_00000182507844966507382670000000855776394041651589_);fill:#FA9F27;}
	.st117{clip-path:url(#SVGID_00000182507844966507382670000000855776394041651589_);fill:#FAA027;}
	.st118{clip-path:url(#SVGID_00000182507844966507382670000000855776394041651589_);fill:#FBA227;}
	.st119{clip-path:url(#SVGID_00000182507844966507382670000000855776394041651589_);fill:#FBA327;}
	.st120{clip-path:url(#SVGID_00000182507844966507382670000000855776394041651589_);fill:#FBA527;}
	.st121{clip-path:url(#SVGID_00000182507844966507382670000000855776394041651589_);fill:#FBA627;}
	.st122{clip-path:url(#SVGID_00000182507844966507382670000000855776394041651589_);fill:#FBA827;}
	.st123{clip-path:url(#SVGID_00000182507844966507382670000000855776394041651589_);fill:#FBAA27;}
	.st124{clip-path:url(#SVGID_00000182507844966507382670000000855776394041651589_);fill:#FCAB27;}
	.st125{clip-path:url(#SVGID_00000182507844966507382670000000855776394041651589_);fill:#FCAD27;}
	.st126{clip-path:url(#SVGID_00000182507844966507382670000000855776394041651589_);fill:#FCAE27;}
	.st127{clip-path:url(#SVGID_00000182507844966507382670000000855776394041651589_);fill:#FCB027;}
	.st128{clip-path:url(#SVGID_00000182507844966507382670000000855776394041651589_);fill:#FCB127;}
	.st129{clip-path:url(#SVGID_00000182507844966507382670000000855776394041651589_);fill:#FCB327;}
	.st130{clip-path:url(#SVGID_00000182507844966507382670000000855776394041651589_);fill:#FDB528;}
	.st131{clip-path:url(#SVGID_00000182507844966507382670000000855776394041651589_);fill:#FDB628;}
	.st132{clip-path:url(#SVGID_00000182507844966507382670000000855776394041651589_);fill:#FDB828;}
	.st133{clip-path:url(#SVGID_00000182507844966507382670000000855776394041651589_);fill:#FDB928;}
	.st134{clip-path:url(#SVGID_00000182507844966507382670000000855776394041651589_);fill:#FDBB28;}
	.st135{clip-path:url(#SVGID_00000182507844966507382670000000855776394041651589_);fill:#FEBD28;}
	.st136{clip-path:url(#SVGID_00000182507844966507382670000000855776394041651589_);fill:#FEBE28;}
	.st137{clip-path:url(#SVGID_00000182507844966507382670000000855776394041651589_);fill:#FEC028;}
	.st138{clip-path:url(#SVGID_00000182507844966507382670000000855776394041651589_);fill:#FEC228;}
	.st139{clip-path:url(#SVGID_00000182507844966507382670000000855776394041651589_);fill:#FEC328;}
	.st140{clip-path:url(#SVGID_00000182507844966507382670000000855776394041651589_);fill:#FEC528;}
	.st141{clip-path:url(#SVGID_00000182507844966507382670000000855776394041651589_);fill:#FFC728;}
	.st142{clip-path:url(#SVGID_00000182507844966507382670000000855776394041651589_);fill:#FFC828;}
	.st143{clip-path:url(#SVGID_00000182507844966507382670000000855776394041651589_);fill:#FFCA28;}
	.st144{opacity:0.5;}
	.st145{fill:#FFFFFF;}
	.st146{opacity:0.3;}
	.st147{fill:#371A45;}
	.st148{fill:#FFD553;}
	.st149{opacity:0.25;}
	.st150{opacity:0.35;}
	.st151{fill:#00AAFF;}
	.st152{opacity:0.6;}
	.st153{fill:#EC1C24;}
	.st154{fill:#D25658;}
	.st155{fill:#6BD6F0;}
	.st156{opacity:0.2;}
	.st157{opacity:0.7;}
	.st158{fill:#111A28;}
	.st159{fill:#22A7F0;}
</style>
<g>
	<g>
		<g>
			<g>
				<defs>
					<path id="SVGID_1_" d="M684.99,3261.11c304.24-132.04,401.77,78.56,594.7-5.17s143.35-307.35,143.35-307.35
						s-129.46-188.95-322.4-105.22C907.71,2927.11,989.23,3129.08,684.99,3261.11z"/>
				</defs>
				<clipPath id="SVGID_00000181773075175646536940000005033007985606486448_">
					<use xlink:href="#SVGID_1_"  style="overflow:visible;"/>
				</clipPath>
				<polygon style="clip-path:url(#SVGID_00000181773075175646536940000005033007985606486448_);fill:#EC1C24;" points="
					684.99,3261.11 726.76,3339.68 684.99,3339.68 				"/>
				<polygon style="clip-path:url(#SVGID_00000181773075175646536940000005033007985606486448_);fill:#EC1C24;" points="
					684.99,3251.34 731.96,3339.68 726.76,3339.68 684.99,3261.11 				"/>
				<polygon style="clip-path:url(#SVGID_00000181773075175646536940000005033007985606486448_);fill:#EC1C24;" points="
					684.99,3241.57 737.16,3339.68 731.96,3339.68 684.99,3251.34 				"/>
				<polygon style="clip-path:url(#SVGID_00000181773075175646536940000005033007985606486448_);fill:#EC1C24;" points="
					684.99,3231.8 742.35,3339.68 737.16,3339.68 684.99,3241.57 				"/>
				<polygon style="clip-path:url(#SVGID_00000181773075175646536940000005033007985606486448_);fill:#EC1C24;" points="
					684.99,3222.02 747.55,3339.68 742.35,3339.68 684.99,3231.8 				"/>
				<polygon style="clip-path:url(#SVGID_00000181773075175646536940000005033007985606486448_);fill:#EC1C24;" points="
					684.99,3212.25 752.75,3339.68 747.55,3339.68 684.99,3222.02 				"/>
				<polygon style="clip-path:url(#SVGID_00000181773075175646536940000005033007985606486448_);fill:#EC1C24;" points="
					684.99,3202.48 757.94,3339.68 752.75,3339.68 684.99,3212.25 				"/>
				<polygon style="clip-path:url(#SVGID_00000181773075175646536940000005033007985606486448_);fill:#EC1D24;" points="
					684.99,3192.7 763.14,3339.68 757.94,3339.68 684.99,3202.48 				"/>
				<polygon style="clip-path:url(#SVGID_00000181773075175646536940000005033007985606486448_);fill:#EC1D24;" points="
					684.99,3182.93 768.34,3339.68 763.14,3339.68 684.99,3192.7 				"/>
				<polygon style="clip-path:url(#SVGID_00000181773075175646536940000005033007985606486448_);fill:#EC1D24;" points="
					684.99,3173.16 773.53,3339.68 768.34,3339.68 684.99,3182.93 				"/>
				<polygon style="clip-path:url(#SVGID_00000181773075175646536940000005033007985606486448_);fill:#EC1D24;" points="
					684.99,3163.39 778.73,3339.68 773.53,3339.68 684.99,3173.16 				"/>
				<polygon style="clip-path:url(#SVGID_00000181773075175646536940000005033007985606486448_);fill:#EC1D24;" points="
					684.99,3153.61 783.93,3339.68 778.73,3339.68 684.99,3163.39 				"/>
				<polygon style="clip-path:url(#SVGID_00000181773075175646536940000005033007985606486448_);fill:#EC1E24;" points="
					684.99,3143.84 789.12,3339.68 783.93,3339.68 684.99,3153.61 				"/>
				<polygon style="clip-path:url(#SVGID_00000181773075175646536940000005033007985606486448_);fill:#EC1E24;" points="
					684.99,3134.07 794.32,3339.68 789.12,3339.68 684.99,3143.84 				"/>
				<polygon style="clip-path:url(#SVGID_00000181773075175646536940000005033007985606486448_);fill:#EC1E24;" points="
					684.99,3124.29 799.52,3339.68 794.32,3339.68 684.99,3134.07 				"/>
				<polygon style="clip-path:url(#SVGID_00000181773075175646536940000005033007985606486448_);fill:#EC1F24;" points="
					684.99,3114.52 804.72,3339.68 799.52,3339.68 684.99,3124.29 				"/>
				<polygon style="clip-path:url(#SVGID_00000181773075175646536940000005033007985606486448_);fill:#EC1F24;" points="
					684.99,3104.75 809.91,3339.68 804.72,3339.68 684.99,3114.52 				"/>
				<polygon style="clip-path:url(#SVGID_00000181773075175646536940000005033007985606486448_);fill:#EC1F24;" points="
					684.99,3094.98 815.11,3339.68 809.91,3339.68 684.99,3104.75 				"/>
				<polygon style="clip-path:url(#SVGID_00000181773075175646536940000005033007985606486448_);fill:#EC2024;" points="
					684.99,3085.2 820.31,3339.68 815.11,3339.68 684.99,3094.98 				"/>
				<polygon style="clip-path:url(#SVGID_00000181773075175646536940000005033007985606486448_);fill:#EC2024;" points="
					684.99,3075.43 825.5,3339.68 820.31,3339.68 684.99,3085.2 				"/>
				<polygon style="clip-path:url(#SVGID_00000181773075175646536940000005033007985606486448_);fill:#EC2024;" points="
					684.99,3065.66 830.7,3339.68 825.5,3339.68 684.99,3075.43 				"/>
				<polygon style="clip-path:url(#SVGID_00000181773075175646536940000005033007985606486448_);fill:#ED2124;" points="
					684.99,3055.89 835.9,3339.68 830.7,3339.68 684.99,3065.66 				"/>
				<polygon style="clip-path:url(#SVGID_00000181773075175646536940000005033007985606486448_);fill:#ED2124;" points="
					684.99,3046.11 841.09,3339.68 835.9,3339.68 684.99,3055.89 				"/>
				<polygon style="clip-path:url(#SVGID_00000181773075175646536940000005033007985606486448_);fill:#ED2124;" points="
					684.99,3036.34 846.29,3339.68 841.09,3339.68 684.99,3046.11 				"/>
				<polygon style="clip-path:url(#SVGID_00000181773075175646536940000005033007985606486448_);fill:#ED2224;" points="
					684.99,3034.21 688.16,3032.53 851.49,3339.68 846.29,3339.68 684.99,3036.34 				"/>
				<polygon style="clip-path:url(#SVGID_00000181773075175646536940000005033007985606486448_);fill:#ED2224;" points="
					688.16,3032.53 692.21,3030.37 856.68,3339.68 851.49,3339.68 				"/>
				<polygon style="clip-path:url(#SVGID_00000181773075175646536940000005033007985606486448_);fill:#ED2324;" points="
					692.21,3030.37 696.26,3028.22 861.88,3339.68 856.68,3339.68 				"/>
				<polygon style="clip-path:url(#SVGID_00000181773075175646536940000005033007985606486448_);fill:#ED2324;" points="
					696.26,3028.22 700.31,3026.07 867.08,3339.68 861.88,3339.68 				"/>
				<polygon style="clip-path:url(#SVGID_00000181773075175646536940000005033007985606486448_);fill:#ED2424;" points="
					700.31,3026.07 704.36,3023.91 872.27,3339.68 867.08,3339.68 				"/>
				<polygon style="clip-path:url(#SVGID_00000181773075175646536940000005033007985606486448_);fill:#ED2424;" points="
					704.36,3023.91 708.41,3021.76 877.47,3339.68 872.27,3339.68 				"/>
				<polygon style="clip-path:url(#SVGID_00000181773075175646536940000005033007985606486448_);fill:#ED2524;" points="
					708.41,3021.76 712.46,3019.6 882.67,3339.68 877.47,3339.68 				"/>
				<polygon style="clip-path:url(#SVGID_00000181773075175646536940000005033007985606486448_);fill:#ED2524;" points="
					712.46,3019.6 716.52,3017.45 887.86,3339.68 882.67,3339.68 				"/>
				<polygon style="clip-path:url(#SVGID_00000181773075175646536940000005033007985606486448_);fill:#ED2624;" points="
					716.52,3017.45 720.57,3015.29 893.06,3339.68 887.86,3339.68 				"/>
				<polygon style="clip-path:url(#SVGID_00000181773075175646536940000005033007985606486448_);fill:#ED2624;" points="
					720.57,3015.29 724.62,3013.14 898.26,3339.68 893.06,3339.68 				"/>
				<polygon style="clip-path:url(#SVGID_00000181773075175646536940000005033007985606486448_);fill:#ED2724;" points="
					724.62,3013.14 728.67,3010.99 903.45,3339.68 898.26,3339.68 				"/>
				<polygon style="clip-path:url(#SVGID_00000181773075175646536940000005033007985606486448_);fill:#ED2724;" points="
					728.67,3010.99 732.72,3008.83 908.65,3339.68 903.45,3339.68 				"/>
				<polygon style="clip-path:url(#SVGID_00000181773075175646536940000005033007985606486448_);fill:#ED2824;" points="
					732.72,3008.83 736.77,3006.68 913.85,3339.68 908.65,3339.68 				"/>
				<polygon style="clip-path:url(#SVGID_00000181773075175646536940000005033007985606486448_);fill:#ED2824;" points="
					736.77,3006.68 740.82,3004.52 919.04,3339.68 913.85,3339.68 				"/>
				<polygon style="clip-path:url(#SVGID_00000181773075175646536940000005033007985606486448_);fill:#ED2924;" points="
					740.82,3004.52 744.87,3002.37 924.24,3339.68 919.04,3339.68 				"/>
				<polygon style="clip-path:url(#SVGID_00000181773075175646536940000005033007985606486448_);fill:#ED2A24;" points="
					744.87,3002.37 748.93,3000.21 929.44,3339.68 924.24,3339.68 				"/>
				<polygon style="clip-path:url(#SVGID_00000181773075175646536940000005033007985606486448_);fill:#EE2A24;" points="
					748.93,3000.21 752.98,2998.06 934.63,3339.68 929.44,3339.68 				"/>
				<polygon style="clip-path:url(#SVGID_00000181773075175646536940000005033007985606486448_);fill:#EE2B24;" points="
					752.98,2998.06 757.03,2995.91 939.83,3339.68 934.63,3339.68 				"/>
				<polygon style="clip-path:url(#SVGID_00000181773075175646536940000005033007985606486448_);fill:#EE2B24;" points="
					757.03,2995.91 761.08,2993.75 945.03,3339.68 939.83,3339.68 				"/>
				<polygon style="clip-path:url(#SVGID_00000181773075175646536940000005033007985606486448_);fill:#EE2C24;" points="
					761.08,2993.75 765.13,2991.6 950.22,3339.68 945.03,3339.68 				"/>
				<polygon style="clip-path:url(#SVGID_00000181773075175646536940000005033007985606486448_);fill:#EE2D24;" points="
					765.13,2991.6 769.18,2989.44 955.42,3339.68 950.22,3339.68 				"/>
				<polygon style="clip-path:url(#SVGID_00000181773075175646536940000005033007985606486448_);fill:#EE2D24;" points="
					769.18,2989.44 773.23,2987.29 960.62,3339.68 955.42,3339.68 				"/>
				<polygon style="clip-path:url(#SVGID_00000181773075175646536940000005033007985606486448_);fill:#EE2E24;" points="
					773.23,2987.29 777.28,2985.13 965.81,3339.68 960.62,3339.68 				"/>
				<polygon style="clip-path:url(#SVGID_00000181773075175646536940000005033007985606486448_);fill:#EE2F24;" points="
					777.28,2985.13 781.34,2982.98 971.01,3339.68 965.81,3339.68 				"/>
				<polygon style="clip-path:url(#SVGID_00000181773075175646536940000005033007985606486448_);fill:#EE2F24;" points="
					781.34,2982.98 785.39,2980.83 976.21,3339.68 971.01,3339.68 				"/>
				<polygon style="clip-path:url(#SVGID_00000181773075175646536940000005033007985606486448_);fill:#EE3024;" points="
					785.39,2980.83 789.44,2978.67 981.4,3339.68 976.21,3339.68 				"/>
				<polygon style="clip-path:url(#SVGID_00000181773075175646536940000005033007985606486448_);fill:#EE3124;" points="
					789.44,2978.67 793.49,2976.52 986.6,3339.68 981.4,3339.68 				"/>
				<polygon style="clip-path:url(#SVGID_00000181773075175646536940000005033007985606486448_);fill:#EE3224;" points="
					793.49,2976.52 797.54,2974.36 991.8,3339.68 986.6,3339.68 				"/>
				<polygon style="clip-path:url(#SVGID_00000181773075175646536940000005033007985606486448_);fill:#EE3225;" points="
					797.54,2974.36 801.59,2972.21 996.99,3339.68 991.8,3339.68 				"/>
				<polygon style="clip-path:url(#SVGID_00000181773075175646536940000005033007985606486448_);fill:#EF3325;" points="
					801.59,2972.21 805.64,2970.05 1002.19,3339.68 996.99,3339.68 				"/>
				<polygon style="clip-path:url(#SVGID_00000181773075175646536940000005033007985606486448_);fill:#EF3425;" points="
					805.64,2970.05 809.69,2967.9 1007.39,3339.68 1002.19,3339.68 				"/>
				<polygon style="clip-path:url(#SVGID_00000181773075175646536940000005033007985606486448_);fill:#EF3525;" points="
					809.69,2967.9 813.74,2965.75 1012.58,3339.68 1007.39,3339.68 				"/>
				<polygon style="clip-path:url(#SVGID_00000181773075175646536940000005033007985606486448_);fill:#EF3525;" points="
					813.74,2965.75 817.8,2963.59 1017.78,3339.68 1012.58,3339.68 				"/>
				<polygon style="clip-path:url(#SVGID_00000181773075175646536940000005033007985606486448_);fill:#EF3625;" points="
					817.8,2963.59 821.85,2961.44 1022.98,3339.68 1017.78,3339.68 				"/>
				<polygon style="clip-path:url(#SVGID_00000181773075175646536940000005033007985606486448_);fill:#EF3725;" points="
					821.85,2961.44 825.9,2959.28 1028.18,3339.68 1022.98,3339.68 				"/>
				<polygon style="clip-path:url(#SVGID_00000181773075175646536940000005033007985606486448_);fill:#EF3825;" points="
					825.9,2959.28 829.95,2957.13 1033.37,3339.68 1028.18,3339.68 				"/>
				<polygon style="clip-path:url(#SVGID_00000181773075175646536940000005033007985606486448_);fill:#EF3925;" points="
					829.95,2957.13 834,2954.97 1038.57,3339.68 1033.37,3339.68 				"/>
				<polygon style="clip-path:url(#SVGID_00000181773075175646536940000005033007985606486448_);fill:#EF3925;" points="
					834,2954.97 838.05,2952.82 1043.77,3339.68 1038.57,3339.68 				"/>
				<polygon style="clip-path:url(#SVGID_00000181773075175646536940000005033007985606486448_);fill:#EF3A25;" points="
					838.05,2952.82 842.1,2950.67 1048.96,3339.68 1043.77,3339.68 				"/>
				<polygon style="clip-path:url(#SVGID_00000181773075175646536940000005033007985606486448_);fill:#EF3B25;" points="
					842.1,2950.67 846.15,2948.51 1054.16,3339.68 1048.96,3339.68 				"/>
				<polygon style="clip-path:url(#SVGID_00000181773075175646536940000005033007985606486448_);fill:#EF3C25;" points="
					846.15,2948.51 850.21,2946.36 1059.36,3339.68 1054.16,3339.68 				"/>
				<polygon style="clip-path:url(#SVGID_00000181773075175646536940000005033007985606486448_);fill:#F03D25;" points="
					850.21,2946.36 854.26,2944.2 1064.55,3339.68 1059.36,3339.68 				"/>
				<polygon style="clip-path:url(#SVGID_00000181773075175646536940000005033007985606486448_);fill:#F03E25;" points="
					854.26,2944.2 858.31,2942.05 1069.75,3339.68 1064.55,3339.68 				"/>
				<polygon style="clip-path:url(#SVGID_00000181773075175646536940000005033007985606486448_);fill:#F03E25;" points="
					858.31,2942.05 862.36,2939.9 1074.95,3339.68 1069.75,3339.68 				"/>
				<polygon style="clip-path:url(#SVGID_00000181773075175646536940000005033007985606486448_);fill:#F03F25;" points="
					862.36,2939.9 866.41,2937.74 1080.14,3339.68 1074.95,3339.68 				"/>
				<polygon style="clip-path:url(#SVGID_00000181773075175646536940000005033007985606486448_);fill:#F04025;" points="
					866.41,2937.74 870.46,2935.59 1085.34,3339.68 1080.14,3339.68 				"/>
				<polygon style="clip-path:url(#SVGID_00000181773075175646536940000005033007985606486448_);fill:#F04125;" points="
					870.46,2935.59 874.51,2933.43 1090.54,3339.68 1085.34,3339.68 				"/>
				<polygon style="clip-path:url(#SVGID_00000181773075175646536940000005033007985606486448_);fill:#F04225;" points="
					874.51,2933.43 878.56,2931.28 1095.73,3339.68 1090.54,3339.68 				"/>
				<polygon style="clip-path:url(#SVGID_00000181773075175646536940000005033007985606486448_);fill:#F04325;" points="
					878.56,2931.28 882.61,2929.12 1100.93,3339.68 1095.73,3339.68 				"/>
				<polygon style="clip-path:url(#SVGID_00000181773075175646536940000005033007985606486448_);fill:#F04425;" points="
					882.61,2929.12 886.67,2926.97 1106.13,3339.68 1100.93,3339.68 				"/>
				<polygon style="clip-path:url(#SVGID_00000181773075175646536940000005033007985606486448_);fill:#F04525;" points="
					886.67,2926.97 890.72,2924.82 1111.32,3339.68 1106.13,3339.68 				"/>
				<polygon style="clip-path:url(#SVGID_00000181773075175646536940000005033007985606486448_);fill:#F14625;" points="
					890.72,2924.82 894.77,2922.66 1116.52,3339.68 1111.32,3339.68 				"/>
				<polygon style="clip-path:url(#SVGID_00000181773075175646536940000005033007985606486448_);fill:#F14725;" points="
					894.77,2922.66 898.82,2920.51 1121.72,3339.68 1116.52,3339.68 				"/>
				<polygon style="clip-path:url(#SVGID_00000181773075175646536940000005033007985606486448_);fill:#F14825;" points="
					898.82,2920.51 902.87,2918.35 1126.91,3339.68 1121.72,3339.68 				"/>
				<polygon style="clip-path:url(#SVGID_00000181773075175646536940000005033007985606486448_);fill:#F14925;" points="
					902.87,2918.35 906.92,2916.2 1132.11,3339.68 1126.91,3339.68 				"/>
				<polygon style="clip-path:url(#SVGID_00000181773075175646536940000005033007985606486448_);fill:#F14A25;" points="
					906.92,2916.2 910.97,2914.04 1137.31,3339.68 1132.11,3339.68 				"/>
				<polygon style="clip-path:url(#SVGID_00000181773075175646536940000005033007985606486448_);fill:#F14B25;" points="
					910.97,2914.04 915.02,2911.89 1142.5,3339.68 1137.31,3339.68 				"/>
				<polygon style="clip-path:url(#SVGID_00000181773075175646536940000005033007985606486448_);fill:#F14C25;" points="
					915.02,2911.89 919.08,2909.74 1147.7,3339.68 1142.5,3339.68 				"/>
				<polygon style="clip-path:url(#SVGID_00000181773075175646536940000005033007985606486448_);fill:#F14D25;" points="
					919.08,2909.74 923.13,2907.58 1152.9,3339.68 1147.7,3339.68 				"/>
				<polygon style="clip-path:url(#SVGID_00000181773075175646536940000005033007985606486448_);fill:#F14E25;" points="
					923.13,2907.58 927.18,2905.43 1158.09,3339.68 1152.9,3339.68 				"/>
				<polygon style="clip-path:url(#SVGID_00000181773075175646536940000005033007985606486448_);fill:#F24F25;" points="
					927.18,2905.43 931.23,2903.27 1163.29,3339.68 1158.09,3339.68 				"/>
				<polygon style="clip-path:url(#SVGID_00000181773075175646536940000005033007985606486448_);fill:#F25025;" points="
					931.23,2903.27 935.28,2901.12 1168.49,3339.68 1163.29,3339.68 				"/>
				<polygon style="clip-path:url(#SVGID_00000181773075175646536940000005033007985606486448_);fill:#F25125;" points="
					935.28,2901.12 939.33,2898.96 1173.68,3339.68 1168.49,3339.68 				"/>
				<polygon style="clip-path:url(#SVGID_00000181773075175646536940000005033007985606486448_);fill:#F25225;" points="
					939.33,2898.96 943.38,2896.81 1178.88,3339.68 1173.68,3339.68 				"/>
				<polygon style="clip-path:url(#SVGID_00000181773075175646536940000005033007985606486448_);fill:#F25325;" points="
					943.38,2896.81 947.43,2894.66 1182.96,3337.57 1179,3339.68 1178.88,3339.68 				"/>
				
					<rect x="1064.93" y="2864.21" transform="matrix(0.8829 -0.4695 0.4695 0.8829 -1337.5601 865.717)" style="clip-path:url(#SVGID_00000181773075175646536940000005033007985606486448_);fill:#F25425;" width="4.59" height="501.64"/>
				
					<rect x="1068.98" y="2862.06" transform="matrix(0.8829 -0.4695 0.4695 0.8829 -1336.1177 867.4131)" style="clip-path:url(#SVGID_00000181773075175646536940000005033007985606486448_);fill:#F25525;" width="4.59" height="501.64"/>
				
					<rect x="1073.03" y="2859.91" transform="matrix(0.8829 -0.4695 0.4695 0.8829 -1334.5887 869.0167)" style="clip-path:url(#SVGID_00000181773075175646536940000005033007985606486448_);fill:#F25625;" width="4.59" height="501.64"/>
				
					<rect x="1077.08" y="2857.75" transform="matrix(0.8829 -0.4695 0.4695 0.8829 -1333.1406 870.7069)" style="clip-path:url(#SVGID_00000181773075175646536940000005033007985606486448_);fill:#F25725;" width="4.59" height="501.64"/>
				
					<rect x="1081.13" y="2855.6" transform="matrix(0.8829 -0.4695 0.4695 0.8829 -1331.666 872.3688)" style="clip-path:url(#SVGID_00000181773075175646536940000005033007985606486448_);fill:#F35825;" width="4.59" height="501.64"/>
				
					<rect x="1085.18" y="2853.44" transform="matrix(0.8829 -0.4695 0.4695 0.8829 -1330.1545 873.9909)" style="clip-path:url(#SVGID_00000181773075175646536940000005033007985606486448_);fill:#F35925;" width="4.59" height="501.64"/>
				
					<rect x="1089.23" y="2851.29" transform="matrix(0.8829 -0.4695 0.4695 0.8829 -1328.689 875.6625)" style="clip-path:url(#SVGID_00000181773075175646536940000005033007985606486448_);fill:#F35A25;" width="4.59" height="501.64"/>
				
					<rect x="1093.29" y="2849.13" transform="matrix(0.8829 -0.4695 0.4695 0.8829 -1327.1604 877.2658)" style="clip-path:url(#SVGID_00000181773075175646536940000005033007985606486448_);fill:#F35C25;" width="4.59" height="501.64"/>
				
					<rect x="1097.34" y="2846.98" transform="matrix(0.8829 -0.4695 0.4695 0.8829 -1325.7175 878.9623)" style="clip-path:url(#SVGID_00000181773075175646536940000005033007985606486448_);fill:#F35D25;" width="4.59" height="501.64"/>
				
					<rect x="1101.39" y="2844.83" transform="matrix(0.8829 -0.4695 0.4695 0.8829 -1324.2317 880.6122)" style="clip-path:url(#SVGID_00000181773075175646536940000005033007985606486448_);fill:#F35E26;" width="4.59" height="501.64"/>
				
					<rect x="1105.44" y="2842.67" transform="matrix(0.8829 -0.4695 0.4695 0.8829 -1322.7034 882.2153)" style="clip-path:url(#SVGID_00000181773075175646536940000005033007985606486448_);fill:#F35F26;" width="4.59" height="501.64"/>
				
					<rect x="1109.49" y="2840.52" transform="matrix(0.8829 -0.4695 0.4695 0.8829 -1321.2603 883.9119)" style="clip-path:url(#SVGID_00000181773075175646536940000005033007985606486448_);fill:#F36026;" width="4.59" height="501.64"/>
				
					<rect x="1113.54" y="2838.36" transform="matrix(0.8829 -0.4695 0.4695 0.8829 -1319.7264 885.5087)" style="clip-path:url(#SVGID_00000181773075175646536940000005033007985606486448_);fill:#F46126;" width="4.59" height="501.64"/>
				
					<rect x="1117.59" y="2836.21" transform="matrix(0.8829 -0.4695 0.4695 0.8829 -1318.2887 887.2117)" style="clip-path:url(#SVGID_00000181773075175646536940000005033007985606486448_);fill:#F46226;" width="4.59" height="501.64"/>
				
					<rect x="1121.64" y="2834.05" transform="matrix(0.8829 -0.4695 0.4695 0.8829 -1316.803 888.8616)" style="clip-path:url(#SVGID_00000181773075175646536940000005033007985606486448_);fill:#F46426;" width="4.59" height="501.64"/>
				
					<rect x="1125.7" y="2831.9" transform="matrix(0.8829 -0.4695 0.4695 0.8829 -1315.275 890.4644)" style="clip-path:url(#SVGID_00000181773075175646536940000005033007985606486448_);fill:#F46526;" width="4.59" height="501.64"/>
				
					<rect x="1129.75" y="2829.75" transform="matrix(0.8829 -0.4695 0.4695 0.8829 -1313.8315 892.1613)" style="clip-path:url(#SVGID_00000181773075175646536940000005033007985606486448_);fill:#F46626;" width="4.59" height="501.64"/>
				
					<rect x="1133.8" y="2827.59" transform="matrix(0.8829 -0.4695 0.4695 0.8829 -1312.3037 893.7641)" style="clip-path:url(#SVGID_00000181773075175646536940000005033007985606486448_);fill:#F46726;" width="4.59" height="501.64"/>
				
					<rect x="1137.85" y="2825.44" transform="matrix(0.8829 -0.4695 0.4695 0.8829 -1310.86 895.4611)" style="clip-path:url(#SVGID_00000181773075175646536940000005033007985606486448_);fill:#F46826;" width="4.59" height="501.64"/>
				
					<rect x="1141.9" y="2823.28" transform="matrix(0.8829 -0.4695 0.4695 0.8829 -1309.3743 897.111)" style="clip-path:url(#SVGID_00000181773075175646536940000005033007985606486448_);fill:#F46A26;" width="4.59" height="501.64"/>
				
					<rect x="1145.95" y="2821.13" transform="matrix(0.8829 -0.4695 0.4695 0.8829 -1307.8467 898.7136)" style="clip-path:url(#SVGID_00000181773075175646536940000005033007985606486448_);fill:#F56B26;" width="4.59" height="501.64"/>
				
					<rect x="1150" y="2818.98" transform="matrix(0.8829 -0.4695 0.4695 0.8829 -1306.4028 900.4107)" style="clip-path:url(#SVGID_00000181773075175646536940000005033007985606486448_);fill:#F56C26;" width="4.59" height="501.64"/>
				
					<rect x="1154.05" y="2816.82" transform="matrix(0.8829 -0.4695 0.4695 0.8829 -1304.8754 902.0132)" style="clip-path:url(#SVGID_00000181773075175646536940000005033007985606486448_);fill:#F56D26;" width="4.59" height="501.64"/>
				
					<rect x="1158.11" y="2814.67" transform="matrix(0.8829 -0.4695 0.4695 0.8829 -1303.4313 903.7105)" style="clip-path:url(#SVGID_00000181773075175646536940000005033007985606486448_);fill:#F56F26;" width="4.59" height="501.64"/>
				
					<rect x="1162.16" y="2812.51" transform="matrix(0.8829 -0.4695 0.4695 0.8829 -1301.9456 905.3604)" style="clip-path:url(#SVGID_00000181773075175646536940000005033007985606486448_);fill:#F57026;" width="4.59" height="501.64"/>
				
					<rect x="1166.21" y="2810.36" transform="matrix(0.8829 -0.4695 0.4695 0.8829 -1300.4183 906.9627)" style="clip-path:url(#SVGID_00000181773075175646536940000005033007985606486448_);fill:#F57126;" width="4.59" height="501.64"/>
				
					<rect x="1170.26" y="2808.2" transform="matrix(0.8829 -0.4695 0.4695 0.8829 -1298.9741 908.6602)" style="clip-path:url(#SVGID_00000181773075175646536940000005033007985606486448_);fill:#F57226;" width="4.59" height="501.64"/>
				
					<rect x="1174.31" y="2806.05" transform="matrix(0.8829 -0.4695 0.4695 0.8829 -1297.447 910.2624)" style="clip-path:url(#SVGID_00000181773075175646536940000005033007985606486448_);fill:#F67426;" width="4.59" height="501.64"/>
				
					<rect x="1178.36" y="2803.9" transform="matrix(0.8829 -0.4695 0.4695 0.8829 -1296.0026 911.9599)" style="clip-path:url(#SVGID_00000181773075175646536940000005033007985606486448_);fill:#F67526;" width="4.59" height="501.64"/>
				
					<rect x="1182.41" y="2801.74" transform="matrix(0.8829 -0.4695 0.4695 0.8829 -1294.5168 913.6097)" style="clip-path:url(#SVGID_00000181773075175646536940000005033007985606486448_);fill:#F67626;" width="4.59" height="501.64"/>
				
					<rect x="1186.46" y="2799.59" transform="matrix(0.8829 -0.4695 0.4695 0.8829 -1292.99 915.2119)" style="clip-path:url(#SVGID_00000181773075175646536940000005033007985606486448_);fill:#F67726;" width="4.59" height="501.64"/>
				
					<rect x="1190.51" y="2797.43" transform="matrix(0.8829 -0.4695 0.4695 0.8829 -1291.5454 916.9095)" style="clip-path:url(#SVGID_00000181773075175646536940000005033007985606486448_);fill:#F67926;" width="4.59" height="501.64"/>
				
					<rect x="1194.57" y="2795.28" transform="matrix(0.8829 -0.4695 0.4695 0.8829 -1290.0187 918.5115)" style="clip-path:url(#SVGID_00000181773075175646536940000005033007985606486448_);fill:#F67A26;" width="4.59" height="501.64"/>
				
					<rect x="1198.62" y="2793.12" transform="matrix(0.8829 -0.4695 0.4695 0.8829 -1288.574 920.2093)" style="clip-path:url(#SVGID_00000181773075175646536940000005033007985606486448_);fill:#F67B26;" width="4.59" height="501.64"/>
				
					<rect x="1202.67" y="2790.97" transform="matrix(0.8829 -0.4695 0.4695 0.8829 -1287.0881 921.8592)" style="clip-path:url(#SVGID_00000181773075175646536940000005033007985606486448_);fill:#F77D26;" width="4.59" height="501.64"/>
				
					<rect x="1206.72" y="2788.82" transform="matrix(0.8829 -0.4695 0.4695 0.8829 -1285.5616 923.4611)" style="clip-path:url(#SVGID_00000181773075175646536940000005033007985606486448_);fill:#F77E26;" width="4.59" height="501.64"/>
				
					<rect x="1210.77" y="2786.66" transform="matrix(0.8829 -0.4695 0.4695 0.8829 -1284.1167 925.1589)" style="clip-path:url(#SVGID_00000181773075175646536940000005033007985606486448_);fill:#F77F26;" width="4.59" height="501.64"/>
				
					<rect x="1214.82" y="2784.51" transform="matrix(0.8829 -0.4695 0.4695 0.8829 -1282.5903 926.7607)" style="clip-path:url(#SVGID_00000181773075175646536940000005033007985606486448_);fill:#F78126;" width="4.59" height="501.64"/>
				
					<rect x="1218.87" y="2782.35" transform="matrix(0.8829 -0.4695 0.4695 0.8829 -1281.1453 928.4587)" style="clip-path:url(#SVGID_00000181773075175646536940000005033007985606486448_);fill:#F78226;" width="4.59" height="501.64"/>
				
					<rect x="1222.92" y="2780.2" transform="matrix(0.8829 -0.4695 0.4695 0.8829 -1279.6594 930.1086)" style="clip-path:url(#SVGID_00000181773075175646536940000005033007985606486448_);fill:#F78426;" width="4.59" height="501.64"/>
				
					<rect x="1226.98" y="2778.04" transform="matrix(0.8829 -0.4695 0.4695 0.8829 -1278.1333 931.7102)" style="clip-path:url(#SVGID_00000181773075175646536940000005033007985606486448_);fill:#F78526;" width="4.59" height="501.64"/>
				
					<rect x="1231.03" y="2775.89" transform="matrix(0.8829 -0.4695 0.4695 0.8829 -1276.688 933.4083)" style="clip-path:url(#SVGID_00000181773075175646536940000005033007985606486448_);fill:#F88626;" width="4.59" height="501.64"/>
				
					<rect x="1235.08" y="2773.74" transform="matrix(0.8829 -0.4695 0.4695 0.8829 -1275.162 935.0098)" style="clip-path:url(#SVGID_00000181773075175646536940000005033007985606486448_);fill:#F88826;" width="4.59" height="501.64"/>
				
					<rect x="1239.13" y="2771.58" transform="matrix(0.8829 -0.4695 0.4695 0.8829 -1273.7166 936.7081)" style="clip-path:url(#SVGID_00000181773075175646536940000005033007985606486448_);fill:#F88927;" width="4.59" height="501.64"/>
				
					<rect x="1243.18" y="2769.43" transform="matrix(0.8829 -0.4695 0.4695 0.8829 -1272.2307 938.358)" style="clip-path:url(#SVGID_00000181773075175646536940000005033007985606486448_);fill:#F88A27;" width="4.59" height="501.64"/>
				
					<rect x="1247.23" y="2767.27" transform="matrix(0.8829 -0.4695 0.4695 0.8829 -1270.705 939.9594)" style="clip-path:url(#SVGID_00000181773075175646536940000005033007985606486448_);fill:#F88C27;" width="4.59" height="501.64"/>
				
					<rect x="1251.28" y="2765.12" transform="matrix(0.8829 -0.4695 0.4695 0.8829 -1269.2593 941.6577)" style="clip-path:url(#SVGID_00000181773075175646536940000005033007985606486448_);fill:#F88D27;" width="4.59" height="501.64"/>
				
					<rect x="1255.33" y="2762.96" transform="matrix(0.8829 -0.4695 0.4695 0.8829 -1267.7336 943.259)" style="clip-path:url(#SVGID_00000181773075175646536940000005033007985606486448_);fill:#F98F27;" width="4.59" height="501.64"/>
				
					<rect x="1259.39" y="2760.81" transform="matrix(0.8829 -0.4695 0.4695 0.8829 -1266.2878 944.9575)" style="clip-path:url(#SVGID_00000181773075175646536940000005033007985606486448_);fill:#F99027;" width="4.59" height="501.64"/>
				
					<rect x="1263.44" y="2758.66" transform="matrix(0.8829 -0.4695 0.4695 0.8829 -1264.802 946.6074)" style="clip-path:url(#SVGID_00000181773075175646536940000005033007985606486448_);fill:#F99227;" width="4.59" height="501.64"/>
				
					<rect x="1267.49" y="2756.5" transform="matrix(0.8829 -0.4695 0.4695 0.8829 -1263.2767 948.2085)" style="clip-path:url(#SVGID_00000181773075175646536940000005033007985606486448_);fill:#F99327;" width="4.59" height="501.64"/>
				
					<rect x="1271.54" y="2754.35" transform="matrix(0.8829 -0.4695 0.4695 0.8829 -1261.8306 949.9071)" style="clip-path:url(#SVGID_00000181773075175646536940000005033007985606486448_);fill:#F99427;" width="4.59" height="501.64"/>
				
					<rect x="1275.59" y="2752.19" transform="matrix(0.8829 -0.4695 0.4695 0.8829 -1260.3053 951.5082)" style="clip-path:url(#SVGID_00000181773075175646536940000005033007985606486448_);fill:#F99627;" width="4.59" height="501.64"/>
				
					<rect x="1279.64" y="2750.04" transform="matrix(0.8829 -0.4695 0.4695 0.8829 -1258.8591 953.2069)" style="clip-path:url(#SVGID_00000181773075175646536940000005033007985606486448_);fill:#F99727;" width="4.59" height="501.64"/>
				
					<rect x="1283.69" y="2747.88" transform="matrix(0.8829 -0.4695 0.4695 0.8829 -1257.334 954.8078)" style="clip-path:url(#SVGID_00000181773075175646536940000005033007985606486448_);fill:#FA9927;" width="4.59" height="501.64"/>
				
					<rect x="1287.74" y="2745.73" transform="matrix(0.8829 -0.4695 0.4695 0.8829 -1255.8876 956.5067)" style="clip-path:url(#SVGID_00000181773075175646536940000005033007985606486448_);fill:#FA9A27;" width="4.59" height="501.64"/>
				
					<rect x="1291.79" y="2743.58" transform="matrix(0.8829 -0.4695 0.4695 0.8829 -1254.4019 958.1565)" style="clip-path:url(#SVGID_00000181773075175646536940000005033007985606486448_);fill:#FA9C27;" width="4.59" height="501.64"/>
				
					<rect x="1295.85" y="2741.42" transform="matrix(0.8829 -0.4695 0.4695 0.8829 -1252.877 959.7573)" style="clip-path:url(#SVGID_00000181773075175646536940000005033007985606486448_);fill:#FA9D27;" width="4.59" height="501.64"/>
				
					<rect x="1299.9" y="2739.27" transform="matrix(0.8829 -0.4695 0.4695 0.8829 -1251.4304 961.4563)" style="clip-path:url(#SVGID_00000181773075175646536940000005033007985606486448_);fill:#FA9F27;" width="4.59" height="501.64"/>
				
					<rect x="1303.95" y="2737.11" transform="matrix(0.8829 -0.4695 0.4695 0.8829 -1249.9056 963.0569)" style="clip-path:url(#SVGID_00000181773075175646536940000005033007985606486448_);fill:#FAA027;" width="4.59" height="501.64"/>
				
					<rect x="1308" y="2734.96" transform="matrix(0.8829 -0.4695 0.4695 0.8829 -1248.4589 964.756)" style="clip-path:url(#SVGID_00000181773075175646536940000005033007985606486448_);fill:#FBA227;" width="4.59" height="501.64"/>
				
					<rect x="1312.05" y="2732.8" transform="matrix(0.8829 -0.4695 0.4695 0.8829 -1246.9731 966.4059)" style="clip-path:url(#SVGID_00000181773075175646536940000005033007985606486448_);fill:#FBA327;" width="4.59" height="501.64"/>
				<polygon style="clip-path:url(#SVGID_00000181773075175646536940000005033007985606486448_);fill:#FBA527;" points="
					1198.61,2761.09 1201.33,2759.64 1203.04,2759.64 1438.18,3201.85 1434.13,3204.01 				"/>
				<polygon style="clip-path:url(#SVGID_00000181773075175646536940000005033007985606486448_);fill:#FBA627;" points="
					1208.23,2759.64 1442.24,3199.7 1438.18,3201.85 1203.04,2759.64 				"/>
				<polygon style="clip-path:url(#SVGID_00000181773075175646536940000005033007985606486448_);fill:#FBA827;" points="
					1213.43,2759.64 1446.29,3197.54 1442.24,3199.7 1208.23,2759.64 				"/>
				<polygon style="clip-path:url(#SVGID_00000181773075175646536940000005033007985606486448_);fill:#FBAA27;" points="
					1218.63,2759.64 1450.34,3195.39 1446.29,3197.54 1213.43,2759.64 				"/>
				<polygon style="clip-path:url(#SVGID_00000181773075175646536940000005033007985606486448_);fill:#FCAB27;" points="
					1223.82,2759.64 1454.39,3193.24 1450.34,3195.39 1218.63,2759.64 				"/>
				<polygon style="clip-path:url(#SVGID_00000181773075175646536940000005033007985606486448_);fill:#FCAD27;" points="
					1229.02,2759.64 1458.44,3191.08 1454.39,3193.24 1223.82,2759.64 				"/>
				<polygon style="clip-path:url(#SVGID_00000181773075175646536940000005033007985606486448_);fill:#FCAE27;" points="
					1234.22,2759.64 1462.49,3188.93 1458.44,3191.08 1229.02,2759.64 				"/>
				<polygon style="clip-path:url(#SVGID_00000181773075175646536940000005033007985606486448_);fill:#FCB027;" points="
					1239.41,2759.64 1466.54,3186.77 1462.49,3188.93 1234.22,2759.64 				"/>
				<polygon style="clip-path:url(#SVGID_00000181773075175646536940000005033007985606486448_);fill:#FCB127;" points="
					1244.61,2759.64 1470.59,3184.62 1466.54,3186.77 1239.41,2759.64 				"/>
				<polygon style="clip-path:url(#SVGID_00000181773075175646536940000005033007985606486448_);fill:#FCB327;" points="
					1249.81,2759.64 1472.62,3178.67 1472.62,3183.54 1470.59,3184.62 1244.61,2759.64 				"/>
				<polygon style="clip-path:url(#SVGID_00000181773075175646536940000005033007985606486448_);fill:#FDB528;" points="
					1255,2759.64 1472.62,3168.89 1472.62,3178.67 1249.81,2759.64 				"/>
				<polygon style="clip-path:url(#SVGID_00000181773075175646536940000005033007985606486448_);fill:#FDB628;" points="
					1260.2,2759.64 1472.62,3159.12 1472.62,3168.89 1255,2759.64 				"/>
				<polygon style="clip-path:url(#SVGID_00000181773075175646536940000005033007985606486448_);fill:#FDB828;" points="
					1265.4,2759.64 1472.62,3149.35 1472.62,3159.12 1260.2,2759.64 				"/>
				<polygon style="clip-path:url(#SVGID_00000181773075175646536940000005033007985606486448_);fill:#FDB928;" points="
					1270.59,2759.64 1472.62,3139.57 1472.62,3149.35 1265.4,2759.64 				"/>
				<polygon style="clip-path:url(#SVGID_00000181773075175646536940000005033007985606486448_);fill:#FDBB28;" points="
					1275.79,2759.64 1472.62,3129.8 1472.62,3139.57 1270.59,2759.64 				"/>
				<polygon style="clip-path:url(#SVGID_00000181773075175646536940000005033007985606486448_);fill:#FEBD28;" points="
					1280.99,2759.64 1472.62,3120.03 1472.62,3129.8 1275.79,2759.64 				"/>
				<polygon style="clip-path:url(#SVGID_00000181773075175646536940000005033007985606486448_);fill:#FEBE28;" points="
					1286.18,2759.64 1472.62,3110.26 1472.62,3120.03 1280.99,2759.64 				"/>
				<polygon style="clip-path:url(#SVGID_00000181773075175646536940000005033007985606486448_);fill:#FEC028;" points="
					1291.38,2759.64 1472.62,3100.48 1472.62,3110.26 1286.18,2759.64 				"/>
				<polygon style="clip-path:url(#SVGID_00000181773075175646536940000005033007985606486448_);fill:#FEC228;" points="
					1296.58,2759.64 1472.62,3090.71 1472.62,3100.48 1291.38,2759.64 				"/>
				<polygon style="clip-path:url(#SVGID_00000181773075175646536940000005033007985606486448_);fill:#FEC328;" points="
					1301.77,2759.64 1472.62,3080.94 1472.62,3090.71 1296.58,2759.64 				"/>
				<polygon style="clip-path:url(#SVGID_00000181773075175646536940000005033007985606486448_);fill:#FEC528;" points="
					1306.97,2759.64 1472.62,3071.17 1472.62,3080.94 1301.77,2759.64 				"/>
				<polygon style="clip-path:url(#SVGID_00000181773075175646536940000005033007985606486448_);fill:#FFC728;" points="
					1312.17,2759.64 1472.62,3061.39 1472.62,3071.17 1306.97,2759.64 				"/>
				<polygon style="clip-path:url(#SVGID_00000181773075175646536940000005033007985606486448_);fill:#FFC828;" points="
					1317.36,2759.64 1472.62,3051.62 1472.62,3061.39 1312.17,2759.64 				"/>
				<polygon style="clip-path:url(#SVGID_00000181773075175646536940000005033007985606486448_);fill:#FFCA28;" points="
					1322.56,2759.64 1472.62,3041.85 1472.62,3051.62 1317.36,2759.64 				"/>
				<polygon style="clip-path:url(#SVGID_00000181773075175646536940000005033007985606486448_);fill:#FFCA28;" points="
					1472.62,3041.85 1322.56,2759.64 1472.62,2759.64 				"/>
			</g>
		</g>
		<g class="st144">
			<g>
				<path class="st145" d="M825.61,3220.1c140.53-121.89,119.48-264.29,273.65-331.2c192.93-83.73,322.4,105.22,322.4,105.22
					s4.51,20.39,5.52,51.15c5.2-54.54-4.13-96.68-4.13-96.68s-129.46-188.95-322.4-105.22c-192.94,83.73-111.41,285.7-415.65,417.74
					C737.51,3238.32,783.86,3225.75,825.61,3220.1z"/>
			</g>
		</g>
		<g class="st146">
			<path class="st147" d="M1419.46,3090.92c-22.49,35.73-56.83,68.42-108.78,90.96c-159.57,69.25-253.88-62.83-453.86-35.87
				c-38.65,40.92-91.92,80.43-171.83,115.11c304.25-132.04,401.77,78.56,594.7-5.17
				C1366.58,3218.24,1404.26,3152.16,1419.46,3090.92z"/>
		</g>
		<g>
			<path class="st148" d="M925.89,3161.19c177.13-76.87,296.98,45.68,409.3-3.07c112.32-48.75,71.73-205.95,71.73-205.95
				s-87.09-137.02-199.42-88.27C1095.18,2912.65,1103.02,3084.32,925.89,3161.19z"/>
		</g>
		<g>
			<path class="st147" d="M1182.62,3293.09c-47.52,0-91.91-12.83-137.82-26.1c-92.89-26.85-198.17-57.26-362.12,13.89
				c-8.32,3.61-17.98-0.21-21.59-8.53c-0.92-2.12-1.36-4.34-1.36-6.52c0-6.34,3.7-12.38,9.89-15.07
				c164.18-71.25,215.43-165.47,260.64-248.6c37.61-69.15,73.14-134.47,163.86-173.84c84.18-36.54,170.3-28.75,249.04,22.51
				c58.55,38.11,92.04,86.45,93.44,88.49c1.19,1.73,2.03,3.67,2.48,5.72c0.54,2.41,12.97,59.89,0.82,128.68
				c-16.34,92.52-69.47,160.74-153.65,197.28C1249.24,3287.05,1215.19,3293.08,1182.62,3293.09z M875.87,3203.76
				c68.41,0,125.12,16.39,178.04,31.68c74.65,21.57,139.13,40.2,219.24,5.44c166.56-72.29,139.21-259.36,134.45-285.66
				c-16.58-22.71-132.37-169.74-300.43-96.79c-80.34,34.87-111.74,92.58-148.08,159.41c-33.77,62.09-70.72,130.03-151.22,191.29
				C831.85,3205.38,854.43,3203.76,875.87,3203.76z"/>
		</g>
	</g>
	<g>
		<path class="st145" d="M2416.98,1963.25c0,0,213.27,89.62,249.42,145.03s-96.39,56.76-96.39,56.76"/>
	</g>
	<g>
		<path class="st147" d="M2570.01,2183.97c-5.92,0-11.5-2.77-15.09-7.49l-153.03-201.78c-5.18-6.83-5.12-16.28,0.13-23.05
			c5.25-6.77,14.39-9.17,22.29-5.85c22.38,9.4,219.72,93.56,257.94,152.14c13.42,20.57,9.97,36.6,4.71,46.43
			c-19.17,35.84-94.22,39.38-116.77,39.61C2570.14,2183.97,2570.07,2183.97,2570.01,2183.97z M2476.86,2010.87l102.34,134.95
			c35.44-1.68,69.55-10.3,74.38-19.33c0.46-0.86-0.45-3.91-3.04-7.87C2632.45,2090.9,2550.54,2045.86,2476.86,2010.87z"/>
	</g>
	<g>
		<g>
			<path class="st145" d="M1521.7,1493.36c-82.85,62.09-158.76,357.73-139.57,533.97c19.19,176.24,330.71,189.44,508.87,183.72
				c178.16-5.72,177.54-408.54,175.2-516.45C2062.56,1526.1,1644.46,1401.35,1521.7,1493.36z"/>
		</g>
		<g class="st149">
			<path class="st147" d="M1891.01,2211.05c-178.16,5.72-489.67-7.5-508.89-183.73c-2.49-23.08-3.39-48.19-2.82-74.57
				c49.2,38.68,117.75,4.26,126.02-43.04c51.04-291.97,159.77-404.02,212.36-442.37c160.28,22.46,346.12,115.16,348.5,227.27
				C2068.56,1802.5,2069.16,2205.33,1891.01,2211.05z"/>
		</g>
		<g>
			<path class="st147" d="M1828.9,2231c-215.28,0-447.83-38.47-465.6-201.63c-18.56-170.5,52.08-480,147.04-551.17
				c84.2-63.11,278.44-32.99,410.13,31.11c104.71,50.97,163.18,116.62,164.66,184.88c4.27,197.64-15.18,530.06-193.53,535.78
				C1871.02,2230.63,1850.04,2231,1828.9,2231z M1648.11,1480.85c-49.01,0-90.11,8.95-115.05,27.65l0,0
				c-76.5,57.33-150.58,347.11-132.1,516.77c17.23,158.28,314.05,172.47,489.44,166.85c155.44-4.99,159.38-381.76,156.88-497.11
				c-1.14-52.58-53.4-107.85-143.38-151.65C1820.32,1502.67,1724.59,1480.85,1648.11,1480.85z M1521.7,1493.35h0.05H1521.7z"/>
		</g>
		<g>
			<path class="st145" d="M1539.2,1789.05l-79.07-31.52c-17.87-7.12-37.98,2.99-42.81,21.62c-16.61,64.07-42.19,196.88,22.28,224.07
				c78.14,32.95,105.83-57.19,119.57-181.02C1560.75,1807.92,1552.53,1794.37,1539.2,1789.05z"/>
		</g>
		<g class="st149">
			<path class="st147" d="M1559.01,1821.99c-13.44,123.87-40.94,214.09-119.14,181.29c-32.13-13.42-41.99-53.13-41.74-97.49
				c6.52,12.7,15.86,22.53,28.94,27.99c70.02,29.33,99.43-39.92,114.39-143.7C1553.37,1795.9,1560.5,1808.65,1559.01,1821.99z"/>
		</g>
		<g>
			<path class="st147" d="M1470.01,2027.6c-11.58,0-23.9-2.72-36.89-8.16c-71.47-29.94-57.38-149.49-32.98-244.51
				c3.52-13.72,12.79-25.28,25.42-31.71c12.67-6.45,27.52-7.15,40.73-1.92l79.14,31.34c20.64,8.17,33.39,29.25,31,51.25
				c-12.36,113.8-33.83,171.91-71.8,194.31C1494,2024.47,1482.43,2027.6,1470.01,2027.6z M1448.02,1772.8
				c-2.25,0-4.49,0.54-6.58,1.6c-2.16,1.1-6,3.77-7.41,9.23c-22.22,86.52-30.58,185.43,12.6,203.52c16.42,6.88,29.57,7.17,40.21,0.9
				c39.05-23.03,50.9-132.1,54.79-167.94c0.7-6.4-3.04-12.54-9.09-14.93l-79.14-31.34
				C1451.65,1773.14,1449.83,1772.8,1448.02,1772.8z"/>
		</g>
		<g>
			<path class="st147" d="M1510.12,1493.75l93.16,43.03c30.99,14.57,61.91,28.96,92.71,44.63c4.66,2.37,6.52,8.08,4.15,12.74
				c-2.23,4.39-7.41,6.29-11.9,4.53l-0.16-0.06c-31.38-12.46-63.59-23.99-95.62-35.57l-96.44-34.14l-0.17-0.06
				c-9.87-3.49-15.04-14.33-11.54-24.2c3.5-9.87,14.33-15.04,24.2-11.54C1509.04,1493.28,1509.6,1493.51,1510.12,1493.75z"/>
		</g>
	</g>
	<g>
		<path class="st145" d="M2941.38,1436.75c-30.72,104.8-264.03,298.87-598.73,308.57c-32.38,0.99-65.7,0.19-99.87-2.56
			l-29.87-127.57l-23.9-102.1c0,0,51.97-9.47,123.02-28.35c56.14-14.86,124.16-35.6,187.92-62.1
			c60.11-24.99,116.49-55.14,155.4-90.41c0,0,2.13-104.99,31.9-115.68c36.35-13.06,63.29,60.78,63.29,60.78
			s82.65-85.06,130.88-76.82C2953.12,1212.72,2975.13,1321.82,2941.38,1436.75z"/>
	</g>
	<g class="st150">
		<path class="st147" d="M2956.44,1351.08c-1.42,27.17-6.44,56.23-15.05,85.68c-33.7,114.93-311.03,337.26-698.6,306.01
			l-53.77-229.66c0,0,16.14-2.93,42.7-8.8l62.84,121.73C2614.67,1722.47,2903.85,1469.32,2956.44,1351.08z"/>
	</g>
	<g>
		<path class="st147" d="M2316.31,1764.68c-24.55,0-49.53-0.98-75.02-3.03c-10.42-0.84-18.19-9.97-17.35-20.39
			c0.84-10.42,10.01-18.19,20.39-17.35c382.24,30.79,649.13-191.07,678.9-292.51c21.25-72.4,19.17-144.5-5.3-183.67
			c-10.11-16.19-23.46-25.8-39.68-28.56c-26.44-4.51-82.66,39.03-114.13,71.38l-21.03,21.62l-10.33-28.33
			c-8.33-22.67-27.47-53.02-38.8-49.56c-9.39,6.7-18.75,53.34-19.69,98.34l-0.17,8.16l-6.05,5.48
			c-134.86,122.14-461.77,182.95-475.62,185.48c-10.28,1.87-20.15-4.94-22.03-15.22c-1.88-10.29,4.94-20.15,15.22-22.03
			c3.24-0.59,320.2-59.55,451.03-171.05c1.48-38.84,9-112.03,44.19-124.69c35.72-12.88,61.71,20.71,75.77,46.5
			c30.29-27.49,85.64-70.61,128-63.4c26.95,4.59,49.57,20.44,65.44,45.83c30.4,48.66,34.04,130.81,9.51,214.39
			C2925.2,1559.14,2671.95,1764.66,2316.31,1764.68z M2694.12,1234.16"/>
	</g>
	<g>
		<path class="st145" d="M2593.91,2196.51c0,0-468.66,181.24-633.09,168.27c-164.39-12.97-341.47-39-351.17-350.89
			c-6.01-193.88,89.89-384.64,163.35-501.17c44.73-71,81.13-114.5,81.13-114.5l452.51,23.1c0,0,1.75,23.86,5.4,63.43
			c2.27,24.71,5.3,55.52,9.14,90.46c5.49,50.17,12.59,108.82,21.49,170.12c13.63,93.91,31.48,193.98,53.96,279.08
			C2406.32,2061.23,2560.82,2071.31,2593.91,2196.51z"/>
	</g>
	<g>
		<path class="st147" d="M2332.47,1619.06c16.93,55.2,26.63,111,36.44,166.76c9.94,55.71,18.83,111.53,30.34,166.7
			c2.93,13.78,6.05,27.5,9.27,41.19l5.04,20.46l1.28,5.11l0.08,0.31l0.02-0.06l0.01-0.13c0-0.08-0.03-0.16-0.07-0.23
			c-0.04-0.06-0.12-0.13-0.17-0.16c0.06,0.02,0.1,0.05,0.14,0.08c0.09,0.07,0.05,0.13,0.14,0.29c0.26,0.22,0.49,0.46,0.71,0.71
			c0.23,0.46,1.42,1.22,2.07,1.88c3.55,2.87,9.16,6.04,14.93,8.98c5.82,2.98,12.1,5.86,18.51,8.78
			c12.81,5.81,26.13,11.76,39.32,18.43c26.33,13.28,52.71,29.51,74.79,51.96c11.01,11.16,20.85,23.8,28.8,37.61
			c7.97,13.79,14.02,28.69,18.11,43.95l4.41,16.45l-15.89,6.05c-74.52,28.37-149.32,54.68-224.96,79.4
			c-75.63,24.58-151.91,47.49-229.83,65.89c-39.01,9.06-78.34,17.23-118.97,21.8c-20.3,2.31-40.88,3.85-62.45,2.62
			c-5.53-0.15-10.27-0.67-15.29-1.05l-14.94-1.3c-9.97-0.91-19.98-1.88-30.01-3.08c-40.04-4.7-80.76-11.8-120.14-26.3
			c-19.64-7.25-38.86-16.42-56.84-27.9c-17.98-11.46-34.65-25.26-49.24-40.95c-14.59-15.71-26.91-33.33-37.17-51.81
			c-10.22-18.5-18.7-37.85-25-57.67l-2.5-7.4l-2.1-7.48l-4.13-14.97l-3.39-15.08l-1.67-7.54l-1.33-7.58l-2.65-15.16
			c-0.79-5.06-1.35-10.13-2.03-15.19c-1.47-10.13-2.32-20.26-3.17-30.4c-3.37-40.31-3.27-81.63,1.06-122.09
			c4.23-40.53,12.11-80.48,22.68-119.55c21.16-78.22,53.12-152.67,90.74-223.61c18.81-35.46,37.61-71.09,60.44-104.18
			c22.84-33.02,48.11-64.58,81.38-89.4c2.87-2.14,6.93-1.55,9.07,1.32c1.46,1.96,1.65,4.47,0.71,6.55l-0.11,0.24
			c-16.63,36.68-36.93,70.02-57.54,103.16c-20.27,33.33-42.15,65.72-60.47,100.2c-36.7,68.79-67.43,140.89-87.68,215.65
			c-10.11,37.35-17.58,75.33-21.56,113.57c-4.08,38.29-4.19,76.49-0.99,115.08c0.81,9.59,1.6,19.19,2.99,28.65
			c0.64,4.74,1.16,9.52,1.9,14.24l2.47,14.09l1.23,7.05l1.55,6.95l3.12,13.89l3.77,13.65l1.9,6.82l2.26,6.66
			c5.67,17.93,13.23,35.01,22.13,51.14c8.94,16.1,19.48,31.16,31.86,44.49c24.71,26.73,56.43,46.28,91.43,59.08
			c35.03,12.93,72.9,19.71,111.39,24.2c9.62,1.15,19.33,2.1,29.06,2.98l14.64,1.27c4.84,0.37,9.96,0.91,14.33,0.98
			c4.57,0.08,8.97,0.58,13.67,0.36l13.97-0.33c9.45-0.72,18.87-1.23,28.42-2.47c38.1-4.27,76.46-12.18,114.54-21.04
			c76.23-18,151.78-40.66,226.74-65.03c74.89-24.47,149.54-50.73,223.02-78.71l-11.47,22.5c-6.49-24.48-19.26-46.54-37.25-64.65
			c-17.9-18.26-40.54-32.5-64.9-44.76c-12.19-6.18-24.86-11.84-37.95-17.78c-6.53-2.97-13.19-6.02-20.03-9.51
			c-6.85-3.57-13.84-7.19-21.44-13.19c-1.96-1.74-3.77-2.99-5.79-5.3l-2.89-3.22c-0.97-1.26-1.93-2.73-2.83-4.13
			c-1.8-2.37-3.42-7.1-4.31-9.89l-1.36-5.23l-5.44-20.91c-3.48-13.96-6.85-27.93-10.01-41.94c-6.39-27.99-12.52-56.02-17.9-84.16
			c-5.42-28.13-9.92-56.4-13.92-84.72c-7.82-56.65-13.19-113.66-9.66-171.44c0.22-3.54,3.26-6.23,6.79-6.01
			C2329.47,1614.69,2331.7,1616.58,2332.47,1619.06z"/>
	</g>
	<g>
		<path class="st151" d="M1655.07,3149.39l-81.1,12.62c-36.69,5.71-73.55-9.19-95.97-38.79l0,0
			c-66.77-88.14-108.14-192.87-119.64-302.85v0c-3.86-36.93,12.87-73,43.55-93.91l67.83-46.22"/>
	</g>
	<g class="st152">
		<g>
			<path class="st145" d="M1484.15,2726.74l-67.17,45.77c-16.93,11.54-30.04,27.28-38.4,45.25c-8.32,17.96-11.9,38.16-9.74,58.58
				c1.64,15.75,3.86,31.42,6.61,46.97c-8.1-30.39-13.83-61.46-17.11-92.96c-1.94-18.44,1.27-36.72,8.84-52.98
				c7.5-16.24,19.36-30.45,34.71-40.93l67.84-46.21L1484.15,2726.74z"/>
		</g>
	</g>
	<g>
		<g class="st150">
			<path class="st147" d="M1409.45,2989.12C1409.45,2989.12,1409.45,2989.12,1409.45,2989.12c16.54,32.96,36.1,64.48,58.54,94.11
				c22.41,29.6,59.27,44.49,95.97,38.77l75.63-11.77l-169.86-429.99l-14.48,9.87l125.94,318.76l-81.13,12.63
				C1466.16,3026.78,1432.11,3014.42,1409.45,2989.12z M1565.72,2969.72l-110.48-279.61l4.57-3.12l111.37,281.88L1565.72,2969.72z"
				/>
		</g>
	</g>
	<g>
		<path class="st153" d="M1669.4,2555.64c-42.16-82.6-186.63-191.9-470.81-11.58c-3.73,2.37-2.6,8.12,1.74,8.89
			c47.29,8.43,269.75,46.33,310.48,162.02"/>
	</g>
	<g class="st152">
		<g>
			<path class="st145" d="M1246.45,2556.83c-20.39-4.36-36.73-7.2-46.1-8.88c-4.36-0.78-5.47-6.51-1.75-8.88
				c284.19-180.34,428.65-71.03,470.81,11.58l-17.18,17.25C1597.72,2497.52,1469.6,2433.32,1246.45,2556.83z"/>
		</g>
	</g>
	<g>
		<path class="st147" d="M1510.81,2733.91c-7.81,0-15.12-4.87-17.86-12.65c-13.61-38.67-69.87-109.49-293.7-149.27l-2.24-0.4
			c-9.73-1.74-17.24-9.13-19.15-18.83c-1.91-9.7,2.25-19.4,10.59-24.69c138.15-87.66,258.6-118.34,357.99-91.18
			c87.7,23.96,127,85,139.83,110.13c4.75,9.31,1.05,20.72-8.26,25.47c-9.32,4.75-20.72,1.05-25.47-8.26
			c-10.54-20.65-42.95-70.84-116.08-90.82c-80.26-21.94-182.31,1.5-296.7,67.78c203.91,42.17,269.95,113.61,288.91,167.48
			c3.47,9.86-1.71,20.67-11.57,24.15C1515.02,2733.56,1512.9,2733.91,1510.81,2733.91z"/>
	</g>
	<g>
		<path class="st154" d="M1882.43,3094.87c25.68,89.12-3.19,272.45-333.88,335.03c-4.34,0.82-7.45-4.15-4.81-7.68
			c28.76-38.47,163.24-223.29,113.9-335.58"/>
	</g>
	<g>
		<path class="st153" d="M1548.55,3429.92c-4.35,0.79-7.44-4.16-4.8-7.7c14.71-19.71,57.18-77.81,88.47-144.91
			c29.59-63.39,49.16-134.84,25.91-189.45c-0.16-0.4-0.36-0.81-0.51-1.21l1.36,0.04l223.42,8.17c7.21,25.02,10.13,57.46,3.24,92.57
			C1868.13,3277.4,1786.44,3384.87,1548.55,3429.92z"/>
	</g>
	<g class="st150">
		<path class="st147" d="M1632.22,3277.31c29.59-63.39,49.16-134.84,25.91-189.45c0.29-0.38,0.56-0.79,0.85-1.16l223.42,8.17
			c7.21,25.02,10.13,57.46,3.24,92.57C1832.34,3232.67,1751.52,3268.2,1632.22,3277.31z"/>
	</g>
	<g>
		<path class="st147" d="M1547.56,3448.93c-8.09,0-15.67-4.12-20.1-11.21c-5.24-8.39-4.8-18.93,1.12-26.84
			c37.06-49.58,154.65-218.94,111.73-316.62c-4.21-9.58,0.14-20.74,9.72-24.95c9.57-4.2,20.74,0.14,24.95,9.72
			c43.67,99.4-39.04,244.33-94.74,324.87c127.08-29.51,216.76-82.15,260.53-153.3c42.24-68.64,28.64-132.54,23.47-150.49
			c-2.9-10.05,2.9-20.54,12.95-23.44c10.04-2.9,20.54,2.9,23.44,12.95c8.02,27.84,21.39,101.19-27.61,180.82
			c-54.21,88.11-162.2,148.02-320.95,178.06C1550.56,3448.79,1549.05,3448.93,1547.56,3448.93z M1545.03,3411.3
			c-0.01,0-0.01,0-0.02,0C1545.02,3411.3,1545.02,3411.3,1545.03,3411.3z"/>
	</g>
	<g>
		<path class="st145" d="M3218.38,2258.47c0,0-74.31,472.73-686.58,764.73c-521.62,248.74-882.26,126.19-882.26,126.19
			c-73.27-81.7-126.48-178.4-156.68-282.3c-17.51-60.35-27.26-123.12-28.64-186.88c0,0,80.09-149.95,297.54-301.61
			c7.48-5.21,15.15-10.46,22.96-15.67c84.92-56.71,189.29-112.99,316.14-160.98c29.91-11.36,61.11-22.2,93.58-32.52
			c1.28-0.43,2.56-0.8,3.83-1.18c131.02-41.32,250.92-62.06,358.79-68.97c3.46-0.24,6.86-0.43,10.27-0.62
			C2983.7,2075.38,3218.38,2258.47,3218.38,2258.47z"/>
	</g>
	<g>
		<path class="st153" d="M2906.19,2777.39c-40.68-243.26-132.33-475.25-268.9-680.68c376.01-2.51,586.57,161.76,586.57,161.76
			S3182.4,2522.25,2906.19,2777.39z"/>
	</g>
	<g class="st152">
		<g>
			<path class="st145" d="M3216.06,2287.8c5.84-21.95,7.8-34.33,7.8-34.33s-210.55-164.27-586.57-161.76
				c8.82,13.26,17.44,26.64,25.88,40.12C2981.9,2136.2,3175.95,2259.69,3216.06,2287.8z"/>
		</g>
	</g>
	<g>
		<path class="st147" d="M2893.3,2815.08l-5.78-34.56c-40.51-242.23-130-468.76-266-673.32l-19.4-29.18l35.04-0.23
			c298.05-2.06,494.89,99.86,565.72,143.74c26.67,16.52,39.09,47.98,30.92,78.27c-21.72,80.43-95.87,289.32-314.76,491.52
			L2893.3,2815.08z M2672.37,2115.9c121.82,191.24,204.56,400.68,246.32,623.51c192.08-187.7,258.54-375.41,278.55-449.49
			c3.78-14.01-1.97-28.56-14.3-36.21C3117.7,2213.29,2940.85,2121.66,2672.37,2115.9z"/>
	</g>
	<g>
		<path class="st147" d="M1897.16,3198.52c-154.61,0-244.44-29.93-248.21-31.21l-4.69-1.59l-3.31-3.69
			c-59.17-66-105.69-141.25-138.25-223.66c-32.56-82.43-50.03-169.13-51.91-257.71l-0.11-4.96l2.34-4.37
			c1.89-3.54,47.69-87.99,162.4-194.75c105.18-97.89,290.97-233.76,578.81-325.16c150.91-47.92,299.94-72.69,442.94-73.63
			l10.23-0.07l5.66,8.52c138.64,208.53,229.98,439.43,271.52,686.28l3.76,10.2l-9.27,8.63
			c-105.03,97.05-230.75,180.82-373.67,248.97c-272.59,130-501.09,157.78-644.78,158.19
			C1899.47,3198.51,1898.3,3198.52,1897.16,3198.52z M1665.68,3132.85c20.04,5.92,104.96,28.54,236.86,27.78
			c139.4-0.64,361.25-27.97,626.56-154.49c136.05-64.88,256.02-144.15,356.72-235.68c-40.7-235.08-127.67-455.23-258.63-654.7
			c-136.07,1.99-277.82,26.12-421.49,71.74c-504.38,160.16-694.17,458.95-716.91,497.55c2.35,82.26,18.87,162.78,49.15,239.4
			C1568.18,3001.06,1611.16,3071.15,1665.68,3132.85z"/>
	</g>
	<g>
		<path class="st147" d="M1558.37,3182.15c-37.17,0-72.58-17.28-95.47-47.5c-68.85-90.9-111.52-198.9-123.38-312.31
			c-4.59-43.92,15.22-86.66,51.72-111.52l67.83-46.22c8.65-5.88,20.42-3.65,26.31,4.99c5.89,8.64,3.65,20.42-4.99,26.31
			l-67.83,46.22c-24.97,17.01-38.53,46.25-35.38,76.29c11.14,106.54,51.22,207.99,115.9,293.39c18.24,24.08,48.12,36.15,77.97,31.51
			l81.1-12.62c10.33-1.56,20.01,5.47,21.62,15.8c1.61,10.33-5.47,20.01-15.8,21.62l-81.1,12.62
			C1570.69,3181.68,1564.5,3182.15,1558.37,3182.15z"/>
	</g>
	<g class="st150">
		
			<ellipse transform="matrix(0.7071 -0.7071 0.7071 0.7071 -1113.2118 2495.8118)" class="st147" cx="2456.11" cy="2591.67" rx="260.44" ry="260.44"/>
	</g>
	<g>
		<circle class="st153" cx="2461.86" cy="2559.48" r="234.2"/>
	</g>
	<g class="st152">
		<g>
			<path class="st145" d="M2692.22,2521.97c-1.6-5.08-3.38-10.11-5.35-15.12c-47.5-120.29-183.57-179.27-303.86-131.77
				c-106.05,41.88-164.46,152.56-144.25,260.61c-37.31-116.46,21.69-243.46,137.04-289.04c120.33-47.51,256.36,11.48,303.91,131.79
				C2685.35,2492.79,2689.5,2507.37,2692.22,2521.97z"/>
		</g>
	</g>
	<g class="st150">
		<path class="st147" d="M2547.89,2777.3c-120.27,47.5-256.33-11.43-303.86-131.74c-14.93-37.84-19.33-77.23-14.59-114.95
			c2.62,17.11,7.15,34.17,13.78,50.97c47.52,120.31,183.57,179.31,303.88,131.79c82.48-32.59,136.13-106.85,146.34-189.02
			C2709.58,2629.9,2651.44,2736.38,2547.89,2777.3z"/>
	</g>
	<g>
		<path class="st147" d="M2461.8,2812.76c-34.19,0-68.33-7.02-100.65-21.03c-62.04-26.9-109.88-76.35-134.72-139.24
			c-24.84-62.89-23.71-131.68,3.19-193.72c26.9-62.03,76.35-109.88,139.24-134.72c62.89-24.84,131.68-23.71,193.72,3.19
			s109.88,76.35,134.72,139.24c24.84,62.88,23.71,131.68-3.19,193.71c-26.9,62.04-76.35,109.88-139.24,134.72l0,0
			C2524.74,2806.82,2493.25,2812.76,2461.8,2812.76z M2461.91,2344.1c-26.75,0-53.52,5.05-79.14,15.17
			c-53.48,21.13-95.53,61.81-118.41,114.57s-23.84,111.26-2.71,164.74c21.13,53.48,61.81,95.53,114.57,118.41
			c52.76,22.88,111.26,23.84,164.74,2.71l0,0c53.48-21.13,95.53-61.81,118.41-114.57c22.88-52.76,23.84-111.26,2.71-164.74
			c-21.13-53.48-61.81-95.53-114.57-118.41C2520.03,2350.07,2490.99,2344.1,2461.91,2344.1z"/>
	</g>
	<g>
		
			<ellipse transform="matrix(0.7071 -0.7071 0.7071 0.7071 -1085.75 2490.5056)" class="st155" cx="2463.43" cy="2555.87" rx="149" ry="149"/>
	</g>
	<g class="st146">
		<g>
			<path class="st145" d="M2518.17,2694.47c-76.54,30.24-163.07-7.31-193.31-83.85c-6.56-16.56-9.94-33.63-10.38-50.48
				c0.54,1.56,1.13,3.1,1.74,4.69c30.24,76.54,116.77,114.09,193.31,83.85c59.98-23.68,95.98-81.92,94.23-142.83
				C2630.7,2581.17,2593.13,2664.84,2518.17,2694.47z"/>
		</g>
	</g>
	<g class="st150">
		<path class="st147" d="M2614.04,2563.56c-0.85-2.41-1.7-4.82-2.66-7.23c-30.24-76.54-116.77-114.09-193.31-83.85
			c-57.61,22.74-93.14,77.43-94.24,135.69c-25.18-74.7,12.38-156.8,86.51-186.08c76.5-30.21,163.05,7.27,193.29,83.81
			C2611.09,2524.84,2614.47,2544.41,2614.04,2563.56z"/>
	</g>
	<g>
		<path class="st147" d="M2463.39,2723.89c-22.68,0-45.33-4.66-66.77-13.95c-41.15-17.85-72.89-50.65-89.38-92.37
			c-34.02-86.12,8.36-183.86,94.48-217.88c86.12-34.03,183.86,8.36,217.89,94.48c34.02,86.12-8.37,183.86-94.49,217.88
			C2505.14,2719.95,2484.25,2723.89,2463.39,2723.89z M2463.28,2425.8c-15.87,0-32,2.92-47.63,9.1
			c-66.7,26.35-99.53,102.05-73.18,168.75c12.76,32.31,37.35,57.72,69.22,71.54c31.87,13.83,67.22,14.41,99.53,1.64l0,0
			c66.7-26.35,99.53-102.05,73.18-168.75C2564.22,2457.02,2515.12,2425.8,2463.28,2425.8z"/>
	</g>
	<g class="st156">
		<path class="st145" d="M2949.68,2236.42c-1.13-35.57-75.03-63.45-116.84-63.12c-43.31,0.34-69.36,7.8-69.55,28.76
			c-0.26,29.27,33.47,39.59,73.56,41.11C2865.21,2244.24,2951.08,2280.32,2949.68,2236.42z"/>
	</g>
	<g class="st156">
		<path class="st145" d="M3058.22,2281.35c-2.32-30.83-39.6-59.55-59.88-61.88c-21.01-2.41-33.29,2.41-32.34,20.53
			c1.33,25.3,18.23,36.33,37.77,40.14C3017.59,2282.85,3061.08,2319.4,3058.22,2281.35z"/>
	</g>
	<g>
		<g class="st150">
			<path class="st147" d="M1645.05,3114.38c0,0,360.63,122.55,882.22-126.16c529.7-252.61,656.73-640.44,681.37-740.48
				c2.51,1.67,4.7,3.18,6.6,4.5c-7.68-5.34-20.43-13.79-38.14-24.09c-71.92,163.44-243.12,426.41-637.44,614.47
				c-246.29,117.44-456.69,152.11-610.17,155.99c-196.03,4.95-372.28-120.85-427.8-308.91c-0.31-1.04-0.61-2.08-0.91-3.11
				c-2.17-7.46-4.18-14.98-6.11-22.53c-1-3.12-2.05-6.21-2.98-9.36c-0.31-1.04-0.61-2.08-0.91-3.11c-0.32-1.11-0.6-2.24-0.92-3.35
				c0.23-0.34,0.45-0.67,0.69-1.02c0,0,0,0,0,0c-14.31,20.86-20.82,33.04-20.82,33.04c1.2,56.31,8.97,111.83,22.84,165.61
				C1523.35,2944.53,1575,3036.29,1645.05,3114.38z"/>
		</g>
	</g>
	<g>
		<path class="st153" d="M1619.47,2985.83c-107.38,42.39-246.68-0.84-246.68-0.84s0.27-0.49,0.8-1.34
			c8.09-13.74,77.86-128,178.67-167.88c96.75-38.25,202.14,1.01,220.9,8.66c1.93,0.79,2.94,1.24,2.94,1.24
			S1726.14,2943.75,1619.47,2985.83z"/>
	</g>
	<g class="st152">
		<g>
			<path class="st145" d="M1781.11,2830.66c0,0-3.05,7.19-9.21,18.62c-35.91-12.43-124.77-36.27-207.39-3.6
				c-81.07,32.06-142.06,112.23-167.07,149.5c-12.42-2.94-19.66-5.18-19.66-5.18s0.3-0.49,0.81-1.36
				c8.11-13.72,77.88-127.98,178.69-167.86c96.74-38.26,202.1,1,220.87,8.65C1780.1,2830.23,1781.11,2830.66,1781.11,2830.66z"/>
		</g>
	</g>
	<g class="st150">
		<path class="st147" d="M1619.47,2985.83c-107.38,42.39-246.68-0.84-246.68-0.84s0.27-0.49,0.8-1.34l399.57-159.22
			c1.93,0.79,2.94,1.24,2.94,1.24S1726.14,2943.75,1619.47,2985.83z"/>
	</g>
	<g>
		<path class="st147" d="M1508.91,3023.47c-74.75,0-137.8-19.17-141.74-20.39l-22.49-6.98l11.65-20.47
			c3.08-5.41,76.74-133.07,188.99-177.45c112.74-44.57,233.37,7.94,238.45,10.2l16.99,7.55l-7.24,17.13
			c-2.17,5.12-54.33,125.9-167.11,170.41C1588.42,3018.45,1547.13,3023.47,1508.91,3023.47z M1402.8,2973.12
			c43.23,9.68,135.65,24.35,209.71-4.88c74.1-29.25,119.33-99.16,137.26-132.14c-35.68-11.79-116.7-31.9-190.53-2.71
			C1485.03,2862.73,1427.71,2936.52,1402.8,2973.12z M1372.78,2984.99h0.05H1372.78z"/>
	</g>
	<g class="st149">
		<path class="st147" d="M2153.04,2599.56c14.91,21.4,117.91,195.16,35.03,264.22c-72.56,60.49-206.47,50.55-277.05-44.54
			c-46.62-62.91-56.09-135.42-53.44-190.9c3.12-64.8,14.72-126.62-17.61-175.14c-17.23-25.94-45.63-48.99-78.2-74.6
			c7.48-5.21,15.15-10.46,22.96-15.67c84.92-56.71,189.29-112.99,316.14-160.98c24.76,11.93,48.47,27.26,68.4,46.96
			c78.57,77.96,80.75,234.45,27.41,297.87C2175.66,2571.78,2153.04,2599.56,2153.04,2599.56z"/>
	</g>
	<g>
		<path class="st145" d="M2200.37,2552.23c14.91,21.4,117.91,195.16,35.03,264.22c-72.56,60.49-206.47,50.55-277.05-44.54
			c-46.62-62.91-56.09-135.42-53.44-190.9c3.12-64.8,14.72-126.62-17.61-175.14c-36.78-55.29-180.29-75.92-251.68-157.76
			c-42.08-48.19-64.61-135.71-60.78-242.92c1.18-32.57,4.78-66.98,11.03-102.67c26.51-151.56,100.63-325.89,237.14-480.25
			c0,0,54.25,216.98,111.09,409.77c39.62,134.38,80.51,257.02,105.08,286.04c3.27,3.88,6.25,6.06,8.9,6.44
			c32.33,4.5,64.04,13.54,94.1,27.26c26.89,12.31,52.87,28.49,74.41,49.79c78.57,77.96,80.75,234.45,27.41,297.87
			C2222.99,2524.44,2200.37,2552.23,2200.37,2552.23z"/>
	</g>
	<g class="st149">
		<path class="st147" d="M2261.86,2776.83c-4.88,15.19-13.3,28.68-26.46,39.62c-72.56,60.49-206.47,50.55-277.05-44.54
			c-46.62-62.86-56.09-135.42-53.44-190.9c3.12-64.8,14.67-126.62-17.61-175.09c-36.78-55.29-180.29-75.97-251.72-157.76
			c-42.03-48.19-64.56-135.8-60.73-242.97c0-0.47,0.05-0.99,0.05-1.47c0.14-3.6,0.33-7.19,0.52-10.84
			c0.19-3.31,0.38-6.67,0.61-10.08c0.09-1.51,0.19-3.08,0.33-4.64c0.61-8,1.33-16.09,2.22-24.28c0.43-3.88,0.9-7.81,1.37-11.79
			c0.33-2.75,0.71-5.54,1.09-8.33c0.28-2.32,0.62-4.64,0.95-6.96c0.52-3.64,1.09-7.29,1.66-10.98c0.66-4.17,1.37-8.38,2.08-12.59
			c0.05-0.24,0.09-0.47,0.14-0.71c4.21-4.73,7.19-7.38,7.19-7.38s14.29,6.48,44.83,14.39c48.52,12.59,138.03,28.87,276.29,28.68
			l-2.18-71.71c-0.47-15.29,8.66-28.78,22.11-34.46c3.17-1.37,6.63-2.27,10.27-2.65l85.91-9.18l124.2,300.71l-115.31-2.84
			l-86.72-2.13c-18.65-1.18-33.37-16.38-33.94-35.07l-1.09-36.02c-75.88,16.99-201.45,21.44-282.73-5.35
			c6.06,74.88,26.93,135.38,59.31,172.49c71.38,81.84,178.4,37.91,250.82,122.36c45.25,52.82,21.58,145.74,18.46,210.54
			c-2.65,55.48-24.09,136.84,22.48,199.7C2047.43,2827.71,2180.73,2820.33,2261.86,2776.83z"/>
	</g>
	<g class="st149">
		<path class="st147" d="M2499.95,1422.65c-46.53,63.95-107.83,116.49-178.78,152.56c-34.03,17.28-70.29,30.81-108.25,40
			c-39.15,9.51-80.04,14.39-122.12,14.11c-74.81-0.51-145.65-17.39-209.18-47.22c-63.36-29.75-139.13-1.38-167.99,62.4
			c-41.53,91.76-65.89,182.63-75.72,265.04c-30.53-7.9-44.83-14.39-44.83-14.39s-2.98,2.65-7.19,7.38
			c26.51-151.56,100.63-325.89,237.14-480.25l1.42,14.53c18.13-24.76,29.68-38.58,29.68-38.58l452.51,23.1c0,0,1.75,23.86,5.4,63.43
			C2368.17,1469.88,2436.19,1449.15,2499.95,1422.65z"/>
	</g>
	<g>
		<path class="st147" d="M2057.17,2119.5c24.58-0.32,49.27,3.66,73.1,10.88c23.8,7.26,46.98,17.45,68.32,31.67
			c10.63,7.11,20.85,15.07,30.39,23.97c9.58,9.08,18.21,19.25,25.78,29.93c15.11,21.49,25.61,45.43,32.9,69.89
			c7.03,24.57,10.99,49.76,11.8,75.06c1.02,25.28-0.9,50.75-6.64,75.84c-5.8,24.97-14.91,50.17-32.29,72.3l-45.49,55.12l0.85-22.79
			c3.81,5.59,6.76,10.48,9.84,15.65c2.99,5.12,5.92,10.24,8.71,15.42c5.62,10.34,10.9,20.83,15.86,31.51
			c9.94,21.33,18.55,43.41,25.21,66.47c6.47,23.09,11.22,47.26,10.62,72.87c-0.34,12.75-1.9,25.89-6.12,38.83
			c-4.11,12.9-10.79,25.51-19.86,36.16l-3.4,3.99c-1.18,1.28-2.49,2.42-3.74,3.63c-2.53,2.28-5.08,5.01-7.66,6.71
			c-5.19,3.75-10.22,7.79-15.61,11.2c-5.54,3.13-11.02,6.41-16.65,9.34l-17.43,7.49c-23.71,8.66-48.72,12.56-73.53,12.4
			c-24.83-0.17-49.52-4.42-72.99-12.41c-23.56-7.82-45.47-20.35-65.01-35.64c-4.89-3.85-9.86-7.6-14.15-12.12
			c-4.38-4.4-9.08-8.52-13.15-13.2l-11.88-14.35c-3.9-4.81-7.11-9.94-10.68-14.91c-13.35-20.44-23.95-42.59-31.81-65.54
			c-7.59-23.03-12.75-46.79-15.02-70.71c-1.28-11.95-1.78-23.95-1.81-35.92c-0.05-5.99,0.17-11.97,0.38-17.95l1-17.34
			c1.47-22.97,3.48-45.33,3.52-66.88c-0.03-21.46-1.95-42.24-9.04-60.18c-0.81-2.28-1.68-4.53-2.81-6.63
			c-1.1-2.11-1.94-4.38-3.22-6.39l-3.66-6.12c-1.3-1.77-2.28-3.32-3.76-4.95c-5.56-6.47-13.26-12.62-21.88-18.18
			c-17.39-11.14-37.66-20.47-58.13-29.79c-41.05-18.62-84.35-36.93-123.81-65c-19.61-14.17-38.22-30.62-53.22-51.4
			c-14.78-20.47-25.08-42.95-32.86-65.75c-7.75-22.85-12.97-46.16-16.67-69.54c-3.35-23.41-5.21-46.9-5.78-70.34
			c-0.87-46.88,3.33-93.48,11-139.34c15.92-91.65,46.18-180.24,87.35-263.17c20.95-41.23,42.4-82.48,68.87-120.58
			c26.65-37.83,56.86-73.59,95.39-100.67c2.93-2.06,6.98-1.35,9.04,1.58c1.44,2.05,1.53,4.65,0.45,6.73l-0.03,0.05
			c-21.53,41.18-47.12,77.42-71.35,114.93c-24.41,37.23-48.94,74.64-68.45,114.81c-39.66,79.85-68.73,165.13-83.93,252.7
			c-7.32,43.78-11.28,88.11-10.47,132.16c0.54,22.01,2.29,43.89,5.37,65.49c3.41,21.5,8.19,42.68,15.04,62.9
			c6.85,20.16,15.84,39.44,27.74,55.87c11.63,16.2,27.39,30.42,44.58,42.79c34.8,24.84,75.78,42.51,117.39,61.29
			c20.84,9.54,42.1,19.12,63.06,32.48c10.42,6.79,20.88,14.7,30.18,25.48c2.31,2.6,4.52,5.79,6.51,8.63l5.11,8.5
			c1.73,2.82,2.97,5.88,4.46,8.82c1.52,2.94,2.72,5.98,3.84,9.05c4.74,12.2,7.73,24.82,9.32,37.2c1.64,12.38,2.35,24.67,2.25,36.6
			c-0.07,23.93-2.19,46.89-3.6,69.27l-0.96,16.7c-0.18,5.38-0.4,10.76-0.34,16.13c0.03,10.75,0.47,21.5,1.62,32.15
			c2.01,21.34,6.62,42.28,13.23,62.41c13.77,39.86,36.65,77.5,69.23,102.48c16.17,12.63,34.3,23.12,53.96,29.59
			c19.56,6.64,40.19,10.18,60.79,10.33c20.59,0.15,41.18-3.11,60.23-10.06l13.89-5.98c4.42-2.34,8.69-4.93,13.07-7.34
			c4.2-2.66,8.01-5.83,12.07-8.67c2.2-1.41,3.43-3.02,5.15-4.5c0.79-0.77,1.67-1.46,2.4-2.27l2.09-2.52
			c11.38-13.21,16.75-31.53,17.04-51.5c0.53-19.93-3.37-40.94-9.18-61.52c-5.96-20.62-13.87-41.03-23.14-60.89
			c-4.62-9.94-9.57-19.76-14.79-29.39c-2.6-4.83-5.31-9.57-8.05-14.27c-2.72-4.6-5.68-9.42-8.28-13.22l-8.13-11.91l8.98-10.88
			l45.24-54.81c12.13-15.34,20.22-35.79,24.84-56.97c9.19-42.7,6.15-89.09-6.86-130.95c-6.62-20.9-15.61-40.93-27.57-58.55
			c-5.93-8.87-12.63-16.96-19.97-24.56c-7.48-7.68-15.74-14.79-24.56-21.31c-17.58-13.08-37.05-24.6-57.48-34.64
			c-20.44-10.04-41.86-18.54-64.17-26.51l-0.04-0.02c-3.33-1.19-5.07-4.86-3.88-8.19
			C2052.15,2121.17,2054.58,2119.54,2057.17,2119.5z"/>
	</g>
	<g>
		<path class="st147" d="M1906.62,2470.86c-7,0-13.09-5.17-14.06-12.3c-22.09-163.4,74.68-240.65,117.3-266.27
			c70.67-42.49,155.83-46.46,207.1-9.65c6.37,4.57,7.83,13.44,3.25,19.82c-4.57,6.37-13.44,7.83-19.82,3.25
			c-41.66-29.91-115.63-25.31-175.91,10.92c-37.81,22.73-123.62,91.44-103.79,238.13c1.05,7.77-4.4,14.92-12.17,15.97
			C1907.9,2470.82,1907.25,2470.86,1906.62,2470.86z"/>
	</g>
	<g>
		<path class="st147" d="M2226.42,2549.85c-2,1.9-3.35,3.04-5.01,4.44c-1.57,1.36-3.21,2.57-4.83,3.82
			c-3.22,2.5-6.58,4.73-9.97,6.92c-6.76,4.4-13.95,8.1-21.27,11.54c-14.75,6.63-30.6,11.34-47.01,13.19
			c-16.33,1.79-33.35,1.09-48.94-4.3c-15.56-5.2-29.45-14.42-39.18-26.72c15.52,2.7,29.39,4.78,42.97,4.11
			c6.72-0.07,13.29-0.75,19.76-1.73c6.46-0.91,12.84-2.22,19.09-4.2c12.51-3.69,24.63-8.92,36.3-15.22
			c5.9-3.02,11.58-6.51,17.28-9.93l8.35-5.38l7.67-5.17l1.16-0.78c8.67-5.84,20.43-3.55,26.27,5.12
			C2234.31,2533.33,2233,2543.6,2226.42,2549.85z"/>
	</g>
	<g>
		<path class="st145" d="M2588.81,1197.28L2588.81,1197.28c-5.63,0.36-10.48-3.91-10.84-9.54l-18.77-293.56
			c-0.36-5.63,3.91-10.48,9.54-10.84h0c59.05-3.77,109.98,41.03,113.75,100.08l6.4,100.1
			C2692.67,1142.57,2647.86,1193.5,2588.81,1197.28z"/>
		<path class="st147" d="M2588.16,1199.33c-6.4,0-11.8-4.99-12.21-11.46l-18.76-293.56c-0.43-6.74,4.7-12.57,11.44-13
			c60.1-3.8,112.07,41.91,115.91,101.98l6.4,100.1c1.86,29.1-7.72,57.18-26.98,79.07c-19.26,21.89-45.9,34.97-75,36.83l0,0
			C2588.68,1199.32,2588.42,1199.33,2588.16,1199.33z M2588.81,1197.28h0.05H2588.81z M2575.73,885.14c-2.28,0-4.56,0.07-6.85,0.22
			c-2.18,0.14-4.18,1.12-5.62,2.76c-1.44,1.64-2.16,3.75-2.02,5.93l18.76,293.56c0.29,4.5,4.2,8,8.69,7.64
			c28.02-1.79,53.66-14.38,72.2-35.46c18.55-21.08,27.77-48.12,25.98-76.13l-6.4-100.11c-1.79-28.02-14.38-53.66-35.46-72.21
			C2625.66,894.31,2601.27,885.14,2575.73,885.14z"/>
	</g>
	<g class="st150">
		<path class="st147" d="M2685.9,1036.58l3.01,46.95c3.77,59.03-41.04,109.97-100.1,113.77c-5.63,0.37-10.48-3.94-10.85-9.56
			l-5.01-78.04c1.81,3.46,5.53,5.69,9.66,5.45l6.96-0.46C2636.23,1111.71,2674.03,1079.26,2685.9,1036.58z"/>
	</g>
	<g>
		<path class="st147" d="M2588.14,1216.23c-15.23,0-28.08-11.88-29.07-27.28l-18.76-293.56c-1.02-16.04,11.19-29.92,27.23-30.94
			c33.58-2.17,66.04,8.91,91.32,31.16c25.28,22.24,40.39,53,42.54,86.61l6.4,100.1c2.15,33.61-8.92,66.04-31.16,91.32
			c-22.24,25.28-53,40.39-86.61,42.54c0,0,0,0,0,0C2589.39,1216.21,2588.76,1216.23,2588.14,1216.23z M2588.81,1197.28h0.05H2588.81
			z M2578.68,902.1l17.6,275.3c44.19-7.23,76.64-47.07,73.72-92.67l-6.4-100.11c-1.5-23.51-12.07-45.03-29.76-60.59
			C2618.35,910.41,2599.03,902.78,2578.68,902.1z"/>
	</g>
	<g>
		<path class="st145" d="M1599.78,945.28L1599.78,945.28c5.63-0.36,10.48,3.91,10.84,9.54l18.77,293.56
			c0.36,5.63-3.91,10.48-9.54,10.84h0c-59.05,3.77-109.98-41.03-113.75-100.08l-6.4-100.1
			C1495.92,999.98,1540.73,949.05,1599.78,945.28z"/>
		<path class="st147" d="M1612.86,1261.47c-26.54,0-51.86-9.53-71.96-27.21c-21.89-19.26-34.98-45.9-36.84-75l-6.4-100.1
			c-1.86-29.1,7.72-57.18,26.98-79.07c19.26-21.89,45.9-34.97,75-36.83l0,0c6.82-0.34,12.57,4.7,13,11.44l18.76,293.56
			c0.21,3.26-0.87,6.41-3.03,8.87c-2.16,2.46-5.15,3.92-8.41,4.13C1617.6,1261.39,1615.22,1261.47,1612.86,1261.47z M1599.91,947.3
			c-28.02,1.79-53.66,14.38-72.2,35.46c-18.55,21.08-27.77,48.12-25.98,76.13l6.4,100.1c1.79,28.02,14.38,53.66,35.46,72.21
			c21.08,18.54,48.14,27.81,76.14,25.98c2.18-0.14,4.18-1.12,5.62-2.76c1.45-1.64,2.16-3.75,2.02-5.93l-18.76-293.56
			C1608.31,950.44,1604.42,946.99,1599.91,947.3L1599.91,947.3z"/>
	</g>
	<g class="st150">
		<path class="st147" d="M1624.2,1166.93l5.2,81.44c0.37,5.63-3.94,10.48-9.56,10.85c-30.99,1.97-59.78-9.43-80.66-29.27
			c-18.86-17.92-31.27-42.76-33.07-70.79l-2.7-42.18c19.13,35.94,58.12,59.33,101.42,56.57l10.71-0.69
			C1619.44,1172.6,1622.63,1170.22,1624.2,1166.93z"/>
	</g>
	<g>
		<path class="st147" d="M1612.93,1278.37c-65.88,0-121.47-51.38-125.73-118.03l-6.4-100.1c-2.15-33.61,8.92-66.04,31.16-91.32
			c22.24-25.28,53-40.39,86.61-42.54c0,0,0,0,0,0c16.06-1.04,29.91,11.19,30.94,27.22l18.76,293.56c0.5,7.77-2.06,15.27-7.2,21.11
			c-5.14,5.85-12.26,9.34-20.02,9.83C1618.33,1278.29,1615.62,1278.37,1612.93,1278.37z M1592.31,965.15
			c-44.19,7.23-76.64,47.07-73.72,92.67l6.4,100.1c1.5,23.51,12.07,45.03,29.76,60.59c15.49,13.63,34.81,21.26,55.16,21.94
			L1592.31,965.15z"/>
	</g>
	<g>
		
			<ellipse transform="matrix(0.7071 -0.7071 0.7071 0.7071 -144.0811 1794.7014)" class="st145" cx="2094.36" cy="1071.27" rx="501.27" ry="501.27"/>
		<path class="st147" d="M2094.41,1574.57c-1.24,0-2.42,0-3.66-0.01c-277.51-1.98-501.67-229.37-499.69-506.88
			c1.98-276.28,227.4-499.7,503.23-499.7c1.24,0,2.42,0,3.66,0.01c134.43,0.96,260.44,54.21,354.82,149.95
			s145.83,222.5,144.86,356.93C2595.66,1351.15,2370.24,1574.57,2094.41,1574.57z M2094.25,572.03
			c-131.99,0-256.28,50.95-350.38,143.71c-94.97,93.62-147.79,218.61-148.75,351.96c-0.95,133.35,50.08,259.09,143.7,354.05
			c93.62,94.97,218.61,147.79,351.96,148.75c133.23,0.92,259.09-50.08,354.05-143.7c94.97-93.62,147.79-218.61,148.75-351.96
			c0.95-133.35-50.08-259.09-143.7-354.05c-93.62-94.97-218.61-147.79-351.96-148.74C2096.7,572.04,2095.47,572.03,2094.25,572.03z"
			/>
	</g>
	<g class="st150">
		<path class="st147" d="M2591.3,1005.44c3.03,22.69,4.48,45.86,4.32,69.43c-2.02,276.83-228.03,499.64-504.86,497.68
			c-276.83-2.02-499.64-228.03-497.68-504.86c0.05-7.96,0.29-15.93,0.73-23.77c32.05,244.25,240.07,433.61,493.37,435.43
			C2356.04,1481.25,2576.94,1271.15,2591.3,1005.44z"/>
	</g>
	<g>
		<path class="st147" d="M2094.46,1591.47c-1.28,0-2.54,0-3.82-0.01c-138.95-0.99-269.19-56.04-366.74-154.99
			c-97.55-98.95-150.72-229.97-149.73-368.92c0.99-138.95,56.04-269.19,154.99-366.74c98.95-97.55,230.07-150.78,368.92-149.73
			c138.95,0.99,269.19,56.04,366.74,154.99c97.55,98.96,150.72,229.97,149.73,368.92c-0.99,138.95-56.04,269.19-154.99,366.74
			C2361.51,1538.38,2231.98,1591.47,2094.46,1591.47z M2094.26,588.94c-127.52,0-247.61,49.22-338.52,138.84
			c-91.75,90.45-142.79,211.21-143.71,340.04s48.38,250.32,138.83,342.06c90.45,91.75,211.21,142.79,340.04,143.71
			c129,0.76,250.31-48.38,342.06-138.83c91.75-90.45,142.79-211.21,143.71-340.04c0.92-128.84-48.38-250.32-138.83-342.07
			s-211.21-142.79-340.04-143.71C2096.62,588.94,2095.44,588.94,2094.26,588.94z"/>
	</g>
	<g>
		<path class="st147" d="M2593.92,1087.72c0.78,98.09-30.34,189.41-84.19,265.18c-40.38,56.81-207.41,157.01-414.63,160.52
			c-192.14,3.26-367.78-97.8-409.05-153.96c-55.05-74.91-87.62-165.72-88.4-263.81c-2.06-259.57,220.09-368.95,495.22-371.14
			C2367.98,722.32,2591.85,828.15,2593.92,1087.72z"/>
	</g>
	<g>
		<path class="st147" d="M2085.8,1524.8c-194.61,0.01-366.39-100.86-408.86-158.65c-58.49-79.59-89.82-173.1-90.59-270.41
			c-1.01-126.71,49.01-224.81,148.67-291.56c87.09-58.34,210.8-89.79,357.75-90.96c147-1.2,271.14,28.32,359.15,85.26
			c100.71,65.16,152.28,162.45,153.29,289.16l0,0c0.77,97.31-29.06,191.31-86.28,271.82c-39.65,55.8-204.63,161.56-423.65,165.27
			C2092.12,1524.77,2088.95,1524.8,2085.8,1524.8z M2100.35,735.77c-2.52,0-4.98,0.01-7.4,0.03
			c-146.38,1.16-486.56,38.55-484.01,359.75c0.73,92.53,30.54,181.47,86.2,257.21c38.93,52.96,206.31,149.43,390.85,149.44
			c2.98,0,5.93-0.02,8.91-0.08c208.36-3.53,369.43-104.86,405.61-155.77c54.45-76.61,82.84-166.02,82.1-258.55l0,0
			C2580.11,771.92,2250.49,735.77,2100.35,735.77z"/>
	</g>
	<g class="st157">
		
			<ellipse transform="matrix(0.1705 -0.9854 0.9854 0.1705 978.8906 3270.2664)" class="st145" cx="2431.74" cy="1053.75" rx="88.71" ry="64.28"/>
	</g>
	<g class="st157">
		
			<ellipse transform="matrix(0.305 -0.9524 0.9524 0.305 464.8586 3097.1592)" class="st145" cx="2354.4" cy="1230.09" rx="40.72" ry="34.94"/>
	</g>
	<g class="st150">
		<path class="st158" d="M2495.1,846.34c61.36,57.62,97.96,137.12,98.81,241.37c0.78,98.11-30.35,189.42-84.17,265.2
			c-40.39,56.81-207.44,157-414.65,160.53c-73.17,1.26-143.92-12.63-205.8-33.44c254.62-9.77,458.09-132.73,508.16-203.19
			c68.36-96.18,107.84-212.09,106.84-336.56C2504.04,906.98,2500.85,875.7,2495.1,846.34z"/>
	</g>
	<g>
		<path class="st147" d="M1648.35,885.64l-29.73-23.45l13.96,11.17l-14.87-9.93c88-131.76,259.96-208.3,471.77-209.99
			c210.49-1.59,383.24,69.58,474.78,195.49c5.3,6.96,5.24,16.91-0.67,23.81c-6.8,7.94-18.73,8.89-26.66,2.08
			c-1.13-0.96-2.2-2.12-3.07-3.32c-84.2-116.09-246.1-181.87-444.07-180.2c-199.07,1.59-359.66,71.99-440.59,193.15
			C1648.94,884.86,1648.66,885.25,1648.35,885.64z M1633.41,874.01h0.05H1633.41z"/>
	</g>
	<g class="st157">
		<path class="st145" d="M1710.74,1249.17c0,0-82.43-255.43,54.76-358.57c137.19-103.14,335.74-104.31,331.2-91.54
			c0,0-219.38,54.96-304,229.41C1727.45,1163.01,1710.74,1249.17,1710.74,1249.17z"/>
	</g>
	<g>
		<path class="st145" d="M2410.65,1805.92l13.56,104.67l10.57,81.42c2.86,22.12-11.8,42.69-33.7,47.13
			c-14.09,2.88-31.58,6.25-51.71,9.72c-71.65,12.36-177.06,26.18-283.03,24.56c-22.77-0.36-41.17-18.69-41.77-41.48l-5.46-216.12
			c-0.62-24.34,19.26-44.23,43.59-43.61c73.61,1.9,220.29,4.32,302-3.2C2387.44,1766.92,2407.73,1783.26,2410.65,1805.92z"/>
	</g>
	<g>
		<path class="st145" d="M2059.44,1772.27l-85.92,9.16c-18.84,2.01-32.94,18.19-32.36,37.12l6.54,214.4
			c0.57,18.69,15.28,33.88,33.94,35.05l79.38,4.97"/>
	</g>
	<g class="st149">
		<path class="st147" d="M2059.44,1772.27l-85.92,9.16c-18.84,2.01-32.94,18.19-32.36,37.12l6.54,214.4
			c0.57,18.69,15.28,33.88,33.94,35.05l79.38,4.97"/>
	</g>
	<g>
		<path class="st147" d="M2083.79,2090.29c-5.9,0-11.8-0.04-17.72-0.14c-31.83-0.49-57.4-25.87-58.2-57.77l-5.47-216.13
			c-0.42-16.4,5.74-31.81,17.34-43.41c11.59-11.59,27-17.7,43.39-17.33c77.76,1.98,220.14,4.21,300.04-3.14
			c31.78-2.92,59.94,19.65,64.06,51.4l24.13,186.07c3.98,30.66-16.63,59.52-46.92,65.68
			C2339.42,2068.76,2213.67,2090.29,2083.79,2090.29z M2061.6,1788.92c-6.88,0-13.33,2.67-18.22,7.56
			c-5.06,5.05-7.74,11.78-7.56,18.93l5.47,216.13c0.35,13.91,11.46,24.98,25.3,25.19c132.85,1.99,264.53-20.39,331.18-33.96
			c13.19-2.69,22.17-15.26,20.44-28.63l-24.13-186.07c-1.79-13.84-13.98-23.67-27.85-22.41c-81.6,7.51-225.46,5.28-303.95,3.28l0,0
			C2062.05,1788.92,2061.82,1788.92,2061.6,1788.92z"/>
	</g>
	<g>
		<path class="st147" d="M2061.05,2089.7c-0.35,0-0.71-0.01-1.06-0.03l-79.38-4.97c-27.44-1.72-48.77-23.74-49.6-51.22l-6.54-214.4
			c-0.84-27.5,19.93-51.34,47.3-54.25l85.92-9.17c9.22-1.02,17.41,5.67,18.39,14.85c0.98,9.18-5.67,17.41-14.85,18.39l-85.92,9.17
			c-10.08,1.08-17.74,9.86-17.43,19.99l6.54,214.4c0.31,10.13,8.17,18.24,18.28,18.87l79.38,4.97c9.21,0.58,16.21,8.51,15.64,17.73
			C2077.15,2082.89,2069.8,2089.7,2061.05,2089.7z"/>
	</g>
	<g>
		<path class="st147" d="M2242.24,2082.36c-8.79,0-16.15-6.86-16.67-15.74l-6.39-109.51l-55.45-37.4
			c-4.27-2.88-6.98-7.57-7.33-12.71l-9.07-131.89c-0.63-9.21,6.32-17.19,15.53-17.82c9.19-0.63,17.19,6.32,17.82,15.53l8.51,123.74
			l55.54,37.46c4.32,2.91,7.04,7.68,7.34,12.88l6.87,117.76c0.54,9.22-6.5,17.12-15.71,17.66
			C2242.9,2082.35,2242.57,2082.36,2242.24,2082.36z"/>
	</g>
	<g>
		<path class="st159" d="M2398.16,1905.88c0.69,6.63-3.07,61.14-3.07,61.14s-16.96,1.76-37.78,3.93
			c-26.02,2.71-49.91-22.04-53.37-55.27c-3.46-33.23,14.83-62.36,40.85-65.07c17.56-1.83,37.78-3.93,37.78-3.93
			S2397.03,1895.08,2398.16,1905.88z"/>
	</g>
	<g>
		<path class="st145" d="M2398.15,1905.89c0.7,6.63-3.04,61.14-3.04,61.14s-0.43,0.04-1.25,0.12c0.98-15.73,1.96-34.41,1.57-38.12
			c-1.1-10.81-15.56-59.19-15.56-59.19s-20.24,2.1-37.78,3.93c-18.18,1.87-32.61,16.7-38.49,36.79
			c-1.22-31.06,16.52-57.38,41.2-59.93c17.55-1.83,37.78-3.93,37.78-3.93S2397.04,1895.08,2398.15,1905.89z"/>
	</g>
	<g>
		<path class="st147" d="M2353.47,1985.35c-31.64,0-59.62-29.39-63.66-68.2c-4.26-40.97,19.74-77.15,53.5-80.66l26.38-2.74
			c13.5-1.41,25.98,7.02,29.75,20.02c11.8,40.74,12.57,48.19,12.83,50.64v0c0.21,1.97,0.68,6.57-2.25,51.94
			c-0.88,13.64-11.4,24.57-25.01,25.99l-26.25,2.73C2357,1985.26,2355.23,1985.35,2353.47,1985.35z M2372.28,1862.04l-26.02,2.71
			c-17.88,1.86-30.79,24.52-28.2,49.48c2.6,24.96,19.92,44.41,37.77,42.61l25.88-2.69c1.95-30.26,2.46-44.13,2.31-46.88
			C2383.6,1903.56,2380.31,1889.78,2372.28,1862.04z"/>
	</g>
	<g>
		
			<ellipse transform="matrix(0.9946 -0.1035 0.1035 0.9946 -184.4498 257.3597)" class="st159" cx="2388.83" cy="1906.85" rx="47.36" ry="60.49"/>
	</g>
	<g>
		<path class="st145" d="M2435.93,1901.96c0.41,4.02,0.52,7.97,0.3,11.83c-7.19-27.1-28.33-45.86-51.19-43.5
			c-22.88,2.41-39.78,25.19-41.16,53.25c-1-3.79-1.75-7.74-2.17-11.8c-3.46-33.22,14.85-62.36,40.87-65.04
			C2408.59,1843.97,2432.47,1868.74,2435.93,1901.96z"/>
	</g>
	<g>
		<path class="st147" d="M2391.1,1981.43c-15.09,0-29.6-6.52-41.37-18.7c-12.27-12.71-20.13-30.29-22.13-49.51
			c-2-19.21,2.07-38.03,11.47-53c10.09-16.07,25.01-25.89,42.04-27.66c17.02-1.78,33.65,4.77,46.83,18.42
			c12.27,12.71,20.13,30.29,22.13,49.51v0c2,19.21-2.07,38.03-11.47,53c-10.09,16.07-25.01,25.89-42.04,27.66
			C2394.73,1981.34,2392.91,1981.43,2391.1,1981.43z M2386.44,1860.69c-0.8,0-1.6,0.04-2.39,0.12c-8.15,0.85-15.58,6-20.92,14.51
			c-6.04,9.61-8.62,22.03-7.28,34.96s6.43,24.55,14.31,32.71c6.98,7.23,15.33,10.77,23.46,9.9c8.15-0.85,15.58-6,20.92-14.51
			c6.04-9.61,8.62-22.03,7.28-34.96v0c-1.35-12.93-6.43-24.55-14.31-32.71C2401.2,1864.19,2393.81,1860.69,2386.44,1860.69z"/>
	</g>
	<g>
		<path class="st145" d="M1593.07,1847.8c0,0,113.03,51.16,381.86,41.92c0,0,49.25,47.2,0,86.19
			c-49.25,38.99-326.44,61.43-400.48-18.47C1527.56,1906.85,1593.07,1847.8,1593.07,1847.8z"/>
	</g>
	<g class="st149">
		<path class="st147" d="M1974.92,1975.93c-49.23,38.96-326.42,61.39-400.49-18.51c-22.29-24.05-19.17-49.99-9.7-70.62
			c2.46,4.45,5.68,8.85,9.7,13.21c74.08,79.9,351.27,57.46,400.49,18.51c5.21-4.17,9.37-8.38,12.5-12.64
			C1997.73,1923.06,2006.21,1951.13,1974.92,1975.93z"/>
	</g>
	<g>
		<path class="st147" d="M1779.77,2027.99c-62.78,0-170.19-8.04-217.59-59.19c-15.04-16.23-22.2-34.83-21.28-55.28
			c1.9-42.45,39.38-76.7,40.97-78.14l8.12-7.32l9.93,4.5c1.71,0.75,114.63,49.4,374.42,40.46l7.05-0.24l5.09,4.88
			c2.92,2.81,28.54,28.35,26.97,61.46c-0.62,13.09-6.01,32.37-28.16,49.9c-33.03,26.15-127.46,38.53-201.22,38.96
			C1782.67,2027.98,1781.23,2027.99,1779.77,2027.99z M1597.36,1867.42c-8.6,9.78-22.24,28.25-23.07,47.71
			c-0.48,11.3,3.58,21.42,12.41,30.95c67.82,73.19,336.28,49.63,377.85,16.72c10.01-7.93,15.09-16.19,15.52-25.27
			c0.56-11.77-6.82-23.85-12.37-30.86C1746.87,1913.42,1631.86,1879.84,1597.36,1867.42z"/>
	</g>
	<g class="st149">
		<path class="st147" d="M2560.82,2244.74c-40.47,48.9-170.26,96.09-240.13,52.3c-58.36-36.54-60.21-88.89-101.58-119
			c-2.41-1.75-9.7-4.92-20.83-9.8c131.02-41.32,250.92-62.06,358.79-68.97C2603.56,2156.51,2594.33,2204.23,2560.82,2244.74z"/>
	</g>
	<g>
		<path class="st145" d="M1996.81,1626.02c146.38,182.64,387.9,294.61,532.18,424.79c79.08,71.35,66.64,105.68,27.19,153.4
			c-40.44,48.92-135.43,96.11-205.3,52.33c-58.36-36.57-61.99-71.31-103.35-101.44c-16.31-11.88-278.77-81.53-424.47-308.61"/>
	</g>
	<g class="st149">
		<path class="st147" d="M2556.18,2204.23c-40.42,48.9-135.42,96.09-205.29,52.3c-58.36-36.54-62.01-71.28-103.38-101.44
			c-16.28-11.88-278.75-81.51-424.44-308.62l2.98-3.79c162.5,170.83,331.88,181.05,444.38,267.64
			c40.54,31.2,44.06,41.55,102.42,78.09c69.87,43.78,164.87-3.41,205.29-52.3c2.6-3.12,5.06-6.2,7.38-9.23
			C2592.2,2154.48,2578.52,2177.2,2556.18,2204.23z"/>
	</g>
	<g>
		<path class="st147" d="M2001.74,1622.08c31.08,21.93,56.72,46.87,84.15,70.76c26.92,24.19,54.59,47.78,82.52,71.24
			c28.43,22.95,57.86,44.72,88.02,65.75c29.98,21.21,60.58,41.82,91.12,62.62c30.57,20.88,61.32,41.55,91.57,63.42
			c7.62,5.34,15.15,10.87,22.63,16.51c7.48,5.62,15.03,11.12,22.46,16.84c14.7,11.72,29.6,23.12,43.76,35.73
			c14.38,12.07,28.59,25.23,41.91,39.85c3.25,3.83,6.54,7.57,9.72,11.5c3.03,4.2,6.17,8.21,9.07,12.61l4.15,6.89l2.05,3.46
			c0.64,1.21,1.2,2.52,1.8,3.78l3.48,7.65c1.03,2.67,1.83,5.55,2.71,8.33c3.2,11.21,4.46,24.2,1.82,36.12
			c-2.4,11.86-7.09,22.58-12.54,31.66c-5.48,9.05-11.45,17.29-17.56,24.78c-2.89,3.76-6.35,7.65-9.87,11.51
			c-3.38,4-7.22,7.3-10.87,10.89c-14.98,13.8-31.56,25.21-49.34,34.55c-17.79,9.29-36.84,16.49-56.98,20.59
			c-20.09,4.08-41.45,4.97-62.51,0.77l-7.85-1.82c-2.62-0.57-5.23-1.22-7.74-2.26c-5.02-1.97-10.25-3.51-15.06-5.97
			c-4.74-2.53-9.64-5.06-14.19-7.71c-4.14-2.79-8.36-5.39-12.41-8.36c-8.13-5.87-16.04-12.22-23.4-19.22
			c-7.32-6.99-14.24-14.45-20.43-22.04c-12.48-15.23-22.42-29.82-34.11-40.81c-1.41-1.48-2.98-2.72-4.47-4.07
			c-1.49-1.35-3.01-2.67-4.63-3.87l-2.39-1.85l-1.19-0.93l-0.6-0.47c-0.27-0.22-0.01,0.05-0.03,0.04c0.09,0.11,0.21,0.18,0.34,0.21
			l-0.99-0.45c-0.8-0.35-1.4-0.67-2.47-1.09c-7.77-3.19-16.7-6.52-25.31-9.86c-17.4-6.73-34.84-13.8-52.06-21.35
			c-68.89-30.17-135.09-67.73-194.76-114.51c-15-11.58-29.37-23.97-43.51-36.63c-13.89-12.93-28.2-25.49-41.36-39.29
			c-6.69-6.78-13.02-13.92-18.9-21.44c-3.02-3.68-6.01-7.4-8.67-11.38c-2.77-3.89-5.5-7.8-8.11-11.8
			c-5.28-7.94-9.61-16.59-13.72-25.26c-3.81-8.89-7.08-18.07-9.2-27.81c-0.79-3.63,1.52-7.22,5.15-8c1.85-0.4,3.69,0,5.16,0.98
			l0.32,0.21c8.27,5.55,15.04,11.89,21.89,18.1c6.98,6.11,13.07,12.76,19.42,19.18c3.15,3.23,6.17,6.55,9.16,9.89
			c2.97,3.35,6.14,6.54,9.13,9.87c3.06,3.27,6.05,6.6,8.95,10c3.03,3.29,6.06,6.59,9.03,9.95c11.78,13.49,24.14,26.57,37.32,38.81
			c13.35,12.05,27.02,23.78,41.28,34.8c56.75,44.5,120.17,80.55,186.62,109.65c16.63,7.29,33.46,14.11,50.53,20.72
			c8.62,3.35,17.02,6.45,26.35,10.28c1.08,0.42,2.56,1.12,3.86,1.71c0.73,0.35,1.2,0.53,2.15,1.02c1.13,0.61,2.25,1.26,3.34,1.94
			c0.47,0.3,1.27,0.79,1.44,0.94l0.77,0.6l1.55,1.2l3.09,2.4c4.13,3.17,8.01,6.72,11.77,10.27c15.21,14.52,26.11,30.79,37.11,44.05
			c10.93,13.4,22.83,24.67,36.64,34.53c3.39,2.51,7.07,4.74,10.57,7.13l10.18,5.5c3.39,1.79,7.16,2.74,10.69,4.23
			c1.76,0.79,3.64,1.23,5.54,1.61l5.65,1.31c15.22,3.04,31.49,2.51,47.55-0.76c32.1-6.65,63.61-23.41,88.14-45.84
			c2.92-2.9,6.15-5.61,8.71-8.71c2.7-2.98,5.43-5.95,8.17-9.53c5.58-6.82,10.41-13.64,14.52-20.37c4.08-6.74,6.64-13.3,7.96-19.52
			c1.45-6.2,0.69-12.19-1.04-18.65c-3.73-12.91-13.31-26.72-24.78-39.34c-11.58-12.69-24.49-24.76-38.44-36.44
			c-13.45-11.99-27.93-23.06-42.12-34.39c-7.21-5.56-14.6-10.94-21.9-16.42c-7.28-5.49-14.64-10.9-22.16-16.17
			c-29.66-21.44-60.28-42.03-90.75-62.84c-30.57-20.81-61.28-41.5-91.66-62.99c-30.51-21.23-60.32-43.71-90.4-65.95
			c-29.61-22.91-59.21-46.23-85.42-73.48c-26.95-26.26-50.56-56.65-66.91-91.38c-1.53-3.24-0.13-7.11,3.11-8.63
			c2.19-1.03,4.65-0.73,6.5,0.56L2001.74,1622.08z"/>
	</g>
	<g>
		<path class="st147" d="M2008.19,2051.4c-1.31,0-2.64-0.16-3.97-0.48c-8.97-2.19-14.47-11.23-12.28-20.2
			c2.28-9.33,57.2-227.25,208.98-227.25c0.83,0,1.64,0,2.47,0.02c9.23,0.14,16.6,7.74,16.45,16.97
			c-0.14,9.23-7.75,16.82-16.97,16.45c-0.62-0.01-1.25-0.01-1.86-0.01c-125.95,0-176.11,199.71-176.61,201.74
			C2022.55,2046.28,2015.71,2051.4,2008.19,2051.4z"/>
	</g>
	<g>
		<path class="st147" d="M2627.13,1705.96c-2.77,0-5.58-0.69-8.17-2.14c-84.27-47.33-90.43-275.15-90.85-300.97
			c-0.15-9.23,7.2-16.83,16.43-16.99c0.1,0,0.19,0,0.28,0c9.1,0,16.55,7.3,16.71,16.44c1.09,64.84,16.46,240.17,73.8,272.38
			c8.05,4.52,10.91,14.71,6.39,22.76C2638.65,1702.89,2632.97,1705.96,2627.13,1705.96z"/>
	</g>
	<g>
		<path class="st147" d="M2765.5,1278.45c0.17,1.04,0.25,2.98,0.36,4.59l0.31,5.12c0.29,3.45,0.41,6.94,0.76,10.42
			c0.47,7,1.34,14,2.34,21.06c0.97,7.09,2.45,14.1,3.83,21.46c1.1,7.55,3,14.91,3.92,23.9c-8.03-3.7-14.76-9.35-20.22-15.91
			c-2.85-3.24-5.08-6.85-7.35-10.49c-1.97-3.74-4.07-7.52-5.63-11.47c-3.41-7.84-5.82-16.09-7.35-24.5
			c-0.64-4.22-1.28-8.47-1.41-12.79c-0.09-2.16-0.17-4.32-0.05-6.53c0.05-2.28,0.21-4.23,0.58-7.06
			c1.08-8.16,8.56-13.91,16.73-12.83c6.69,0.88,11.75,6.07,12.77,12.4L2765.5,1278.45z"/>
	</g>
</g>
</svg>
